{"glyphs":{"0":{"ha":732,"x_min":61,"x_max":717,"o":"m 386 767 q 638 667 558 767 q 717 385 717 568 q 638 93 717 203 q 385 -17 558 -17 q 136 81 211 -17 q 61 378 61 179 q 386 767 61 767 m 316 126 q 330 118 316 126 q 386 110 344 110 q 456 125 428 110 q 499 163 485 140 q 522 225 514 185 q 533 379 533 278 q 386 640 533 640 q 317 624 346 640 q 272 585 288 607 q 249 525 257 563 q 238 406 238 475 q 240 303 238 338 q 249 228 242 269 q 272 165 257 188 q 316 126 288 142 z "},"1":{"ha":500,"x_min":35,"x_max":494,"o":"m 393 679 q 379 133 393 663 l 494 121 q 463 0 494 60 l 76 0 l 64 76 q 219 126 167 115 q 207 567 207 563 q 72 528 121 533 q 35 650 36 592 l 328 751 q 393 679 376 725 z "},"2":{"ha":629,"x_min":64,"x_max":599,"o":"m 232 474 l 182 472 q 101 482 157 472 q 74 664 75 554 q 181 734 111 701 q 314 767 251 767 q 520 701 442 767 q 599 550 599 636 q 561 399 599 464 q 428 250 524 333 l 282 124 l 433 124 q 453 247 449 233 q 504 250 469 250 q 576 235 539 250 q 596 49 596 138 l 594 0 l 88 0 q 64 107 64 50 q 397 453 367 399 q 415 546 415 485 q 388 611 415 579 q 303 643 360 643 q 264 642 276 643 q 246 549 257 611 q 232 474 235 488 z "},"3":{"ha":658,"x_min":40,"x_max":625,"o":"m 406 529 q 281 647 406 647 q 249 644 268 647 l 217 475 q 88 483 119 475 q 60 651 60 561 l 60 664 q 165 734 92 703 q 292 765 238 765 q 504 702 421 765 q 588 547 588 639 q 467 350 588 426 q 579 269 533 329 q 625 117 625 208 q 565 -51 625 25 q 426 -162 506 -126 q 255 -197 347 -197 q 40 -156 163 -197 q 71 -44 43 -85 l 113 -53 q 222 -69 179 -69 q 286 -65 264 -69 q 349 -47 308 -61 q 415 4 389 -33 q 442 104 442 42 q 399 209 442 167 q 288 251 356 251 q 192 243 283 251 q 178 319 178 301 q 181 365 178 338 l 263 376 q 364 426 322 385 q 406 529 406 467 z "},"4":{"ha":739,"x_min":21,"x_max":731,"o":"m 729 164 l 731 132 q 707 38 731 78 l 588 38 l 578 -179 q 514 -185 554 -185 q 440 -181 474 -185 l 431 38 l 49 38 q 21 122 21 78 q 24 139 21 133 l 378 750 l 603 750 q 590 165 603 744 l 729 164 m 428 167 l 418 515 l 211 164 q 428 167 283 164 z "},"5":{"ha":626,"x_min":42,"x_max":629,"o":"m 443 104 q 406 203 443 156 q 294 251 368 251 q 172 239 219 251 q 128 276 156 249 q 88 319 100 303 l 72 750 l 619 750 q 629 638 629 713 q 599 472 629 564 q 522 463 558 463 q 468 464 485 463 l 439 622 l 246 622 l 229 374 q 294 386 257 386 q 532 313 438 386 q 626 106 626 239 q 517 -112 626 -28 q 249 -196 408 -196 q 145 -184 210 -196 q 42 -156 81 -172 q 51 -93 42 -131 q 72 -44 61 -56 q 247 -69 143 -69 q 356 -49 308 -69 q 443 104 443 -8 z "},"6":{"ha":776,"x_min":71,"x_max":747,"o":"m 593 1003 q 601 940 601 972 q 594 888 601 907 q 261 572 307 865 q 435 624 357 624 q 663 548 578 624 q 747 313 747 472 q 660 68 747 153 q 429 -17 572 -17 q 258 25 331 -17 q 147 139 186 67 q 71 478 71 276 q 119 710 71 607 q 244 875 167 814 q 593 1003 403 1003 m 260 411 l 264 331 l 264 328 q 314 170 272 232 q 422 108 356 108 q 564 333 564 108 q 531 457 564 418 q 426 496 499 496 q 260 435 353 496 l 260 411 z "},"7":{"ha":644,"x_min":31,"x_max":611,"o":"m 564 750 q 593 713 575 743 q 611 671 611 683 q 610 651 611 658 q 431 113 533 407 q 322 -199 329 -182 q 194 -154 236 -187 l 422 624 l 222 624 l 190 464 q 140 461 174 461 l 60 471 q 31 665 31 558 q 39 750 31 696 l 564 750 z "},"8":{"ha":733,"x_min":63,"x_max":692,"o":"m 692 263 q 616 63 692 143 q 383 -17 540 -17 q 175 42 272 -17 q 94 126 125 72 q 63 255 63 181 q 106 390 63 329 q 221 508 149 451 q 83 749 83 585 q 164 935 83 867 q 385 1003 244 1003 q 606 932 526 1003 q 686 767 686 861 q 643 604 686 674 q 532 492 600 535 q 660 371 629 425 q 692 263 692 317 m 515 239 q 476 351 515 307 q 340 447 438 394 q 246 256 246 369 q 292 149 246 192 q 385 106 339 106 q 515 239 515 106 m 503 757 q 383 876 503 876 q 293 863 343 876 q 267 756 267 810 q 388 571 267 625 q 402 565 393 569 q 415 558 411 560 q 503 757 503 624 z "},"9":{"ha":726,"x_min":46,"x_max":689,"o":"m 136 -112 q 138 -94 136 -99 q 372 -19 294 -83 q 476 171 449 44 q 358 144 413 144 q 131 232 215 144 q 46 454 46 319 q 131 678 46 589 q 368 767 217 767 q 604 665 519 767 q 689 392 689 563 q 556 -28 689 131 q 158 -196 422 -187 q 136 -112 136 -164 m 382 268 q 501 317 413 268 q 508 410 508 367 q 503 488 508 454 q 484 560 497 522 q 442 619 471 597 q 372 642 413 642 q 228 447 232 642 q 269 313 228 358 q 382 268 311 268 z "},"":{"ha":0,"x_min":0,"x_max":0,"o":""}," ":{"ha":361,"x_min":0,"x_max":0,"o":""},"!":{"ha":404,"x_min":126,"x_max":331,"o":"m 297 260 q 244 256 276 256 q 165 263 211 256 l 132 1003 q 220 1007 172 1007 q 317 996 268 1007 l 297 260 m 139 172 q 231 176 193 176 q 325 164 269 176 q 331 91 331 124 q 318 -4 331 58 q 226 -8 264 -8 q 132 4 188 -8 q 126 77 126 44 q 139 172 126 110 z "},"\"":{"ha":564,"x_min":104,"x_max":554,"o":"m 301 1018 q 313 913 313 963 q 303 792 313 863 q 275 685 293 722 q 224 675 239 675 q 203 675 208 675 q 163 678 183 678 q 168 751 168 717 q 104 1008 168 864 q 202 1024 175 1024 q 301 1018 229 1024 m 542 1018 q 554 909 554 956 q 544 792 554 863 q 515 685 535 722 q 453 675 481 675 l 403 678 q 410 751 410 717 q 346 1008 410 858 q 442 1024 415 1024 q 542 1018 469 1024 z "},"#":{"ha":926,"x_min":36,"x_max":886,"o":"m 514 260 l 358 261 l 328 6 q 268 -4 289 -4 l 194 4 l 217 263 l 43 265 q 36 324 36 301 l 42 386 q 199 396 136 396 l 228 396 q 246 607 232 449 l 79 610 q 72 668 72 644 l 78 731 q 235 740 172 740 l 257 740 l 276 969 q 372 974 344 974 q 446 969 399 974 l 417 738 q 554 736 500 738 q 575 969 571 915 q 671 974 644 974 q 744 969 697 974 l 714 735 q 883 731 833 735 q 886 669 886 692 q 879 613 886 646 q 724 603 785 603 l 699 603 l 672 390 l 843 389 q 849 325 849 347 q 843 268 849 303 q 688 258 749 258 l 657 258 l 626 6 q 567 -4 588 -4 l 493 4 l 514 260 m 375 394 l 526 392 q 544 604 529 431 q 401 606 449 604 l 375 394 z "},"$":{"ha":699,"x_min":83,"x_max":650,"o":"m 201 275 l 247 272 l 264 128 q 362 108 317 108 q 438 133 407 108 q 469 190 469 157 q 447 246 469 224 q 401 281 425 268 q 330 317 378 294 q 252 357 282 340 q 183 403 222 374 q 110 549 110 460 q 160 695 110 638 q 297 769 210 753 l 296 932 q 372 944 333 944 q 444 933 411 944 q 442 771 442 825 q 618 714 533 757 q 621 631 621 688 q 606 507 621 575 q 544 496 594 503 q 472 489 494 489 l 425 643 q 369 650 404 650 q 311 627 335 650 q 288 570 288 604 q 322 511 288 536 q 411 460 356 486 q 490 421 467 433 q 549 385 514 408 q 603 340 583 363 q 650 219 650 283 q 590 66 650 125 q 433 -11 531 7 l 432 -160 q 373 -171 403 -171 q 308 -161 343 -171 q 306 -14 308 -111 q 83 69 172 3 q 104 267 83 168 q 201 275 171 275 z "},"%":{"ha":1183,"x_min":56,"x_max":1119,"o":"m 56 750 q 119 959 56 882 q 308 1036 182 1036 q 499 961 433 1036 q 564 758 564 886 q 499 548 564 629 q 308 467 433 467 q 56 750 56 467 m 613 265 q 676 474 613 397 q 865 551 739 551 q 1055 476 990 551 q 1119 272 1119 401 q 1055 63 1119 143 q 865 -18 990 -18 q 613 265 613 -18 m 985 940 l 283 -26 q 185 42 231 -1 l 850 1028 q 985 940 933 993 m 242 616 q 246 609 242 616 q 267 590 250 601 q 310 579 283 579 q 356 593 338 579 q 382 636 375 607 q 393 731 393 681 q 391 806 393 782 q 382 861 389 829 q 308 924 368 924 q 242 889 263 924 q 224 822 225 861 q 222 751 222 783 q 223 701 222 718 q 228 657 224 683 q 242 616 233 631 m 799 133 q 803 125 799 133 q 824 107 807 118 q 865 96 840 96 q 906 107 889 96 q 931 132 922 118 q 944 171 939 146 q 950 249 950 203 q 948 320 950 296 q 939 375 946 344 q 865 439 925 439 q 799 404 819 439 q 781 338 782 376 q 779 267 779 299 q 780 217 779 235 q 785 173 781 199 q 799 133 790 147 z "},"&":{"ha":1011,"x_min":56,"x_max":1039,"o":"m 444 865 q 365 833 389 865 q 342 765 342 800 q 356 700 342 731 q 388 649 371 669 q 440 594 406 629 q 510 519 475 558 l 689 311 q 710 338 703 325 q 726 365 717 350 q 740 399 735 381 q 753 444 746 418 q 767 581 764 493 l 657 594 q 689 715 657 654 l 1039 715 l 1033 636 q 925 596 985 607 q 874 374 925 479 q 781 226 824 268 l 949 39 q 846 -25 918 -25 l 694 108 q 559 20 639 57 q 417 -17 479 -17 q 160 62 264 -17 q 56 285 56 140 q 106 440 56 371 q 229 549 157 508 q 149 749 149 643 q 225 922 149 856 q 435 989 301 989 q 574 956 506 989 q 682 882 642 922 l 657 732 q 591 717 626 717 q 539 719 556 717 l 506 860 q 444 865 467 865 m 340 446 q 268 377 294 419 q 242 288 242 335 q 261 203 242 240 q 311 149 281 167 q 421 114 369 114 q 606 199 528 114 l 340 446 z "},"'":{"ha":285,"x_min":69,"x_max":278,"o":"m 265 1018 q 278 909 278 956 q 268 792 278 863 q 239 685 258 722 q 176 675 204 675 l 126 678 q 133 751 133 717 q 69 1008 133 858 q 165 1024 138 1024 q 265 1018 193 1024 z "},"(":{"ha":453,"x_min":97,"x_max":478,"o":"m 453 961 q 281 344 281 561 q 453 -269 281 128 l 478 -331 q 364 -389 436 -378 q 184 -48 271 -267 q 97 346 97 171 q 184 740 97 521 q 364 1081 271 958 q 478 1022 433 1063 l 453 961 z "},")":{"ha":453,"x_min":21,"x_max":401,"o":"m 46 -269 q 218 344 218 128 q 46 961 218 561 l 21 1022 q 135 1081 65 1063 q 315 740 228 958 q 401 346 401 521 q 315 -48 401 171 q 135 -389 228 -267 q 21 -331 63 -378 l 46 -269 z "},"*":{"ha":597,"x_min":36,"x_max":554,"o":"m 268 889 l 264 1001 q 265 1021 264 1017 q 341 1035 307 1035 q 407 1026 375 1035 q 432 974 424 1013 q 394 912 428 960 q 358 857 361 864 q 415 892 363 860 q 482 928 467 924 q 554 821 542 865 q 517 772 554 801 q 482 769 500 769 q 425 772 464 769 q 372 774 386 774 q 414 750 381 768 q 506 696 493 708 q 450 589 488 626 q 419 586 439 586 q 372 596 399 586 q 322 700 356 615 l 326 588 q 325 568 326 572 q 247 554 281 554 q 183 563 213 554 q 157 614 165 575 q 193 676 163 629 q 228 731 224 722 q 172 696 224 728 q 106 661 119 664 q 36 768 47 724 q 72 817 36 786 q 107 819 89 819 q 163 817 125 819 q 213 815 200 815 q 172 839 204 821 q 83 893 94 882 q 139 1000 103 963 q 169 1003 153 1003 q 218 992 185 1003 q 245 938 225 983 q 268 889 265 893 z "},"+":{"ha":731,"x_min":38,"x_max":714,"o":"m 447 1 q 367 -3 401 -3 q 307 3 333 -3 q 288 167 288 106 q 289 293 288 229 l 43 299 q 38 356 38 325 q 42 418 38 386 q 228 438 150 438 l 292 438 l 297 711 q 358 717 324 717 q 438 713 392 717 q 456 535 456 611 l 456 433 l 708 428 q 714 370 714 401 q 710 310 714 339 q 551 289 601 289 q 451 290 501 289 l 447 1 z "},",":{"ha":292,"x_min":35,"x_max":269,"o":"m 257 178 q 269 64 269 128 q 215 -77 269 0 q 114 -183 161 -154 q 35 -128 65 -162 q 114 -1 53 -74 l 79 3 q 67 91 67 46 q 71 171 67 136 q 156 183 128 183 q 257 178 185 183 z "},"-":{"ha":454,"x_min":67,"x_max":436,"o":"m 431 415 q 436 358 436 389 q 432 293 436 326 q 275 283 336 283 l 74 292 q 67 349 67 317 q 71 415 67 382 q 228 425 167 425 l 431 415 z "},".":{"ha":289,"x_min":71,"x_max":274,"o":"m 261 176 q 274 91 274 126 q 269 11 274 56 q 179 -1 222 -1 q 85 3 136 -1 q 71 84 71 58 q 76 168 71 110 q 165 181 122 181 q 261 176 207 181 z "},"/":{"ha":565,"x_min":42,"x_max":571,"o":"m 392 971 q 464 976 428 976 q 571 964 500 976 l 201 1 q 121 -6 172 -6 q 42 -1 69 -6 l 392 971 z "},":":{"ha":331,"x_min":92,"x_max":294,"o":"m 282 176 q 294 91 294 126 q 290 11 294 56 q 200 -1 242 -1 q 106 3 158 -1 q 92 84 92 58 q 97 168 92 110 q 185 181 143 181 q 282 176 228 181 m 282 626 q 294 541 294 576 q 290 461 294 506 q 200 449 242 449 q 106 453 158 449 q 92 534 92 508 q 97 618 92 560 q 185 631 143 631 q 282 626 228 631 z "},";":{"ha":326,"x_min":56,"x_max":290,"o":"m 278 626 q 290 541 290 576 q 286 461 290 506 q 196 449 239 449 q 101 453 153 449 q 88 534 88 508 q 93 618 88 560 q 181 631 139 631 q 278 626 224 631 m 278 178 q 290 64 290 128 q 236 -77 290 0 q 135 -183 182 -154 q 56 -128 86 -162 q 135 -1 74 -74 l 100 3 q 88 91 88 46 q 92 171 88 136 q 177 183 149 183 q 278 178 206 183 z "},"<":{"ha":613,"x_min":64,"x_max":575,"o":"m 69 319 q 64 362 64 342 q 69 401 64 382 q 300 628 239 571 q 492 778 388 711 l 560 685 q 246 364 299 411 l 269 343 l 575 44 l 492 -50 q 350 53 390 15 q 69 319 90 294 z "},"=":{"ha":828,"x_min":97,"x_max":750,"o":"m 743 315 q 750 253 750 279 l 746 194 q 560 174 636 174 l 104 183 q 97 242 97 218 l 103 303 q 289 324 211 324 l 743 315 m 746 547 q 750 485 750 510 l 746 426 q 560 406 636 406 l 104 415 q 97 474 97 450 l 103 533 q 289 554 211 554 l 746 547 z "},">":{"ha":647,"x_min":97,"x_max":608,"o":"m 603 401 q 608 362 608 382 q 603 319 608 342 q 479 201 596 311 q 336 67 363 90 q 181 -50 285 17 l 97 44 q 426 364 368 313 l 403 385 l 113 685 l 181 778 q 358 642 282 713 q 603 401 435 571 z "},"?":{"ha":669,"x_min":97,"x_max":618,"o":"m 398 660 q 406 674 398 660 q 429 729 414 688 q 444 815 444 771 q 417 888 444 858 q 340 918 389 918 q 288 910 315 918 l 256 764 l 128 769 q 97 946 103 840 q 363 1040 219 1040 q 618 794 618 1040 q 599 701 618 750 q 561 623 581 653 q 504 540 542 593 q 408 360 424 426 q 404 249 404 340 q 293 239 354 239 q 254 372 268 297 q 354 590 268 460 q 398 660 382 633 m 443 7 q 354 -4 399 -4 q 272 1 310 -4 q 261 99 261 49 q 265 174 261 149 q 355 182 310 182 q 436 178 400 182 q 447 87 447 133 q 443 7 447 40 z "},"@":{"ha":1271,"x_min":97,"x_max":1282,"o":"m 663 89 q 803 161 686 89 q 799 292 803 163 l 693 282 q 581 178 581 271 q 663 89 581 89 m 976 425 l 971 106 q 1082 81 1021 99 q 1143 361 1143 203 q 1021 688 1143 574 q 690 801 899 801 q 358 688 481 801 q 236 356 236 574 q 369 -3 236 139 q 686 -144 503 -144 q 946 -115 794 -144 q 1147 -57 1097 -86 q 1174 -105 1161 -71 q 1190 -167 1188 -139 q 976 -233 1136 -203 q 688 -264 815 -264 q 264 -89 431 -264 q 97 355 97 86 q 251 774 97 624 q 690 924 404 924 q 1128 781 975 924 q 1282 382 1282 639 q 1217 157 1282 272 q 1078 7 1151 42 q 979 -23 1047 -7 q 844 -39 911 -39 q 818 31 835 -19 q 633 -47 694 -47 q 462 9 526 -47 q 397 167 397 65 q 678 404 397 394 q 793 407 749 404 l 792 429 q 765 543 789 507 q 679 579 740 579 l 635 571 l 603 431 l 553 429 l 474 439 q 446 625 447 511 q 576 672 475 640 q 703 704 676 704 q 915 638 853 704 q 976 425 976 572 z "},"A":{"ha":1026,"x_min":7,"x_max":1011,"o":"m 721 957 l 722 943 q 704 846 722 886 q 647 824 686 832 l 879 138 l 1011 121 q 979 0 1011 64 l 642 0 l 629 76 q 706 106 688 99 l 650 263 l 338 263 q 293 133 296 139 l 389 121 q 378 53 389 92 q 357 0 367 15 l 19 0 l 7 76 q 119 115 69 103 l 353 829 q 213 865 260 843 q 225 936 213 906 q 362 959 254 946 q 567 972 469 972 q 721 957 665 972 m 542 575 l 501 758 l 488 758 l 443 567 l 378 393 l 610 393 l 542 575 z "},"B":{"ha":875,"x_min":42,"x_max":814,"o":"m 415 128 q 631 282 631 128 q 578 424 631 394 q 344 454 526 454 l 339 131 q 415 128 386 128 m 407 568 q 558 596 514 571 q 603 701 603 621 q 551 807 603 781 q 396 833 500 833 l 346 833 q 343 569 343 658 l 407 568 m 408 -1 l 65 -1 l 53 75 q 169 115 125 104 q 157 850 169 119 q 42 886 135 856 l 53 971 l 438 971 q 694 907 603 971 q 786 722 786 843 q 755 596 786 664 q 683 515 724 528 q 779 422 744 482 q 814 285 814 363 q 710 78 814 157 q 408 -1 606 -1 z "},"C":{"ha":821,"x_min":28,"x_max":774,"o":"m 663 658 l 619 660 l 579 826 q 458 840 499 840 q 281 808 379 840 q 235 669 251 754 q 218 510 218 585 q 439 126 218 126 q 589 154 533 126 l 618 324 q 751 314 706 324 q 774 68 774 163 q 640 13 740 43 q 442 -18 539 -18 q 28 493 28 -18 q 128 863 28 736 q 450 989 229 989 q 644 957 560 989 q 772 896 719 929 q 751 668 772 801 q 663 658 713 658 z "},"D":{"ha":926,"x_min":42,"x_max":882,"o":"m 882 507 q 736 82 882 201 q 607 17 676 35 q 425 0 538 0 l 65 0 l 53 76 q 169 117 158 115 q 157 851 169 121 q 42 888 96 867 q 53 972 50 960 l 421 972 q 638 944 557 972 q 782 846 719 917 q 882 507 882 729 m 438 135 q 648 211 596 135 q 700 475 700 288 q 642 748 700 663 q 447 833 583 833 l 346 833 q 339 135 340 365 l 438 135 z "},"E":{"ha":826,"x_min":42,"x_max":758,"o":"m 346 833 q 343 561 346 675 l 485 561 l 499 657 q 636 622 569 657 l 636 344 l 544 340 q 506 428 511 390 l 342 428 q 339 135 339 233 l 576 135 l 607 256 q 738 247 693 256 q 758 103 758 168 q 754 0 758 39 l 65 0 l 53 76 q 169 117 143 111 q 167 347 168 199 q 157 851 161 681 l 42 888 l 53 972 l 735 972 q 739 878 739 935 q 718 722 739 822 q 588 708 675 708 l 556 833 l 346 833 z "},"F":{"ha":772,"x_min":42,"x_max":739,"o":"m 346 833 q 343 528 346 639 l 485 528 l 499 624 q 636 589 569 624 l 636 314 l 544 307 q 506 394 511 357 l 342 394 l 339 133 l 476 118 q 444 0 476 64 l 65 0 l 53 76 q 169 117 143 111 q 167 347 168 199 q 157 851 161 681 l 42 888 l 53 972 l 735 972 q 739 877 739 935 q 718 719 739 819 q 625 710 688 710 l 594 711 l 588 711 l 556 833 l 346 833 z "},"G":{"ha":910,"x_min":28,"x_max":883,"o":"m 442 -18 q 140 110 253 -18 q 28 488 28 238 q 126 863 28 738 q 443 989 224 989 q 622 964 536 989 q 738 922 707 939 q 786 890 768 904 q 764 693 786 801 q 692 676 728 676 q 632 679 657 676 l 603 824 q 483 840 542 840 q 279 807 401 840 q 218 510 218 685 q 443 126 218 126 q 622 164 556 126 q 628 386 625 236 l 511 422 l 522 507 l 858 507 q 883 397 875 476 q 782 383 836 388 q 790 75 790 204 q 644 15 750 49 q 442 -18 539 -18 z "},"H":{"ha":1033,"x_min":42,"x_max":981,"o":"m 711 117 l 706 444 l 342 444 q 339 133 339 236 l 435 121 q 403 0 435 64 l 65 0 l 53 76 q 169 117 131 108 q 157 851 169 121 l 42 888 l 53 972 l 413 972 q 439 863 435 935 q 346 849 368 851 q 343 578 343 668 l 703 578 l 699 851 l 583 888 l 594 972 l 954 972 q 981 863 976 935 q 888 849 910 851 l 881 133 l 976 121 q 944 0 976 64 l 607 0 l 594 76 q 711 117 672 108 z "},"I":{"ha":528,"x_min":76,"x_max":474,"o":"m 449 972 q 449 969 447 972 q 455 958 451 967 q 463 936 458 949 q 474 863 471 914 q 381 849 403 851 l 374 133 l 469 121 q 438 0 469 64 l 100 0 l 88 76 q 204 117 165 108 q 200 347 203 199 q 192 851 196 681 l 76 888 l 88 972 l 449 972 z "},"J":{"ha":644,"x_min":7,"x_max":611,"o":"m 257 129 q 344 263 344 129 q 329 851 344 313 l 214 888 l 225 972 l 586 972 q 611 863 611 918 q 518 849 528 849 q 516 561 517 768 q 513 237 515 354 q 451 51 510 119 q 282 -18 393 -18 q 122 7 201 -18 q 7 65 42 32 q 29 296 8 167 q 165 311 85 311 l 192 135 q 257 129 214 129 z "},"K":{"ha":961,"x_min":42,"x_max":960,"o":"m 340 300 l 339 133 l 435 121 q 403 0 435 64 l 65 0 l 53 76 q 169 117 131 108 q 157 851 169 121 l 42 888 l 53 972 l 413 972 q 439 863 435 935 q 346 849 368 851 l 342 535 l 615 849 l 528 863 q 553 972 528 904 l 914 972 q 925 888 922 922 q 810 851 851 860 l 556 521 l 836 135 l 960 122 q 928 0 960 64 l 729 0 l 443 411 l 340 300 z "},"L":{"ha":822,"x_min":96,"x_max":801,"o":"m 649 253 q 699 258 682 258 q 775 249 717 258 q 791 178 781 238 q 801 81 801 118 q 793 0 801 44 l 119 0 l 107 76 q 224 117 175 104 q 211 851 224 121 l 96 888 l 107 972 l 468 972 q 469 969 467 972 q 474 958 471 967 q 482 936 478 949 q 493 863 490 914 q 400 849 422 851 q 393 133 394 369 l 618 133 l 649 253 z "},"M":{"ha":1350,"x_min":21,"x_max":1300,"o":"m 721 283 l 849 972 l 1210 972 q 1221 888 1221 913 q 1106 851 1154 864 l 1204 133 l 1300 121 q 1268 0 1300 64 l 931 0 l 918 76 q 1035 117 996 108 l 928 683 l 786 68 l 644 68 l 425 747 l 307 133 l 403 121 q 371 0 403 64 l 33 0 l 21 76 q 138 117 99 108 l 236 851 l 121 888 l 132 972 l 521 972 l 707 283 l 721 283 z "},"N":{"ha":1090,"x_min":42,"x_max":1079,"o":"m 986 849 l 982 0 l 804 0 l 346 747 q 339 133 340 340 l 435 121 q 403 0 435 64 l 65 0 l 53 76 q 169 117 131 108 q 157 851 169 121 l 42 888 l 53 972 l 414 972 l 818 247 l 797 851 l 682 888 l 693 972 l 1054 972 q 1055 969 1053 972 q 1060 958 1057 967 q 1068 936 1064 949 q 1079 863 1076 914 q 986 849 1008 851 z "},"O":{"ha":899,"x_min":28,"x_max":879,"o":"m 458 131 q 689 485 689 131 q 458 839 689 839 q 283 808 358 839 q 219 499 219 675 q 272 227 219 324 q 458 131 325 131 m 458 989 q 785 867 690 989 q 879 496 879 746 q 839 228 879 339 q 703 50 799 117 q 458 -17 607 -17 q 130 110 232 -17 q 28 478 28 236 q 458 989 28 989 z "},"P":{"ha":799,"x_min":43,"x_max":788,"o":"m 439 972 q 701 911 615 972 q 788 689 788 850 q 704 465 788 554 q 438 375 621 375 q 343 376 378 375 l 340 132 l 442 121 q 410 0 442 60 l 67 0 l 54 76 q 171 117 126 106 q 158 851 171 121 q 43 888 136 857 l 54 972 l 439 972 m 408 507 q 553 558 501 508 q 604 688 604 608 q 559 801 604 767 q 418 835 514 835 q 347 833 381 835 q 344 506 344 614 l 408 507 z "},"Q":{"ha":888,"x_min":28,"x_max":885,"o":"m 399 -47 q 421 -47 399 -47 q 499 -62 443 -47 q 611 -102 554 -78 q 683 -131 668 -126 q 885 -151 749 -151 q 867 -243 879 -204 q 836 -307 856 -282 q 651 -271 732 -301 q 571 -237 629 -262 q 468 -198 513 -211 q 384 -185 424 -185 q 273 -202 344 -185 q 200 -219 201 -219 q 150 -124 150 -176 q 295 -66 235 -85 q 399 -47 356 -47 m 458 131 q 689 485 689 131 q 458 839 689 839 q 283 808 358 839 q 219 499 219 675 q 272 227 219 324 q 458 131 325 131 m 458 989 q 785 867 690 989 q 879 496 879 746 q 839 228 879 339 q 703 50 799 117 q 458 -17 607 -17 q 130 110 232 -17 q 28 478 28 236 q 458 989 28 989 z "},"R":{"ha":911,"x_min":42,"x_max":893,"o":"m 390 972 q 713 903 633 972 q 785 710 785 840 q 574 433 785 507 l 774 132 l 893 119 q 861 0 893 60 l 660 0 l 388 415 l 343 415 l 339 132 l 440 121 q 408 0 440 64 l 65 0 l 53 76 q 169 117 136 110 q 163 529 167 288 q 157 853 158 771 l 42 888 q 54 972 43 919 l 390 972 m 500 824 q 385 833 457 833 l 346 833 q 343 546 343 642 l 411 547 q 541 581 493 549 q 589 708 589 614 q 500 824 589 803 z "},"S":{"ha":796,"x_min":63,"x_max":754,"o":"m 408 133 q 569 271 569 133 q 508 369 569 329 q 387 435 464 400 q 272 492 310 471 q 183 550 233 513 q 88 733 88 624 q 173 916 88 843 q 404 989 258 989 q 715 896 550 989 q 694 679 715 796 q 563 665 650 665 l 522 831 q 410 846 471 846 q 315 819 349 846 q 282 741 282 793 q 334 648 282 689 q 460 573 386 607 q 561 525 533 539 q 632 483 589 511 q 697 431 675 456 q 754 282 754 364 q 658 60 754 138 q 408 -18 563 -18 q 228 10 326 -18 q 63 83 131 39 q 85 313 65 168 q 218 324 140 324 l 247 157 q 408 133 324 133 z "},"T":{"ha":863,"x_min":28,"x_max":844,"o":"m 50 719 q 28 871 28 815 q 32 972 28 926 l 839 972 q 844 882 844 906 q 822 719 844 822 q 690 708 782 708 l 658 849 l 540 849 q 528 133 539 796 l 628 121 q 596 0 628 57 l 258 0 l 246 76 q 367 117 342 113 q 350 847 367 122 l 213 847 l 182 711 q 50 719 100 711 z "},"U":{"ha":1047,"x_min":33,"x_max":1074,"o":"m 797 504 l 792 851 l 676 888 l 688 972 l 1049 972 q 1049 969 1047 972 q 1055 958 1051 967 q 1063 936 1058 949 q 1074 863 1071 914 q 981 849 1003 851 l 978 496 q 881 107 975 231 q 561 -17 788 -17 q 246 99 335 -17 q 154 472 157 214 q 149 851 151 729 l 33 888 l 44 972 l 406 972 q 406 969 404 972 q 412 958 408 967 q 419 936 415 949 q 431 863 428 914 q 338 849 360 851 l 333 496 q 350 277 333 342 q 392 186 367 213 q 564 131 446 131 q 736 194 678 131 q 793 375 783 246 q 797 504 797 426 z "},"V":{"ha":1014,"x_min":8,"x_max":978,"o":"m 518 260 q 704 850 543 346 l 581 888 l 592 972 l 951 972 q 978 863 976 922 l 892 850 l 615 0 l 431 0 l 132 850 l 8 888 l 19 972 l 379 972 q 406 863 404 922 q 324 850 346 853 l 518 260 z "},"W":{"ha":1497,"x_min":8,"x_max":1468,"o":"m 947 0 l 764 757 l 750 757 l 564 0 l 347 0 l 125 856 q 8 896 82 867 l 21 972 l 358 972 q 390 851 390 908 q 294 839 349 843 l 440 225 l 660 972 l 871 972 l 1053 233 l 1203 856 q 1086 896 1160 867 l 1099 972 l 1436 972 q 1468 851 1468 908 q 1372 839 1426 843 l 1147 0 l 947 0 z "},"X":{"ha":1003,"x_min":14,"x_max":947,"o":"m 615 849 q 528 863 558 856 q 553 972 528 904 l 914 972 q 925 888 922 922 q 810 851 851 860 l 560 500 l 824 135 l 947 122 q 915 0 947 64 l 576 0 l 564 76 q 642 108 590 86 l 454 365 l 300 133 l 396 121 q 363 0 396 63 l 26 0 l 14 76 q 131 117 74 104 l 358 500 l 106 851 l 21 863 q 46 972 26 938 l 421 972 q 432 888 432 913 q 317 851 353 858 q 389 748 339 818 q 471 629 439 678 l 615 849 z "},"Y":{"ha":942,"x_min":8,"x_max":925,"o":"m 567 364 l 565 133 l 661 121 q 629 0 661 64 l 292 0 l 279 76 q 396 117 375 114 q 393 363 396 199 l 131 850 l 8 888 l 19 972 l 381 972 q 406 863 406 926 q 324 850 374 857 l 472 515 l 485 515 l 643 851 q 528 888 596 861 l 538 972 l 900 972 q 925 863 924 938 q 817 847 871 851 l 567 364 z "},"Z":{"ha":828,"x_min":63,"x_max":792,"o":"m 253 686 l 210 685 q 129 701 171 685 q 104 871 104 810 q 110 972 104 932 l 747 972 q 792 863 781 928 l 303 133 l 604 133 l 635 282 l 679 283 q 760 267 718 283 q 783 103 783 163 q 778 0 783 43 l 107 0 q 63 107 72 44 l 550 835 l 286 835 l 253 686 z "},"[":{"ha":511,"x_min":118,"x_max":463,"o":"m 303 926 l 297 -150 l 463 -161 q 457 -261 463 -232 q 323 -277 435 -268 q 165 -286 211 -286 q 149 -250 160 -281 q 138 -197 139 -219 q 118 985 132 190 q 131 1038 119 1007 q 146 1074 142 1069 q 314 1065 193 1074 q 457 1049 435 1056 q 461 949 461 1015 q 303 926 439 942 z "},"\\":{"ha":565,"x_min":42,"x_max":571,"o":"m 571 -1 q 492 -6 543 -6 q 411 1 440 -6 l 42 964 q 149 976 113 976 q 221 971 185 976 l 571 -1 z "},"]":{"ha":442,"x_min":56,"x_max":400,"o":"m 221 -150 l 215 926 q 57 949 79 942 q 61 1049 57 1015 q 204 1065 83 1056 q 372 1074 325 1074 q 388 1038 376 1069 q 400 985 399 1007 q 381 -197 386 190 q 369 -250 379 -219 q 353 -286 358 -281 q 195 -277 307 -286 q 61 -261 83 -268 q 56 -161 56 -232 q 221 -150 150 -153 z "},"^":{"ha":711,"x_min":83,"x_max":628,"o":"m 310 972 q 356 975 315 975 q 408 971 396 975 l 628 550 q 597 533 621 542 q 564 524 574 524 q 431 661 467 594 q 401 722 422 675 q 356 817 379 769 q 310 722 332 769 q 276 653 289 675 q 231 597 264 632 q 147 524 197 563 q 114 533 138 524 q 83 550 90 542 q 310 972 301 965 z "},"_":{"ha":699,"x_min":0,"x_max":714,"o":"m 710 -174 q 714 -235 714 -208 l 708 -292 q 524 -312 600 -312 l 8 -303 q 0 -244 0 -264 l 7 -185 q 193 -164 115 -164 l 710 -174 z "},"`":{"ha":1157,"x_min":272,"x_max":579,"o":"m 360 1038 l 579 856 q 493 768 540 806 q 272 917 353 838 q 297 972 275 942 q 360 1038 318 1001 z "},"a":{"ha":749,"x_min":57,"x_max":776,"o":"m 304 -17 q 122 32 186 -17 q 57 196 57 81 q 133 375 57 306 q 257 422 178 415 q 475 429 336 429 l 475 451 q 448 576 475 536 q 353 615 421 615 q 290 601 318 615 l 257 481 l 154 483 q 117 651 119 536 q 247 694 144 665 q 379 722 350 722 q 597 660 529 722 q 665 465 665 599 q 653 111 665 331 q 775 88 732 104 q 776 47 776 71 l 775 17 q 574 -17 675 -17 q 535 -15 547 -17 q 510 85 514 26 l 503 85 q 410 22 476 60 q 304 -17 344 -17 m 235 188 q 263 120 235 142 q 328 99 292 99 q 414 131 364 99 q 494 190 464 164 l 488 318 q 322 297 378 313 q 235 188 235 279 z "},"b":{"ha":735,"x_min":10,"x_max":758,"o":"m 290 1032 q 333 1031 324 1032 q 315 904 333 958 l 311 671 q 489 722 440 722 q 692 620 626 722 q 758 356 758 518 q 685 88 758 193 q 471 -17 611 -17 q 278 53 379 -17 q 261 -6 272 21 q 211 -8 236 -8 q 149 0 186 -8 l 119 889 q 10 910 54 896 q 19 1010 10 961 q 290 1032 100 1032 m 465 576 q 310 544 375 576 q 304 192 307 311 q 381 142 338 164 q 454 119 424 119 q 575 342 575 119 q 549 506 575 436 q 465 576 524 576 z "},"c":{"ha":656,"x_min":50,"x_max":643,"o":"m 426 607 l 404 608 q 280 555 326 608 q 233 376 233 501 q 269 185 233 250 q 406 119 304 119 q 606 183 453 119 q 643 82 640 135 q 494 8 567 35 q 390 -18 421 -18 q 135 76 219 -18 q 50 339 50 169 q 396 722 50 722 q 519 708 456 722 q 618 671 582 693 q 588 469 614 532 q 458 458 542 458 l 426 607 z "},"d":{"ha":785,"x_min":50,"x_max":779,"o":"m 665 1032 q 699 1031 692 1032 q 681 904 699 958 q 667 477 675 754 q 657 111 660 200 q 779 88 739 100 l 779 21 q 539 -17 692 -17 q 517 58 531 -1 q 332 -17 389 -11 q 120 86 190 -17 q 50 351 50 189 q 121 623 50 513 q 331 733 192 733 q 492 686 407 733 l 485 889 q 375 910 419 896 q 385 1010 375 944 q 665 1032 467 1032 m 353 597 q 233 367 233 597 q 281 168 233 235 q 349 129 307 129 q 508 178 419 129 l 496 536 q 353 597 417 597 z "},"e":{"ha":711,"x_min":56,"x_max":674,"o":"m 413 119 q 604 185 460 119 q 650 82 635 140 q 501 9 574 35 q 397 -17 428 -17 q 142 76 229 -17 q 56 341 56 169 q 142 617 56 513 q 397 722 228 722 q 603 635 532 722 q 674 407 674 547 q 640 340 674 378 l 240 347 q 282 178 243 236 q 413 119 321 119 m 385 607 q 286 586 332 607 q 246 463 254 519 q 492 468 354 467 q 385 607 485 607 z "},"f":{"ha":511,"x_min":28,"x_max":610,"o":"m 422 911 l 397 913 q 335 869 353 913 q 315 717 317 825 q 446 704 399 715 q 479 700 449 704 q 446 581 475 638 l 315 581 q 308 135 310 283 q 461 110 446 125 q 426 0 461 64 l 40 0 l 28 76 q 153 118 136 115 l 138 581 l 40 581 l 44 660 q 138 696 81 685 l 138 733 q 201 972 138 897 q 372 1040 260 1040 q 608 979 483 1040 l 610 957 q 590 786 610 881 q 514 775 549 775 q 463 778 479 775 l 422 911 z "},"g":{"ha":803,"x_min":57,"x_max":832,"o":"m 603 241 q 580 226 603 241 q 506 198 557 211 q 406 185 454 185 q 322 194 358 185 q 293 140 307 158 q 526 124 304 124 q 722 81 665 124 q 769 24 749 63 q 789 -77 789 -15 q 728 -201 789 -139 q 575 -300 667 -264 q 393 -336 483 -336 q 150 -277 243 -336 q 57 -131 57 -218 q 106 -49 57 -114 q 169 25 154 15 q 121 72 156 32 q 82 128 86 111 q 193 253 100 178 q 85 472 85 318 q 169 658 85 594 q 391 722 253 722 q 600 685 529 722 q 767 706 718 706 q 832 704 817 706 q 816 628 832 671 q 786 569 800 586 l 667 597 q 701 468 701 547 q 675 330 701 389 q 603 241 649 271 m 596 -157 q 606 -96 606 -131 q 575 -45 606 -61 q 503 -29 544 -29 q 288 -26 340 -29 q 260 -94 276 -50 q 243 -146 243 -137 q 254 -170 243 -154 q 302 -204 265 -186 q 392 -222 339 -222 q 518 -197 446 -222 q 596 -157 590 -172 m 484 581 q 468 599 484 581 q 393 618 451 618 q 302 581 335 618 q 269 472 269 543 q 303 360 269 400 q 393 319 336 319 q 517 472 517 319 q 484 581 517 543 z "},"h":{"ha":857,"x_min":28,"x_max":863,"o":"m 318 1032 l 351 1031 q 333 904 351 958 q 331 667 331 746 q 432 704 375 686 q 503 722 489 722 q 706 658 644 722 q 768 457 768 594 q 754 133 768 443 l 863 119 q 831 0 863 60 l 485 0 l 472 76 q 592 117 565 114 q 585 383 589 267 q 563 536 581 499 q 505 574 544 574 q 415 565 465 574 q 336 543 364 556 l 321 133 l 429 121 q 397 0 429 64 l 51 0 l 39 76 q 164 118 125 108 l 138 889 q 28 910 72 896 q 38 1010 28 944 q 318 1032 119 1032 z "},"i":{"ha":428,"x_min":42,"x_max":443,"o":"m 332 711 q 365 710 358 711 q 342 583 365 642 q 335 133 336 283 l 443 121 q 411 0 443 64 l 65 0 l 53 76 q 178 118 139 108 l 163 568 q 42 589 81 576 q 51 689 42 624 q 332 711 133 711 m 332 974 q 344 878 344 911 q 339 806 344 846 q 245 793 283 793 q 153 797 207 793 q 140 892 140 860 q 146 965 140 925 q 240 978 201 978 q 332 974 278 978 z "},"j":{"ha":396,"x_min":-136,"x_max":357,"o":"m 57 -208 l 86 -210 q 153 -162 132 -210 q 175 -43 175 -114 q 154 568 175 131 q 33 589 72 576 q 43 689 33 624 q 324 711 125 711 q 357 710 350 711 q 333 583 357 642 l 328 -18 q 276 -258 326 -182 q 81 -333 226 -333 q -37 -312 33 -333 q -136 -271 -107 -290 q -107 -71 -129 -137 q -22 -58 -75 -58 l 24 -60 l 57 -208 m 324 974 q 336 878 336 911 q 331 806 336 846 q 237 793 275 793 q 144 797 199 793 q 132 892 132 860 q 138 965 132 925 q 231 978 193 978 q 324 974 269 978 z "},"k":{"ha":821,"x_min":26,"x_max":818,"o":"m 321 240 l 319 133 l 428 121 q 396 0 428 64 l 50 0 l 38 76 q 163 118 124 108 l 136 889 q 26 910 71 896 q 36 1010 26 961 q 317 1032 118 1032 q 350 1031 343 1032 q 332 904 350 958 q 324 410 324 571 l 489 574 l 403 585 q 435 706 403 642 l 781 706 l 793 629 q 668 588 707 597 l 515 435 l 710 133 l 818 121 q 786 0 818 64 l 608 0 l 403 322 l 321 240 z "},"l":{"ha":410,"x_min":26,"x_max":428,"o":"m 317 1032 q 350 1031 343 1032 q 332 904 350 958 q 328 661 331 818 q 319 133 322 317 l 428 121 q 396 0 428 64 l 50 0 l 38 76 q 163 118 124 108 l 136 889 q 26 910 71 896 q 36 1010 26 961 q 317 1032 118 1032 z "},"m":{"ha":1289,"x_min":39,"x_max":1299,"o":"m 1021 401 q 1019 450 1021 401 q 998 536 1018 499 q 906 574 978 574 q 774 543 835 574 q 756 133 774 365 l 865 121 q 833 0 865 64 l 488 0 l 475 76 q 601 118 547 103 l 590 407 q 569 535 588 497 q 497 574 550 574 q 417 564 469 574 q 336 543 364 554 q 324 133 336 539 l 432 121 q 400 0 432 60 l 54 0 l 42 76 q 167 118 124 108 l 149 567 q 39 588 92 572 l 46 688 q 147 704 69 694 q 265 714 225 714 q 286 688 271 710 q 307 654 301 667 q 422 700 354 678 q 504 722 489 722 q 719 646 651 722 q 847 698 772 674 q 940 722 922 722 q 1138 660 1072 722 q 1203 451 1203 597 q 1190 133 1203 371 l 1299 121 q 1267 0 1299 60 l 922 0 l 910 76 q 1029 118 975 103 q 1026 208 1028 150 q 1021 401 1024 304 z "},"n":{"ha":856,"x_min":39,"x_max":865,"o":"m 506 722 q 707 654 644 722 q 769 464 769 586 q 756 133 769 342 l 865 121 q 833 0 865 64 l 488 0 l 475 76 q 596 118 540 103 q 588 387 592 278 q 567 535 583 496 q 493 574 550 574 q 339 543 407 574 q 331 348 338 483 q 324 133 325 213 l 432 121 q 400 0 432 64 l 54 0 l 42 76 q 167 118 111 103 q 158 349 165 201 q 149 567 150 496 q 39 588 97 572 l 46 688 q 265 714 143 714 q 307 654 281 704 q 422 700 354 678 q 506 722 490 722 z "},"o":{"ha":747,"x_min":50,"x_max":771,"o":"m 410 611 q 296 586 360 611 q 262 488 278 558 q 246 347 246 418 q 285 162 246 217 q 410 107 324 107 q 536 162 497 107 q 575 351 575 217 q 535 548 575 485 q 410 611 496 611 m 410 722 q 491 722 410 722 q 672 623 572 722 q 771 347 771 524 q 672 76 771 169 q 410 -17 574 -17 q 148 76 246 -17 q 50 347 50 169 q 149 623 50 524 q 410 722 247 722 z "},"p":{"ha":751,"x_min":21,"x_max":775,"o":"m 486 -17 q 317 36 406 -17 q 314 -186 314 -111 l 422 -199 q 390 -319 422 -260 l 44 -319 l 32 -243 q 157 -201 121 -210 l 131 569 q 21 590 65 575 q 31 690 21 642 q 289 713 89 703 q 314 651 300 694 q 504 722 458 722 q 708 626 642 722 q 775 367 775 529 q 701 94 775 204 q 486 -17 626 -17 m 325 529 l 319 178 q 395 127 351 149 q 469 106 439 106 q 592 340 592 106 q 574 481 592 428 q 534 555 557 533 q 481 576 511 576 q 325 529 419 576 z "},"q":{"ha":799,"x_min":50,"x_max":804,"o":"m 333 -18 q 121 85 192 -18 q 50 349 50 188 q 121 617 50 511 q 332 722 192 722 q 519 663 419 722 l 553 713 q 799 660 665 713 q 804 585 804 635 q 693 560 717 563 l 681 -186 l 789 -199 q 757 -319 789 -260 l 411 -319 l 399 -243 q 524 -201 478 -212 l 515 36 q 333 -18 428 -7 m 233 354 q 261 188 233 258 q 354 117 289 117 q 508 164 419 117 q 499 525 504 353 q 354 586 419 586 q 233 354 233 586 z "},"r":{"ha":624,"x_min":39,"x_max":640,"o":"m 453 572 q 425 579 450 579 q 339 542 400 579 q 332 133 333 269 l 440 119 q 408 0 440 60 l 63 0 l 50 76 q 175 118 136 108 l 160 568 q 39 589 88 574 l 49 689 q 319 711 86 706 q 332 663 332 699 q 487 722 454 722 q 567 706 519 722 q 640 672 615 690 l 640 649 q 613 438 640 535 q 550 428 589 428 q 478 432 511 428 q 453 572 474 450 z "},"s":{"ha":628,"x_min":46,"x_max":589,"o":"m 554 663 l 556 619 q 539 478 556 511 q 411 461 493 461 l 367 601 q 317 608 349 608 q 265 589 285 608 q 244 543 244 569 q 265 495 244 517 q 308 461 286 474 q 373 428 331 449 q 437 397 415 408 q 492 364 458 386 q 544 322 526 342 q 589 207 589 269 q 508 42 589 100 q 308 -17 426 -17 q 172 6 246 -17 q 46 65 97 28 q 65 251 46 165 q 156 258 121 258 q 203 257 190 258 l 219 122 q 303 110 254 110 q 380 129 351 110 q 408 184 408 149 q 376 243 408 219 q 289 292 344 267 q 203 335 233 318 q 138 381 172 353 q 67 514 67 435 q 135 667 67 613 q 321 722 204 722 q 554 663 438 722 z "},"t":{"ha":483,"x_min":31,"x_max":469,"o":"m 211 -17 l 181 -15 q 158 42 172 0 q 143 104 144 83 q 128 581 136 242 l 31 581 l 35 660 q 111 700 67 682 l 224 878 q 308 849 278 872 l 307 717 q 469 700 394 714 q 435 581 469 644 l 306 581 q 299 143 300 289 q 450 111 354 138 l 449 39 q 344 3 425 24 q 211 -17 263 -17 z "},"u":{"ha":826,"x_min":14,"x_max":813,"o":"m 707 711 q 740 710 733 711 q 717 588 740 639 q 703 136 708 282 q 813 115 765 131 l 810 18 q 664 -8 725 -8 q 581 -6 603 -8 q 553 61 564 28 q 386 -17 438 -17 q 138 235 138 -17 q 149 569 138 303 q 14 589 75 569 q 24 689 14 624 q 304 711 106 711 q 338 710 331 711 q 314 583 338 642 l 314 303 q 333 173 314 214 q 413 132 351 132 q 540 175 475 132 l 532 569 q 417 589 471 572 q 426 689 417 624 q 707 711 508 711 z "},"v":{"ha":819,"x_min":-14,"x_max":821,"o":"m 422 208 l 474 415 l 547 593 q 431 629 500 601 l 443 706 l 789 706 q 821 585 821 642 q 713 574 767 576 q 603 286 685 481 q 494 0 522 92 l 315 0 l 94 572 l -14 585 q 18 706 -14 642 l 364 706 l 376 629 q 281 593 319 603 l 347 417 l 396 208 l 422 208 z "},"w":{"ha":1194,"x_min":-14,"x_max":1196,"o":"m 510 706 q 580 707 528 707 q 674 704 632 707 l 763 418 l 806 222 l 829 222 l 869 415 l 922 593 q 806 629 875 601 l 818 706 l 1164 706 q 1196 585 1196 642 q 1088 574 1142 576 q 990 255 1056 465 q 910 0 924 44 l 721 0 l 592 428 l 586 428 l 453 0 l 274 0 l 94 572 l -14 585 q 18 706 -14 642 l 364 706 l 376 629 q 281 593 319 603 l 326 417 l 361 222 l 383 222 l 424 418 l 510 706 z "},"x":{"ha":761,"x_min":-15,"x_max":776,"o":"m 765 706 q 774 677 774 690 q 771 653 774 664 q 763 628 768 642 q 756 608 757 614 q 628 583 696 589 l 478 368 l 665 132 q 776 121 715 132 q 753 0 776 61 l 378 0 l 367 72 q 476 117 418 100 l 379 243 l 208 0 l -6 0 q -15 79 -15 33 q 140 132 64 117 l 297 346 l 119 569 l -11 588 q 13 706 -11 644 l 388 706 l 396 629 q 300 594 344 603 l 394 472 l 567 706 l 765 706 z "},"y":{"ha":819,"x_min":-14,"x_max":821,"o":"m 235 -336 q 146 -322 194 -336 q 42 -281 97 -308 q 57 -90 50 -121 q 144 -76 110 -76 q 188 -78 178 -76 l 232 -217 l 244 -215 q 310 -139 276 -211 q 358 0 343 -67 l 300 0 l 94 572 l -14 585 q 18 706 -14 642 l 364 706 l 376 629 q 281 593 319 603 l 386 264 l 399 204 l 429 204 l 547 593 q 431 629 500 601 l 443 706 l 789 706 q 821 585 821 642 q 713 574 767 576 q 517 7 588 207 q 390 -265 447 -193 q 235 -336 333 -336 z "},"z":{"ha":674,"x_min":61,"x_max":636,"o":"m 614 254 q 636 117 636 175 q 631 0 636 58 l 92 0 q 61 99 64 40 l 414 586 l 271 586 l 240 449 q 191 447 229 447 q 108 457 153 447 q 89 613 89 557 q 93 706 89 668 l 603 706 q 622 604 622 667 l 285 125 l 453 125 l 483 263 q 614 254 569 263 z "},"{":{"ha":563,"x_min":43,"x_max":524,"o":"m 361 242 l 356 13 l 356 -39 q 524 -136 497 -115 q 482 -231 511 -174 q 213 -156 421 -224 q 182 -109 199 -146 q 165 -58 165 -72 l 210 222 q 61 361 169 264 l 53 368 q 43 425 43 389 l 51 472 q 134 546 75 492 q 210 618 193 600 q 165 899 179 804 q 182 948 165 911 q 213 996 199 985 q 482 1071 421 1064 q 524 975 510 1017 q 356 879 490 950 l 356 826 l 361 597 q 178 428 361 506 l 178 413 q 361 242 361 335 z "},"|":{"ha":414,"x_min":139,"x_max":331,"o":"m 317 -276 q 240 -290 283 -290 q 156 -279 197 -290 q 147 474 153 65 q 139 1029 140 883 q 238 1040 186 1040 q 331 1032 289 1040 l 317 -276 z "},"}":{"ha":549,"x_min":40,"x_max":521,"o":"m 203 597 l 208 826 l 208 879 q 40 975 74 950 q 82 1071 54 1017 q 351 996 143 1064 q 382 948 365 985 q 399 899 399 911 q 354 618 385 804 q 430 546 371 600 q 513 472 489 492 q 521 428 521 446 q 511 368 521 390 l 503 361 q 354 222 394 264 l 399 -58 q 382 -109 399 -72 q 351 -156 365 -146 q 82 -231 143 -224 q 40 -136 53 -174 q 208 -39 67 -115 l 208 13 l 203 242 q 386 413 203 335 l 386 428 q 203 597 203 506 z "},"~":{"ha":785,"x_min":69,"x_max":740,"o":"m 113 299 q 69 368 83 336 q 167 447 89 396 q 281 499 244 499 l 547 407 q 699 460 572 419 q 740 390 724 426 q 645 310 724 363 q 532 258 567 258 l 264 350 q 113 299 174 310 z "},"¡":{"ha":404,"x_min":126,"x_max":331,"o":"m 317 -325 q 220 -336 268 -336 q 132 -332 172 -336 l 165 408 q 244 415 211 415 q 297 411 276 415 l 317 -325 m 139 499 q 126 594 126 561 q 132 667 126 626 q 226 679 188 679 q 318 675 264 679 q 331 580 331 613 q 325 507 331 547 q 231 494 269 494 q 139 499 193 494 z "},"¢":{"ha":724,"x_min":69,"x_max":690,"o":"m 478 -11 l 476 -160 q 418 -171 447 -171 q 351 -161 389 -171 l 350 -11 q 69 376 69 29 q 342 769 69 724 l 340 932 q 417 944 378 944 q 489 933 456 944 q 486 772 486 825 q 664 713 586 758 q 632 496 660 571 q 549 488 589 488 l 497 489 l 464 649 q 439 650 456 650 q 306 592 356 650 q 256 398 256 533 q 294 187 256 263 q 440 111 332 111 q 513 129 456 111 q 639 179 571 147 q 690 74 686 121 q 478 -11 582 7 z "},"£":{"ha":731,"x_min":85,"x_max":682,"o":"m 540 247 l 585 250 q 664 235 618 250 q 682 73 682 138 q 681 0 682 8 l 114 0 q 85 110 85 47 q 142 175 92 125 q 236 317 236 269 q 193 450 236 364 l 96 454 q 85 550 90 481 q 140 565 107 561 q 111 703 111 639 q 177 910 111 831 q 372 989 243 989 q 626 883 501 989 q 599 700 626 783 q 521 690 557 690 q 468 693 485 690 l 438 860 q 377 864 417 864 q 313 819 338 864 q 288 715 288 774 q 325 578 288 656 l 581 569 q 586 513 586 535 l 579 464 q 392 444 468 444 q 417 346 417 390 q 324 125 417 236 l 521 125 q 540 247 528 203 z "},"¤":{"ha":829,"x_min":42,"x_max":817,"o":"m 267 740 q 430 781 332 781 q 593 743 528 781 q 713 851 674 826 q 815 763 790 807 q 796 711 815 747 q 686 643 754 690 q 717 490 717 578 q 674 328 717 403 l 681 322 q 797 250 757 269 q 817 197 817 215 q 714 110 796 161 q 576 235 664 140 q 433 200 515 200 q 290 228 350 200 l 286 225 q 160 108 201 138 q 56 197 82 154 q 75 250 56 214 q 183 317 104 263 q 138 481 138 389 q 174 640 138 572 q 61 711 101 690 q 42 763 42 744 q 146 851 63 800 q 267 740 182 829 m 431 325 q 535 486 535 325 q 513 613 535 571 q 440 656 492 656 q 354 642 388 656 q 319 496 319 574 q 431 325 319 325 z "},"¥":{"ha":954,"x_min":14,"x_max":931,"o":"m 746 451 q 749 401 749 433 q 747 354 749 369 q 590 338 653 338 l 572 338 l 572 299 q 756 296 739 296 q 758 242 758 257 q 756 196 758 226 q 600 179 661 179 l 571 179 l 571 133 l 667 121 q 635 0 667 64 l 297 0 l 285 76 q 400 117 381 114 l 400 181 l 233 185 q 228 244 228 224 q 232 286 228 264 q 399 303 303 303 l 397 339 l 224 343 q 219 395 219 369 q 225 443 219 421 q 343 458 286 454 l 136 850 l 14 888 l 25 972 l 386 972 q 411 863 411 926 q 329 850 379 857 l 490 515 l 649 851 q 533 888 601 861 l 543 972 l 906 972 q 915 950 910 960 q 922 931 919 940 q 926 913 925 921 q 931 863 931 888 q 822 847 876 851 l 625 454 l 746 451 z "},"¦":{"ha":414,"x_min":139,"x_max":331,"o":"m 331 1038 l 325 531 l 146 529 q 139 1035 144 700 q 238 1046 186 1046 q 331 1038 289 1046 m 156 -294 q 150 176 153 19 l 322 178 q 317 -292 319 19 q 240 -306 283 -306 q 156 -294 197 -306 z "},"§":{"ha":708,"x_min":97,"x_max":651,"o":"m 617 961 l 618 918 q 601 776 618 810 q 474 760 556 760 l 429 900 q 379 907 411 907 q 327 888 347 907 q 307 842 307 868 q 328 794 307 815 q 371 760 349 772 q 435 727 393 747 q 499 696 478 707 q 555 663 521 685 q 606 619 589 640 q 651 509 651 568 q 636 403 651 450 q 592 321 621 357 q 486 219 546 264 q 608 136 564 181 q 651 24 651 92 q 570 -142 651 -83 q 371 -200 489 -200 q 234 -178 308 -200 q 108 -118 160 -156 q 128 65 108 -18 q 265 74 197 74 l 282 -61 q 365 -74 317 -74 q 442 -54 414 -74 q 471 1 471 -35 q 439 60 471 36 q 326 121 407 83 q 171 228 244 158 q 97 388 97 297 q 167 558 97 497 q 275 628 222 608 q 129 810 129 708 q 198 966 129 911 q 383 1021 267 1021 q 617 961 500 1021 m 265 421 q 297 328 265 363 q 383 268 328 294 q 458 338 432 301 q 485 429 485 375 q 376 578 485 521 q 265 421 265 513 z "},"¨":{"ha":1157,"x_min":289,"x_max":689,"o":"m 451 949 q 463 873 463 901 q 458 807 463 844 q 381 796 417 796 q 300 800 346 796 q 289 876 289 847 q 293 942 289 904 q 370 953 335 953 q 451 949 406 953 m 678 949 q 689 873 689 901 q 685 807 689 844 q 608 796 643 796 q 526 800 572 796 q 515 876 515 847 q 519 942 515 904 q 597 953 561 953 q 678 949 632 953 z "},"©":{"ha":1157,"x_min":26,"x_max":1110,"o":"m 188 106 q 150 136 188 106 q 69 271 113 167 q 26 512 26 375 q 69 752 26 649 q 189 917 113 856 q 568 1040 339 1040 q 947 913 794 1040 q 1066 747 1022 850 q 1110 510 1110 644 q 1067 271 1110 375 q 947 106 1024 167 q 776 14 871 44 q 568 -17 681 -17 q 360 14 456 -17 q 188 106 264 44 m 568 913 q 478 913 568 913 q 298 807 388 913 q 208 516 208 701 q 300 217 208 331 q 565 103 392 103 q 833 218 738 103 q 929 518 929 333 q 839 808 929 703 q 568 913 749 913 m 650 718 l 585 724 q 483 706 550 724 q 449 528 449 642 q 572 304 449 304 q 656 318 622 304 l 674 426 l 714 428 l 779 419 q 793 251 793 314 q 705 214 772 235 q 575 193 638 193 q 367 271 446 193 q 288 510 288 349 q 361 753 288 671 q 579 835 435 835 q 688 817 635 835 q 767 781 740 799 l 792 763 l 792 746 q 778 619 792 700 q 714 611 740 611 l 675 613 l 650 718 z "},"ª":{"ha":519,"x_min":31,"x_max":529,"o":"m 451 592 l 529 576 l 526 515 q 453 491 507 504 q 347 478 399 478 q 329 522 338 497 q 206 472 243 472 q 78 514 126 472 q 31 629 31 556 q 236 801 31 794 l 307 804 l 306 831 q 291 894 304 879 q 238 908 278 908 l 215 903 l 192 825 l 151 824 l 85 832 q 65 947 65 864 q 158 973 85 957 q 254 989 232 989 q 412 951 368 989 q 456 807 456 914 q 451 592 456 700 m 225 582 q 315 629 238 582 l 311 710 l 247 703 q 178 639 178 696 q 225 582 178 582 z "},"«":{"ha":665,"x_min":76,"x_max":603,"o":"m 81 340 q 76 365 76 349 q 78 388 76 381 l 143 479 q 260 613 179 529 q 371 543 304 601 q 247 364 257 374 q 272 332 263 346 l 369 185 q 257 117 317 122 q 143 249 183 190 l 81 340 m 313 340 q 308 365 308 349 q 310 388 308 381 l 375 479 q 492 613 411 529 q 603 543 536 601 q 479 364 489 374 q 504 332 494 346 l 601 185 q 489 117 549 122 q 375 249 415 190 l 313 340 z "},"¬":{"ha":719,"x_min":49,"x_max":674,"o":"m 56 436 q 210 457 163 457 q 308 456 257 457 q 419 453 358 454 q 674 446 589 449 l 674 142 q 606 136 642 136 q 532 140 569 136 l 515 307 l 469 307 l 57 315 q 49 374 49 347 l 56 436 z "},"­":{"ha":536,"x_min":107,"x_max":476,"o":"m 471 415 q 476 358 476 389 q 472 293 476 326 q 315 283 376 283 l 114 292 q 107 349 107 317 q 111 415 107 382 q 268 425 207 425 l 471 415 z "},"®":{"ha":736,"x_min":78,"x_max":989,"o":"m 506 790 q 681 688 681 790 q 614 588 681 619 l 696 506 l 744 500 q 725 431 744 465 l 617 431 l 501 543 l 501 504 l 538 488 q 522 431 536 457 l 353 431 l 340 474 q 388 496 368 492 l 388 721 l 344 739 l 349 790 l 506 790 m 504 653 l 519 653 q 557 685 557 653 q 519 707 557 707 l 504 707 l 504 653 m 533 921 q 464 921 533 921 q 302 846 396 921 q 208 620 208 771 q 303 388 208 469 q 534 307 399 307 q 764 388 669 307 q 858 618 858 469 q 764 844 858 767 q 533 921 669 921 m 219 291 q 186 317 219 291 q 116 429 154 343 q 78 613 78 515 q 103 782 78 711 q 171 901 128 853 q 272 981 214 949 q 519 1043 383 1043 q 756 999 656 1043 q 923 858 857 956 q 989 638 989 761 q 951 429 989 515 q 849 291 914 343 q 704 212 785 239 q 533 185 624 185 q 363 212 443 185 q 219 291 283 239 z "},"¯":{"ha":413,"x_min":57,"x_max":410,"o":"m 63 968 q 231 978 158 978 q 407 968 304 978 q 410 914 410 956 l 406 847 q 249 839 310 839 l 64 846 q 57 901 57 878 l 63 968 z "},"°":{"ha":614,"x_min":132,"x_max":489,"o":"m 132 868 q 181 993 132 950 q 312 1036 229 1036 q 442 992 394 1036 q 489 862 489 949 q 442 726 489 775 q 313 676 394 676 q 132 868 132 676 m 311 772 q 354 853 354 772 q 311 933 354 933 q 261 853 261 933 q 311 772 261 772 z "},"±":{"ha":786,"x_min":63,"x_max":744,"o":"m 256 572 l 318 571 l 325 846 q 393 856 369 856 l 464 847 q 483 686 483 746 q 482 568 483 626 l 736 563 q 743 501 743 528 l 738 444 q 553 424 629 424 l 479 424 l 476 142 q 404 131 433 131 l 335 138 q 315 302 315 240 q 317 426 315 364 l 71 433 q 63 492 63 475 l 69 551 q 256 572 178 572 m 69 18 q 242 38 178 38 q 512 33 306 38 q 740 26 718 28 q 744 -32 744 13 l 738 -90 q 553 -111 629 -111 l 71 -101 q 63 -43 63 -60 l 69 18 z "},"²":{"ha":482,"x_min":36,"x_max":483,"o":"m 483 407 l 482 365 l 57 365 q 36 431 36 403 q 38 469 36 460 q 256 728 213 665 q 299 843 299 792 q 228 919 299 919 l 208 919 l 186 803 q 140 800 172 800 l 79 808 q 58 963 58 869 q 253 1040 136 1040 q 424 992 371 1040 q 478 867 478 943 q 440 730 478 792 q 242 485 401 668 l 351 486 q 367 572 354 531 l 403 574 q 469 561 425 574 q 483 407 483 479 z "},"³":{"ha":481,"x_min":35,"x_max":483,"o":"m 49 947 l 50 961 q 127 1015 74 990 q 221 1040 181 1040 q 390 992 324 1040 q 457 878 457 944 q 381 738 457 790 q 483 588 483 699 q 436 462 483 517 q 327 382 389 407 q 195 357 265 357 q 35 390 125 357 q 60 500 38 457 q 176 481 151 481 q 216 483 201 481 q 256 492 231 485 q 299 520 282 500 q 315 574 315 540 q 288 626 315 607 q 215 646 261 646 l 199 646 l 143 640 q 129 692 129 668 q 133 753 129 715 l 200 761 q 265 788 238 765 q 292 844 292 811 q 213 921 292 921 l 200 919 l 176 800 l 139 799 l 69 808 q 49 947 49 874 z "},"´":{"ha":389,"x_min":89,"x_max":396,"o":"m 89 856 l 308 1038 q 396 917 390 972 q 305 844 360 882 q 175 768 250 807 q 89 856 131 801 z "},"µ":{"ha":833,"x_min":21,"x_max":819,"o":"m 322 586 l 321 303 q 340 173 321 214 q 420 132 358 132 q 547 175 482 132 q 539 569 547 303 q 424 589 458 578 l 433 689 q 549 703 456 694 q 689 711 642 711 q 747 710 736 711 q 724 588 747 642 q 710 136 718 442 q 819 115 772 131 l 817 18 q 644 -8 736 -8 q 588 -6 621 -8 q 560 61 571 28 q 400 -17 444 -17 q 313 -7 356 -17 l 308 -267 q 249 -319 282 -307 l 44 -319 l 36 -244 q 149 -200 93 -217 q 136 569 136 565 q 21 589 74 575 q 31 689 21 640 q 147 703 60 696 q 283 711 233 711 q 344 710 332 711 q 322 586 344 650 z "},"¶":{"ha":913,"x_min":90,"x_max":917,"o":"m 90 679 q 185 915 90 840 q 435 989 279 989 q 567 985 521 989 q 547 867 560 910 l 538 -146 l 263 -146 l 256 -61 q 374 -26 317 -39 q 367 371 372 108 q 158 465 225 381 q 90 679 90 550 m 597 985 q 722 989 632 989 q 910 963 813 989 q 917 861 917 910 q 803 840 865 846 q 799 567 801 744 q 790 -26 793 178 l 908 -61 l 901 -146 l 626 -146 l 617 867 q 597 985 606 907 z "},"·":{"ha":289,"x_min":71,"x_max":274,"o":"m 261 488 q 274 402 274 438 q 269 322 274 367 q 178 310 221 310 q 85 314 136 310 q 71 395 71 369 q 76 479 71 421 q 165 492 122 492 q 261 488 207 492 z "},"¸":{"ha":458,"x_min":238,"x_max":464,"o":"m 318 -140 q 238 -100 318 -132 q 288 67 238 -47 q 326 71 311 71 q 379 58 342 71 q 365 -36 375 -10 q 464 -131 464 -89 q 415 -223 464 -172 q 304 -296 367 -274 l 268 -253 q 285 -219 271 -246 q 318 -140 318 -158 z "},"¹":{"ha":476,"x_min":28,"x_max":407,"o":"m 336 979 l 329 497 l 407 483 q 382 365 407 422 l 61 365 l 38 444 q 115 472 75 460 q 169 490 154 485 q 164 872 167 743 q 54 850 92 850 q 28 965 28 903 l 257 1039 q 303 1015 274 1036 q 336 979 332 994 z "},"º":{"ha":599,"x_min":68,"x_max":554,"o":"m 215 725 q 215 682 215 725 q 235 594 215 639 q 312 550 256 550 q 388 593 368 550 q 407 716 407 636 q 388 841 407 796 q 314 886 368 886 q 246 874 276 886 q 215 725 215 811 m 68 714 q 128 917 68 844 q 315 989 189 989 q 498 923 442 989 q 554 727 554 857 q 494 523 554 597 q 314 449 435 449 q 68 714 68 449 z "},"»":{"ha":665,"x_min":97,"x_max":624,"o":"m 622 388 q 624 365 624 381 q 619 340 624 349 l 557 249 q 443 117 524 200 q 388 136 417 119 q 331 185 360 153 q 453 364 399 296 q 329 543 442 375 q 440 613 389 600 q 557 479 517 536 l 622 388 m 390 388 q 392 365 392 381 q 388 340 392 349 l 325 249 q 211 117 292 200 q 156 136 185 119 q 99 185 128 153 q 221 364 167 296 q 97 543 210 375 q 208 613 157 600 q 325 479 285 536 l 390 388 z "},"¼":{"ha":1190,"x_min":28,"x_max":1143,"o":"m 1036 -4 l 976 -8 q 903 1 940 -8 l 894 149 l 628 149 q 610 247 610 192 l 863 661 l 1054 661 q 1046 271 1054 658 l 1143 269 q 1125 149 1143 189 l 1043 149 l 1036 -4 m 892 272 l 890 443 l 785 271 q 892 272 849 271 m 336 979 l 329 497 l 407 483 q 382 365 407 422 l 61 365 l 38 444 q 115 472 75 460 q 169 490 154 485 q 164 872 167 743 q 54 850 92 850 q 28 965 28 903 l 257 1039 q 303 1015 274 1036 q 336 979 332 994 m 1006 940 l 304 -26 q 206 42 251 -1 l 871 1028 q 1006 940 954 993 z "},"½":{"ha":1176,"x_min":28,"x_max":1243,"o":"m 336 979 l 329 497 l 407 483 q 382 365 407 422 l 61 365 l 38 444 q 115 472 75 460 q 169 490 154 485 q 164 872 167 743 q 54 850 92 850 q 28 965 28 903 l 257 1039 q 303 1015 274 1036 q 336 979 332 994 m 1243 42 l 1242 0 l 817 0 q 796 67 796 39 q 797 104 796 94 q 1015 363 972 300 q 1058 478 1058 426 q 988 554 1058 554 l 968 554 l 946 438 q 900 435 932 435 l 839 443 q 818 597 818 504 q 1013 675 896 675 q 1184 626 1131 675 q 1238 502 1238 578 q 1199 365 1238 426 q 1001 119 1161 303 l 1111 121 q 1126 207 1114 165 l 1163 208 q 1229 196 1194 208 q 1243 42 1243 114 m 1006 940 l 304 -26 q 206 42 251 -1 l 871 1028 q 1006 940 954 993 z "},"¾":{"ha":1163,"x_min":35,"x_max":1143,"o":"m 1036 -4 l 976 -8 q 903 1 940 -8 l 894 149 l 628 149 q 610 247 610 192 l 863 661 l 1054 661 q 1046 271 1054 658 l 1143 269 q 1125 149 1143 189 l 1043 149 l 1036 -4 m 892 272 l 890 443 l 785 271 q 892 272 849 271 m 49 947 l 50 961 q 127 1015 74 990 q 221 1040 181 1040 q 390 992 324 1040 q 457 878 457 944 q 381 738 457 790 q 483 588 483 699 q 436 462 483 517 q 327 382 389 407 q 195 357 265 357 q 35 390 125 357 q 60 500 38 457 q 176 481 151 481 q 216 483 201 481 q 256 492 231 485 q 299 520 282 500 q 315 574 315 540 q 288 626 315 607 q 215 646 261 646 l 199 646 l 143 640 q 129 692 129 668 q 133 753 129 715 l 200 761 q 265 788 238 765 q 292 844 292 811 q 213 921 292 921 l 200 919 l 176 800 l 139 799 l 69 808 q 49 947 49 874 m 1006 940 l 304 -26 q 206 42 251 -1 l 871 1028 q 1006 940 954 993 z "},"¿":{"ha":676,"x_min":83,"x_max":604,"o":"m 303 44 q 295 30 303 44 q 272 -25 288 17 q 257 -110 257 -67 q 285 -184 257 -154 q 361 -214 313 -214 q 414 -206 386 -214 l 446 -60 l 574 -65 q 604 -242 599 -136 q 339 -336 482 -336 q 83 -90 83 -336 q 102 3 83 -46 q 140 81 121 51 q 197 164 160 111 q 293 344 278 278 q 297 456 297 364 q 408 465 347 465 q 447 332 433 407 q 347 114 433 244 q 303 44 319 71 m 258 697 q 347 708 303 708 q 429 703 392 708 q 440 606 440 656 q 436 531 440 556 q 346 522 392 522 q 265 526 300 522 q 254 617 254 571 q 258 697 254 664 z "},"À":{"ha":1026,"x_min":7,"x_max":1011,"o":"m 721 957 l 722 943 q 704 846 722 886 q 647 824 686 832 l 879 138 l 1011 121 q 979 0 1011 64 l 642 0 l 629 76 q 706 106 688 99 l 650 263 l 338 263 q 293 133 296 139 l 389 121 q 378 53 389 92 q 357 0 367 15 l 19 0 l 7 76 q 119 115 69 103 l 353 829 q 213 865 260 843 q 225 936 213 906 q 362 959 254 946 q 567 972 469 972 q 721 957 665 972 m 542 575 l 501 758 l 488 758 l 443 567 l 378 393 l 610 393 l 542 575 m 389 1304 l 608 1122 q 522 1035 569 1072 q 301 1183 382 1104 q 326 1238 304 1208 q 389 1304 347 1268 z "},"Á":{"ha":1026,"x_min":7,"x_max":1011,"o":"m 721 957 l 722 943 q 704 846 722 886 q 647 824 686 832 l 879 138 l 1011 121 q 979 0 1011 64 l 642 0 l 629 76 q 706 106 688 99 l 650 263 l 338 263 q 293 133 296 139 l 389 121 q 378 53 389 92 q 357 0 367 15 l 19 0 l 7 76 q 119 115 69 103 l 353 829 q 213 865 260 843 q 225 936 213 906 q 362 959 254 946 q 567 972 469 972 q 721 957 665 972 m 542 575 l 501 758 l 488 758 l 443 567 l 378 393 l 610 393 l 542 575 m 404 1122 l 624 1304 q 711 1183 706 1239 q 620 1111 675 1149 q 490 1035 565 1074 q 404 1122 446 1068 z "},"Â":{"ha":1026,"x_min":7,"x_max":1011,"o":"m 721 957 l 722 943 q 704 846 722 886 q 647 824 686 832 l 879 138 l 1011 121 q 979 0 1011 64 l 642 0 l 629 76 q 706 106 688 99 l 650 263 l 338 263 q 293 133 296 139 l 389 121 q 378 53 389 92 q 357 0 367 15 l 19 0 l 7 76 q 119 115 69 103 l 353 829 q 213 865 260 843 q 225 936 213 906 q 362 959 254 946 q 567 972 469 972 q 721 957 665 972 m 542 575 l 501 758 l 488 758 l 443 567 l 378 393 l 610 393 l 542 575 m 657 1038 q 511 1122 556 1089 q 365 1038 486 1103 q 292 1121 313 1088 l 511 1303 l 732 1121 q 657 1038 713 1090 z "},"Ã":{"ha":1026,"x_min":7,"x_max":1011,"o":"m 721 957 l 722 943 q 704 846 722 886 q 647 824 686 832 l 879 138 l 1011 121 q 979 0 1011 64 l 642 0 l 629 76 q 706 106 688 99 l 650 263 l 338 263 q 293 133 296 139 l 389 121 q 378 53 389 92 q 357 0 367 15 l 19 0 l 7 76 q 119 115 69 103 l 353 829 q 213 865 260 843 q 225 936 213 906 q 362 959 254 946 q 567 972 469 972 q 721 957 665 972 m 542 575 l 501 758 l 488 758 l 443 567 l 378 393 l 610 393 l 542 575 m 283 1051 q 239 1125 257 1086 q 365 1236 264 1160 q 417 1256 392 1256 q 504 1228 442 1256 q 590 1194 567 1200 q 714 1254 713 1253 q 760 1181 747 1207 q 631 1065 721 1124 q 582 1046 603 1046 q 496 1078 550 1056 q 414 1108 442 1101 q 349 1078 393 1096 q 283 1051 304 1061 z "},"Ä":{"ha":1026,"x_min":7,"x_max":1011,"o":"m 721 957 l 722 943 q 704 846 722 886 q 647 824 686 832 l 879 138 l 1011 121 q 979 0 1011 64 l 642 0 l 629 76 q 706 106 688 99 l 650 263 l 338 263 q 293 133 296 139 l 389 121 q 378 53 389 92 q 357 0 367 15 l 19 0 l 7 76 q 119 115 69 103 l 353 829 q 213 865 260 843 q 225 936 213 906 q 362 959 254 946 q 567 972 469 972 q 721 957 665 972 m 542 575 l 501 758 l 488 758 l 443 567 l 378 393 l 610 393 l 542 575 m 468 1215 q 479 1140 479 1168 q 475 1074 479 1111 q 398 1063 433 1063 q 317 1067 363 1063 q 306 1142 306 1114 q 310 1208 306 1171 q 387 1219 351 1219 q 468 1215 422 1219 m 694 1215 q 706 1140 706 1168 q 701 1074 706 1111 q 624 1063 660 1063 q 543 1067 589 1063 q 532 1142 532 1114 q 536 1208 532 1171 q 613 1219 578 1219 q 694 1215 649 1219 z "},"Å":{"ha":1026,"x_min":7,"x_max":1011,"o":"m 721 957 l 722 943 q 704 846 722 886 q 647 824 686 832 l 879 138 l 1011 121 q 979 0 1011 64 l 642 0 l 629 76 q 706 106 688 99 l 650 263 l 338 263 q 293 133 296 139 l 389 121 q 378 53 389 92 q 357 0 367 15 l 19 0 l 7 76 q 119 115 69 103 l 353 829 q 213 865 260 843 q 225 936 213 906 q 362 959 254 946 q 567 972 469 972 q 721 957 665 972 m 542 575 l 501 758 l 488 758 l 443 567 l 378 393 l 610 393 l 542 575 m 501 1265 q 488 1265 501 1265 q 460 1248 475 1265 q 444 1201 444 1231 q 460 1154 444 1171 q 501 1138 475 1138 q 542 1154 526 1138 q 557 1201 557 1171 q 542 1248 557 1231 q 501 1265 526 1265 m 501 1364 q 538 1364 501 1364 q 628 1319 575 1364 q 682 1199 682 1275 q 629 1083 682 1124 q 501 1042 576 1042 q 372 1083 426 1042 q 318 1200 318 1125 q 373 1319 318 1275 q 501 1364 428 1364 z "},"Æ":{"ha":1332,"x_min":7,"x_max":1228,"o":"m 638 117 q 635 263 638 207 l 379 263 l 308 132 l 401 119 q 369 0 401 64 l 18 0 l 7 78 q 128 117 63 104 l 511 853 l 411 883 l 422 972 l 1203 972 q 1208 897 1208 933 q 1188 719 1208 829 q 1106 710 1144 710 l 1057 711 l 1025 835 l 818 835 q 813 561 815 742 l 954 561 l 968 657 q 1106 622 1039 657 l 1106 339 l 1014 339 q 974 428 981 390 l 811 428 l 807 133 l 1044 133 l 1076 256 l 1125 257 l 1207 247 q 1228 98 1228 157 q 1222 0 1228 39 l 533 0 l 538 78 q 638 117 583 107 m 632 393 q 629 576 632 457 q 626 732 626 694 l 538 560 l 446 393 l 632 393 z "},"Ç":{"ha":821,"x_min":28,"x_max":774,"o":"m 663 658 l 619 660 l 579 826 q 458 840 499 840 q 281 808 379 840 q 235 669 251 754 q 218 510 218 585 q 439 126 218 126 q 589 154 533 126 l 618 324 q 751 314 706 324 q 774 68 774 163 q 656 17 744 46 q 475 -17 567 -11 l 471 -36 q 569 -131 569 -89 q 521 -223 569 -172 q 410 -296 472 -274 l 374 -253 q 390 -219 376 -246 q 424 -140 424 -158 q 343 -100 424 -132 q 361 -12 343 -67 q 28 493 28 33 q 128 863 28 736 q 450 989 229 989 q 644 957 560 989 q 772 896 719 929 q 751 668 772 801 q 663 658 713 658 z "},"È":{"ha":826,"x_min":42,"x_max":758,"o":"m 346 833 q 343 561 346 675 l 485 561 l 499 657 q 636 622 569 657 l 636 344 l 544 340 q 506 428 511 390 l 342 428 q 339 135 339 233 l 576 135 l 607 256 q 738 247 693 256 q 758 103 758 168 q 754 0 758 39 l 65 0 l 53 76 q 169 117 143 111 q 167 347 168 199 q 157 851 161 681 l 42 888 l 53 972 l 735 972 q 739 878 739 935 q 718 722 739 822 q 588 708 675 708 l 556 833 l 346 833 m 303 1304 l 522 1122 q 436 1035 483 1072 q 215 1183 296 1104 q 240 1238 218 1208 q 303 1304 261 1268 z "},"É":{"ha":826,"x_min":42,"x_max":758,"o":"m 346 833 q 343 561 346 675 l 485 561 l 499 657 q 636 622 569 657 l 636 344 l 544 340 q 506 428 511 390 l 342 428 q 339 135 339 233 l 576 135 l 607 256 q 738 247 693 256 q 758 103 758 168 q 754 0 758 39 l 65 0 l 53 76 q 169 117 143 111 q 167 347 168 199 q 157 851 161 681 l 42 888 l 53 972 l 735 972 q 739 878 739 935 q 718 722 739 822 q 588 708 675 708 l 556 833 l 346 833 m 282 1122 l 501 1304 q 589 1183 583 1239 q 498 1111 553 1149 q 368 1035 443 1074 q 282 1122 324 1068 z "},"Ê":{"ha":826,"x_min":42,"x_max":758,"o":"m 346 833 q 343 561 346 675 l 485 561 l 499 657 q 636 622 569 657 l 636 344 l 544 340 q 506 428 511 390 l 342 428 q 339 135 339 233 l 576 135 l 607 256 q 738 247 693 256 q 758 103 758 168 q 754 0 758 39 l 65 0 l 53 76 q 169 117 143 111 q 167 347 168 199 q 157 851 161 681 l 42 888 l 53 972 l 735 972 q 739 878 739 935 q 718 722 739 822 q 588 708 675 708 l 556 833 l 346 833 m 583 1038 q 438 1122 482 1089 q 292 1038 413 1103 q 218 1121 239 1088 l 438 1303 l 658 1121 q 583 1038 639 1090 z "},"Ë":{"ha":826,"x_min":42,"x_max":758,"o":"m 346 833 q 343 561 346 675 l 485 561 l 499 657 q 636 622 569 657 l 636 344 l 544 340 q 506 428 511 390 l 342 428 q 339 135 339 233 l 576 135 l 607 256 q 738 247 693 256 q 758 103 758 168 q 754 0 758 39 l 65 0 l 53 76 q 169 117 143 111 q 167 347 168 199 q 157 851 161 681 l 42 888 l 53 972 l 735 972 q 739 878 739 935 q 718 722 739 822 q 588 708 675 708 l 556 833 l 346 833 m 418 1215 q 429 1140 429 1168 q 425 1074 429 1111 q 348 1063 383 1063 q 267 1067 313 1063 q 256 1142 256 1114 q 260 1208 256 1171 q 337 1219 301 1219 q 418 1215 372 1219 m 644 1215 q 656 1140 656 1168 q 651 1074 656 1111 q 574 1063 610 1063 q 493 1067 539 1063 q 482 1142 482 1114 q 486 1208 482 1171 q 563 1219 528 1219 q 644 1215 599 1219 z "},"Ì":{"ha":528,"x_min":69,"x_max":474,"o":"m 449 972 q 449 969 447 972 q 455 958 451 967 q 463 936 458 949 q 474 863 471 914 q 381 849 403 851 l 374 133 l 469 121 q 438 0 469 64 l 100 0 l 88 76 q 204 117 165 108 q 200 347 203 199 q 192 851 196 681 l 76 888 l 88 972 l 449 972 m 157 1304 l 376 1122 q 290 1035 338 1072 q 69 1183 150 1104 q 94 1238 72 1208 q 157 1304 115 1268 z "},"Í":{"ha":528,"x_min":76,"x_max":524,"o":"m 449 972 q 449 969 447 972 q 455 958 451 967 q 463 936 458 949 q 474 863 471 914 q 381 849 403 851 l 374 133 l 469 121 q 438 0 469 64 l 100 0 l 88 76 q 204 117 165 108 q 200 347 203 199 q 192 851 196 681 l 76 888 l 88 972 l 449 972 m 217 1122 l 436 1304 q 524 1183 518 1239 q 433 1111 488 1149 q 303 1035 378 1074 q 217 1122 258 1068 z "},"Î":{"ha":528,"x_min":68,"x_max":508,"o":"m 449 972 q 449 969 447 972 q 455 958 451 967 q 463 936 458 949 q 474 863 471 914 q 381 849 403 851 l 374 133 l 469 121 q 438 0 469 64 l 100 0 l 88 76 q 204 117 165 108 q 200 347 203 199 q 192 851 196 681 l 76 888 l 88 972 l 449 972 m 433 1038 q 288 1122 332 1089 q 142 1038 263 1103 q 68 1121 89 1088 l 288 1303 l 508 1121 q 433 1038 489 1090 z "},"Ï":{"ha":528,"x_min":76,"x_max":519,"o":"m 449 972 q 449 969 447 972 q 455 958 451 967 q 463 936 458 949 q 474 863 471 914 q 381 849 403 851 l 374 133 l 469 121 q 438 0 469 64 l 100 0 l 88 76 q 204 117 165 108 q 200 347 203 199 q 192 851 196 681 l 76 888 l 88 972 l 449 972 m 282 1215 q 293 1140 293 1168 q 289 1074 293 1111 q 212 1063 247 1063 q 131 1067 176 1063 q 119 1142 119 1114 q 124 1208 119 1171 q 201 1219 165 1219 q 282 1215 236 1219 m 508 1215 q 519 1140 519 1168 q 515 1074 519 1111 q 438 1063 474 1063 q 357 1067 403 1063 q 346 1142 346 1114 q 350 1208 346 1171 q 427 1219 392 1219 q 508 1215 463 1219 z "},"Ð":{"ha":925,"x_min":42,"x_max":882,"o":"m 882 507 q 736 82 882 201 q 607 17 676 35 q 425 0 538 0 l 65 0 l 53 76 q 169 117 158 115 q 164 429 167 325 l 54 433 q 47 492 50 456 q 42 540 43 528 q 163 560 107 558 q 157 851 160 657 q 42 888 96 867 q 53 972 50 960 l 421 972 q 638 944 557 972 q 782 846 719 917 q 882 507 882 729 m 340 425 l 339 135 l 438 135 q 648 211 596 135 q 700 475 700 288 q 642 748 700 663 q 447 833 583 833 l 346 833 l 342 560 l 506 554 q 515 499 515 529 q 508 435 515 469 q 353 425 414 425 l 340 425 z "},"Ñ":{"ha":1090,"x_min":42,"x_max":1079,"o":"m 986 849 l 982 0 l 804 0 l 346 747 q 339 133 340 340 l 435 121 q 403 0 435 64 l 65 0 l 53 76 q 169 117 131 108 q 157 851 169 121 l 42 888 l 53 972 l 414 972 l 818 247 l 797 851 l 682 888 l 693 972 l 1054 972 q 1055 969 1053 972 q 1060 958 1057 967 q 1068 936 1064 949 q 1079 863 1076 914 q 986 849 1008 851 m 349 1051 q 304 1125 322 1086 q 431 1236 329 1160 q 482 1256 457 1256 q 569 1228 507 1256 q 656 1194 632 1200 q 779 1254 778 1253 q 825 1181 813 1207 q 696 1065 786 1124 q 647 1046 668 1046 q 561 1078 615 1056 q 479 1108 507 1101 q 414 1078 458 1096 q 349 1051 369 1061 z "},"Ò":{"ha":899,"x_min":28,"x_max":879,"o":"m 458 131 q 689 485 689 131 q 458 839 689 839 q 283 808 358 839 q 219 499 219 675 q 272 227 219 324 q 458 131 325 131 m 458 989 q 785 867 690 989 q 879 496 879 746 q 839 228 879 339 q 703 50 799 117 q 458 -17 607 -17 q 130 110 232 -17 q 28 478 28 236 q 458 989 28 989 m 354 1304 l 574 1122 q 488 1035 535 1072 q 267 1183 347 1104 q 291 1238 269 1208 q 354 1304 313 1268 z "},"Ó":{"ha":899,"x_min":28,"x_max":879,"o":"m 458 131 q 689 485 689 131 q 458 839 689 839 q 283 808 358 839 q 219 499 219 675 q 272 227 219 324 q 458 131 325 131 m 458 989 q 785 867 690 989 q 879 496 879 746 q 839 228 879 339 q 703 50 799 117 q 458 -17 607 -17 q 130 110 232 -17 q 28 478 28 236 q 458 989 28 989 m 364 1122 l 583 1304 q 671 1183 665 1239 q 580 1111 635 1149 q 450 1035 525 1074 q 364 1122 406 1068 z "},"Ô":{"ha":899,"x_min":28,"x_max":879,"o":"m 458 131 q 689 485 689 131 q 458 839 689 839 q 283 808 358 839 q 219 499 219 675 q 272 227 219 324 q 458 131 325 131 m 458 989 q 785 867 690 989 q 879 496 879 746 q 839 228 879 339 q 703 50 799 117 q 458 -17 607 -17 q 130 110 232 -17 q 28 478 28 236 q 458 989 28 989 m 597 1038 q 451 1122 496 1089 q 306 1038 426 1103 q 232 1121 253 1088 l 451 1303 l 672 1121 q 597 1038 653 1090 z "},"Õ":{"ha":899,"x_min":28,"x_max":879,"o":"m 458 131 q 689 485 689 131 q 458 839 689 839 q 283 808 358 839 q 219 499 219 675 q 272 227 219 324 q 458 131 325 131 m 458 989 q 785 867 690 989 q 879 496 879 746 q 839 228 879 339 q 703 50 799 117 q 458 -17 607 -17 q 130 110 232 -17 q 28 478 28 236 q 458 989 28 989 m 264 1051 q 219 1125 238 1086 q 346 1236 244 1160 q 397 1256 372 1256 q 485 1228 422 1256 q 571 1194 547 1200 q 694 1254 693 1253 q 740 1181 728 1207 q 611 1065 701 1124 q 563 1046 583 1046 q 476 1078 531 1056 q 394 1108 422 1101 q 329 1078 374 1096 q 264 1051 285 1061 z "},"Ö":{"ha":899,"x_min":28,"x_max":879,"o":"m 458 131 q 689 485 689 131 q 458 839 689 839 q 283 808 358 839 q 219 499 219 675 q 272 227 219 324 q 458 131 325 131 m 458 989 q 785 867 690 989 q 879 496 879 746 q 839 228 879 339 q 703 50 799 117 q 458 -17 607 -17 q 130 110 232 -17 q 28 478 28 236 q 458 989 28 989 m 417 1215 q 428 1140 428 1168 q 424 1074 428 1111 q 347 1063 382 1063 q 265 1067 311 1063 q 254 1142 254 1114 q 258 1208 254 1171 q 335 1219 300 1219 q 417 1215 371 1219 m 643 1215 q 654 1140 654 1168 q 650 1074 654 1111 q 573 1063 608 1063 q 492 1067 538 1063 q 481 1142 481 1114 q 485 1208 481 1171 q 562 1219 526 1219 q 643 1215 597 1219 z "},"×":{"ha":731,"x_min":83,"x_max":682,"o":"m 578 660 q 678 571 636 624 q 565 431 624 489 l 492 358 l 682 154 q 590 63 651 110 q 381 249 482 140 l 183 57 q 89 149 131 93 q 201 289 142 231 q 215 302 207 293 q 240 327 224 311 q 274 360 257 343 l 83 564 q 175 656 108 606 q 385 469 289 571 l 578 660 z "},"Ø":{"ha":899,"x_min":28,"x_max":879,"o":"m 458 989 q 565 981 517 989 l 611 1110 q 726 1068 654 1106 l 682 947 q 833 785 788 897 q 879 506 879 674 q 839 228 879 339 q 703 50 799 117 q 458 -17 607 -17 q 331 -4 389 -17 l 282 -137 q 226 -126 243 -133 q 183 -100 208 -119 l 229 31 q 28 478 28 135 q 458 989 28 989 m 458 125 q 694 481 694 125 q 618 775 694 683 l 382 135 q 458 125 413 125 m 278 808 q 214 480 214 675 q 288 196 214 285 l 515 838 q 458 844 485 844 q 278 808 354 844 z "},"Ù":{"ha":1047,"x_min":33,"x_max":1074,"o":"m 797 504 l 792 851 l 676 888 l 688 972 l 1049 972 q 1049 969 1047 972 q 1055 958 1051 967 q 1063 936 1058 949 q 1074 863 1071 914 q 981 849 1003 851 l 978 496 q 881 107 975 231 q 561 -17 788 -17 q 246 99 335 -17 q 154 472 157 214 q 149 851 151 729 l 33 888 l 44 972 l 406 972 q 406 969 404 972 q 412 958 408 967 q 419 936 415 949 q 431 863 428 914 q 338 849 360 851 l 333 496 q 350 277 333 342 q 392 186 367 213 q 564 131 446 131 q 736 194 678 131 q 793 375 783 246 q 797 504 797 426 m 604 1304 l 824 1122 q 738 1035 785 1072 q 517 1183 597 1104 q 541 1238 519 1208 q 604 1304 563 1268 z "},"Ú":{"ha":1047,"x_min":33,"x_max":1074,"o":"m 797 504 l 792 851 l 676 888 l 688 972 l 1049 972 q 1049 969 1047 972 q 1055 958 1051 967 q 1063 936 1058 949 q 1074 863 1071 914 q 981 849 1003 851 l 978 496 q 881 107 975 231 q 561 -17 788 -17 q 246 99 335 -17 q 154 472 157 214 q 149 851 151 729 l 33 888 l 44 972 l 406 972 q 406 969 404 972 q 412 958 408 967 q 419 936 415 949 q 431 863 428 914 q 338 849 360 851 l 333 496 q 350 277 333 342 q 392 186 367 213 q 564 131 446 131 q 736 194 678 131 q 793 375 783 246 q 797 504 797 426 m 458 1122 l 678 1304 q 765 1183 760 1239 q 674 1111 729 1149 q 544 1035 619 1074 q 458 1122 500 1068 z "},"Û":{"ha":1047,"x_min":33,"x_max":1074,"o":"m 797 504 l 792 851 l 676 888 l 688 972 l 1049 972 q 1049 969 1047 972 q 1055 958 1051 967 q 1063 936 1058 949 q 1074 863 1071 914 q 981 849 1003 851 l 978 496 q 881 107 975 231 q 561 -17 788 -17 q 246 99 335 -17 q 154 472 157 214 q 149 851 151 729 l 33 888 l 44 972 l 406 972 q 406 969 404 972 q 412 958 408 967 q 419 936 415 949 q 431 863 428 914 q 338 849 360 851 l 333 496 q 350 277 333 342 q 392 186 367 213 q 564 131 446 131 q 736 194 678 131 q 793 375 783 246 q 797 504 797 426 m 686 1038 q 540 1122 585 1089 q 394 1038 515 1103 q 321 1121 342 1088 l 540 1303 l 761 1121 q 686 1038 742 1090 z "},"Ü":{"ha":1047,"x_min":33,"x_max":1074,"o":"m 797 504 l 792 851 l 676 888 l 688 972 l 1049 972 q 1049 969 1047 972 q 1055 958 1051 967 q 1063 936 1058 949 q 1074 863 1071 914 q 981 849 1003 851 l 978 496 q 881 107 975 231 q 561 -17 788 -17 q 246 99 335 -17 q 154 472 157 214 q 149 851 151 729 l 33 888 l 44 972 l 406 972 q 406 969 404 972 q 412 958 408 967 q 419 936 415 949 q 431 863 428 914 q 338 849 360 851 l 333 496 q 350 277 333 342 q 392 186 367 213 q 564 131 446 131 q 736 194 678 131 q 793 375 783 246 q 797 504 797 426 m 510 1215 q 521 1140 521 1168 q 517 1074 521 1111 q 440 1063 475 1063 q 358 1067 404 1063 q 347 1142 347 1114 q 351 1208 347 1171 q 428 1219 393 1219 q 510 1215 464 1219 m 736 1215 q 747 1140 747 1168 q 743 1074 747 1111 q 666 1063 701 1063 q 585 1067 631 1063 q 574 1142 574 1114 q 578 1208 574 1171 q 655 1219 619 1219 q 736 1215 690 1219 z "},"Ý":{"ha":942,"x_min":8,"x_max":925,"o":"m 567 364 l 565 133 l 661 121 q 629 0 661 64 l 292 0 l 279 76 q 396 117 375 114 q 393 363 396 199 l 131 850 l 8 888 l 19 972 l 381 972 q 406 863 406 926 q 324 850 374 857 l 472 515 l 485 515 l 643 851 q 528 888 596 861 l 538 972 l 900 972 q 925 863 924 938 q 817 847 871 851 l 567 364 m 390 1122 l 610 1304 q 697 1183 692 1239 q 606 1111 661 1149 q 476 1035 551 1074 q 390 1122 432 1068 z "},"Þ":{"ha":804,"x_min":28,"x_max":768,"o":"m 324 240 l 321 133 l 429 121 q 397 0 429 67 l 51 0 l 39 76 q 164 118 117 106 l 138 833 q 28 854 74 840 q 39 954 28 899 q 308 976 128 976 q 351 975 340 976 q 333 849 351 906 l 329 744 q 461 789 429 789 q 690 722 613 789 q 768 485 768 656 q 691 274 768 357 q 456 192 614 192 q 324 240 408 192 m 326 389 q 384 349 346 369 q 448 328 422 328 q 492 331 474 328 q 536 347 511 335 q 590 478 590 374 q 553 619 590 588 q 482 644 525 644 q 333 608 406 644 q 326 389 326 425 z "},"ß":{"ha":906,"x_min":35,"x_max":907,"o":"m 479 1040 q 699 976 600 1040 q 797 826 797 913 q 777 742 797 781 q 736 684 757 703 q 688 645 715 665 q 650 617 660 625 q 630 590 640 608 q 619 551 619 572 q 636 510 619 531 q 669 480 653 490 q 727 448 686 469 q 790 413 768 426 q 844 372 811 400 q 907 229 907 319 q 617 -17 907 -17 q 453 14 533 -17 q 478 214 453 133 l 600 224 l 617 97 q 690 128 657 97 q 724 203 724 158 q 698 270 724 249 q 628 314 672 292 q 568 345 585 336 q 521 376 551 354 q 476 417 490 397 q 439 525 439 472 q 456 613 439 578 q 492 667 472 647 q 539 706 511 686 q 578 738 567 726 q 613 813 613 769 q 565 875 613 856 q 471 894 518 894 q 328 686 332 894 q 319 135 319 138 l 429 126 q 397 0 429 64 l 46 0 l 35 76 q 157 117 100 107 q 149 581 157 119 l 50 581 l 47 660 q 150 697 86 681 q 244 945 161 850 q 479 1040 328 1040 z "},"à":{"ha":749,"x_min":57,"x_max":776,"o":"m 304 -17 q 122 32 186 -17 q 57 196 57 81 q 133 375 57 306 q 257 422 178 415 q 475 429 336 429 l 475 451 q 448 576 475 536 q 353 615 421 615 q 290 601 318 615 l 257 481 l 154 483 q 117 651 119 536 q 247 694 144 665 q 379 722 350 722 q 597 660 529 722 q 665 465 665 599 q 653 111 665 331 q 775 88 732 104 q 776 47 776 71 l 775 17 q 574 -17 675 -17 q 535 -15 547 -17 q 510 85 514 26 l 503 85 q 410 22 476 60 q 304 -17 344 -17 m 235 188 q 263 120 235 142 q 328 99 292 99 q 414 131 364 99 q 494 190 464 164 l 488 318 q 322 297 378 313 q 235 188 235 279 m 296 1038 l 515 856 q 429 768 476 806 q 208 917 289 838 q 233 972 211 942 q 296 1038 254 1001 z "},"á":{"ha":749,"x_min":57,"x_max":776,"o":"m 304 -17 q 122 32 186 -17 q 57 196 57 81 q 133 375 57 306 q 257 422 178 415 q 475 429 336 429 l 475 451 q 448 576 475 536 q 353 615 421 615 q 290 601 318 615 l 257 481 l 154 483 q 117 651 119 536 q 247 694 144 665 q 379 722 350 722 q 597 660 529 722 q 665 465 665 599 q 653 111 665 331 q 775 88 732 104 q 776 47 776 71 l 775 17 q 574 -17 675 -17 q 535 -15 547 -17 q 510 85 514 26 l 503 85 q 410 22 476 60 q 304 -17 344 -17 m 235 188 q 263 120 235 142 q 328 99 292 99 q 414 131 364 99 q 494 190 464 164 l 488 318 q 322 297 378 313 q 235 188 235 279 m 285 856 l 504 1038 q 592 917 586 972 q 501 844 556 882 q 371 768 446 807 q 285 856 326 801 z "},"â":{"ha":749,"x_min":57,"x_max":776,"o":"m 304 -17 q 122 32 186 -17 q 57 196 57 81 q 133 375 57 306 q 257 422 178 415 q 475 429 336 429 l 475 451 q 448 576 475 536 q 353 615 421 615 q 290 601 318 615 l 257 481 l 154 483 q 117 651 119 536 q 247 694 144 665 q 379 722 350 722 q 597 660 529 722 q 665 465 665 599 q 653 111 665 331 q 775 88 732 104 q 776 47 776 71 l 775 17 q 574 -17 675 -17 q 535 -15 547 -17 q 510 85 514 26 l 503 85 q 410 22 476 60 q 304 -17 344 -17 m 235 188 q 263 120 235 142 q 328 99 292 99 q 414 131 364 99 q 494 190 464 164 l 488 318 q 322 297 378 313 q 235 188 235 279 m 544 771 q 399 856 443 822 q 253 771 374 836 q 179 854 200 821 l 399 1036 l 619 854 q 544 771 600 824 z "},"ã":{"ha":749,"x_min":57,"x_max":776,"o":"m 304 -17 q 122 32 186 -17 q 57 196 57 81 q 133 375 57 306 q 257 422 178 415 q 475 429 336 429 l 475 451 q 448 576 475 536 q 353 615 421 615 q 290 601 318 615 l 257 481 l 154 483 q 117 651 119 536 q 247 694 144 665 q 379 722 350 722 q 597 660 529 722 q 665 465 665 599 q 653 111 665 331 q 775 88 732 104 q 776 47 776 71 l 775 17 q 574 -17 675 -17 q 535 -15 547 -17 q 510 85 514 26 l 503 85 q 410 22 476 60 q 304 -17 344 -17 m 235 188 q 263 120 235 142 q 328 99 292 99 q 414 131 364 99 q 494 190 464 164 l 488 318 q 322 297 378 313 q 235 188 235 279 m 189 785 q 144 858 163 819 q 271 969 169 893 q 322 989 297 989 q 410 961 347 989 q 496 928 472 933 q 619 988 618 986 q 665 914 653 940 q 536 799 626 857 q 488 779 508 779 q 401 812 456 789 q 319 842 347 835 q 254 812 299 829 q 189 785 210 794 z "},"ä":{"ha":749,"x_min":57,"x_max":776,"o":"m 304 -17 q 122 32 186 -17 q 57 196 57 81 q 133 375 57 306 q 257 422 178 415 q 475 429 336 429 l 475 451 q 448 576 475 536 q 353 615 421 615 q 290 601 318 615 l 257 481 l 154 483 q 117 651 119 536 q 247 694 144 665 q 379 722 350 722 q 597 660 529 722 q 665 465 665 599 q 653 111 665 331 q 775 88 732 104 q 776 47 776 71 l 775 17 q 574 -17 675 -17 q 535 -15 547 -17 q 510 85 514 26 l 503 85 q 410 22 476 60 q 304 -17 344 -17 m 235 188 q 263 120 235 142 q 328 99 292 99 q 414 131 364 99 q 494 190 464 164 l 488 318 q 322 297 378 313 q 235 188 235 279 m 371 949 q 382 873 382 901 q 378 807 382 844 q 301 796 336 796 q 219 800 265 796 q 208 876 208 847 q 213 942 208 904 q 290 953 254 953 q 371 949 325 953 m 597 949 q 608 873 608 901 q 604 807 608 844 q 527 796 563 796 q 446 800 492 796 q 435 876 435 847 q 439 942 435 904 q 516 953 481 953 q 597 949 551 953 z "},"å":{"ha":749,"x_min":57,"x_max":776,"o":"m 304 -17 q 122 32 186 -17 q 57 196 57 81 q 133 375 57 306 q 257 422 178 415 q 475 429 336 429 l 475 451 q 448 576 475 536 q 353 615 421 615 q 290 601 318 615 l 257 481 l 154 483 q 117 651 119 536 q 247 694 144 665 q 379 722 350 722 q 597 660 529 722 q 665 465 665 599 q 653 111 665 331 q 775 88 732 104 q 776 47 776 71 l 775 17 q 574 -17 675 -17 q 535 -15 547 -17 q 510 85 514 26 l 503 85 q 410 22 476 60 q 304 -17 344 -17 m 235 188 q 263 120 235 142 q 328 99 292 99 q 414 131 364 99 q 494 190 464 164 l 488 318 q 322 297 378 313 q 235 188 235 279 m 383 1017 q 370 1017 383 1017 q 342 999 357 1017 q 326 952 326 982 q 342 906 326 922 q 383 889 357 889 q 424 906 408 889 q 439 952 439 922 q 424 999 439 982 q 383 1017 408 1017 m 383 1115 q 420 1115 383 1115 q 510 1071 457 1115 q 564 951 564 1026 q 511 834 564 875 q 383 793 458 793 q 254 835 308 793 q 200 951 200 876 q 255 1071 200 1026 q 383 1115 310 1115 z "},"æ":{"ha":1147,"x_min":63,"x_max":1085,"o":"m 811 -17 q 543 103 633 -17 q 429 26 510 69 q 304 -17 349 -17 q 63 196 63 -17 q 136 375 63 310 q 246 421 179 413 q 481 429 313 429 l 481 458 q 451 577 481 539 q 358 615 422 615 q 296 601 326 615 l 263 482 q 160 483 181 482 q 122 651 124 538 q 250 694 151 665 q 376 722 349 722 q 582 664 529 722 q 801 733 664 733 q 1012 642 939 733 q 1085 408 1085 551 q 1083 383 1085 390 q 1053 340 1071 360 q 654 347 785 346 q 693 184 657 250 q 804 118 729 118 q 1018 185 879 118 q 1064 82 1044 151 q 811 -17 889 -17 m 240 188 q 269 120 240 142 q 333 99 297 99 q 419 131 369 99 q 500 190 469 164 l 493 318 q 328 297 383 313 q 240 188 240 279 m 799 607 q 700 586 746 607 q 660 463 668 519 q 906 468 768 467 q 799 607 899 607 z "},"ç":{"ha":660,"x_min":50,"x_max":643,"o":"m 426 607 l 404 608 q 280 555 326 608 q 233 376 233 501 q 269 185 233 250 q 406 119 304 119 q 606 183 453 119 q 643 82 640 135 q 419 -14 521 7 l 414 -36 q 513 -131 513 -89 q 464 -223 513 -172 q 353 -296 415 -274 l 317 -253 q 333 -219 319 -246 q 367 -140 367 -158 q 286 -100 367 -132 q 304 -11 286 -68 q 50 339 50 33 q 396 722 50 722 q 519 708 456 722 q 618 671 582 693 q 588 469 614 532 q 458 458 542 458 l 426 607 z "},"è":{"ha":711,"x_min":56,"x_max":674,"o":"m 413 119 q 604 185 460 119 q 650 82 635 140 q 501 9 574 35 q 397 -17 428 -17 q 142 76 229 -17 q 56 341 56 169 q 142 617 56 513 q 397 722 228 722 q 603 635 532 722 q 674 407 674 547 q 640 340 674 378 l 240 347 q 282 178 243 236 q 413 119 321 119 m 385 607 q 286 586 332 607 q 246 463 254 519 q 492 468 354 467 q 385 607 485 607 m 263 1038 l 482 856 q 396 768 443 806 q 175 917 256 838 q 199 972 178 942 q 263 1038 221 1001 z "},"é":{"ha":711,"x_min":56,"x_max":674,"o":"m 413 119 q 604 185 460 119 q 650 82 635 140 q 501 9 574 35 q 397 -17 428 -17 q 142 76 229 -17 q 56 341 56 169 q 142 617 56 513 q 397 722 228 722 q 603 635 532 722 q 674 407 674 547 q 640 340 674 378 l 240 347 q 282 178 243 236 q 413 119 321 119 m 385 607 q 286 586 332 607 q 246 463 254 519 q 492 468 354 467 q 385 607 485 607 m 256 856 l 475 1038 q 563 917 557 972 q 472 844 526 882 q 342 768 417 807 q 256 856 297 801 z "},"ê":{"ha":711,"x_min":56,"x_max":674,"o":"m 413 119 q 604 185 460 119 q 650 82 635 140 q 501 9 574 35 q 397 -17 428 -17 q 142 76 229 -17 q 56 341 56 169 q 142 617 56 513 q 397 722 228 722 q 603 635 532 722 q 674 407 674 547 q 640 340 674 378 l 240 347 q 282 178 243 236 q 413 119 321 119 m 385 607 q 286 586 332 607 q 246 463 254 519 q 492 468 354 467 q 385 607 485 607 m 508 771 q 363 856 407 822 q 217 771 338 836 q 143 854 164 821 l 363 1036 l 583 854 q 508 771 564 824 z "},"ë":{"ha":711,"x_min":56,"x_max":674,"o":"m 413 119 q 604 185 460 119 q 650 82 635 140 q 501 9 574 35 q 397 -17 428 -17 q 142 76 229 -17 q 56 341 56 169 q 142 617 56 513 q 397 722 228 722 q 603 635 532 722 q 674 407 674 547 q 640 340 674 378 l 240 347 q 282 178 243 236 q 413 119 321 119 m 385 607 q 286 586 332 607 q 246 463 254 519 q 492 468 354 467 q 385 607 485 607 m 322 949 q 333 873 333 901 q 329 807 333 844 q 252 796 288 796 q 171 800 217 796 q 160 876 160 847 q 164 942 160 904 q 241 953 206 953 q 322 949 276 953 m 549 949 q 560 873 560 901 q 556 807 560 844 q 478 796 514 796 q 397 800 443 796 q 386 876 386 847 q 390 942 386 904 q 467 953 432 953 q 549 949 503 953 z "},"ì":{"ha":428,"x_min":28,"x_max":443,"o":"m 115 1038 l 335 856 q 249 768 296 806 q 28 917 108 838 q 52 972 31 942 q 115 1038 74 1001 m 332 711 q 365 710 358 711 q 342 583 365 642 q 335 133 336 283 l 443 121 q 411 0 443 64 l 65 0 l 53 76 q 178 118 139 108 l 163 568 q 42 589 81 576 q 51 689 42 624 q 332 711 133 711 z "},"í":{"ha":428,"x_min":42,"x_max":443,"o":"m 121 856 l 340 1038 q 428 917 422 972 q 337 844 392 882 q 207 768 282 807 q 121 856 163 801 m 332 711 q 365 710 358 711 q 342 583 365 642 q 335 133 336 283 l 443 121 q 411 0 443 64 l 65 0 l 53 76 q 178 118 139 108 l 163 568 q 42 589 81 576 q 51 689 42 624 q 332 711 133 711 z "},"î":{"ha":428,"x_min":28,"x_max":468,"o":"m 393 771 q 247 856 292 822 q 101 771 222 836 q 28 854 49 821 l 247 1036 l 468 854 q 393 771 449 824 m 332 711 q 365 710 358 711 q 342 583 365 642 q 335 133 336 283 l 443 121 q 411 0 443 64 l 65 0 l 53 76 q 178 118 139 108 l 163 568 q 42 589 81 576 q 51 689 42 624 q 332 711 133 711 z "},"ï":{"ha":428,"x_min":21,"x_max":443,"o":"m 183 949 q 194 873 194 901 q 190 807 194 844 q 113 796 149 796 q 32 800 78 796 q 21 876 21 847 q 25 942 21 904 q 102 953 67 953 q 183 949 138 953 m 410 949 q 421 873 421 901 q 417 807 421 844 q 340 796 375 796 q 258 800 304 796 q 247 876 247 847 q 251 942 247 904 q 328 953 293 953 q 410 949 364 953 m 332 711 q 365 710 358 711 q 342 583 365 642 q 335 133 336 283 l 443 121 q 411 0 443 64 l 65 0 l 53 76 q 178 118 139 108 l 163 568 q 42 589 81 576 q 51 689 42 624 q 332 711 133 711 z "},"ð":{"ha":804,"x_min":50,"x_max":733,"o":"m 733 464 q 382 -17 733 -17 q 142 93 233 -17 q 50 343 50 203 q 137 587 50 483 q 371 690 224 690 q 528 646 432 690 q 463 808 508 749 l 317 713 q 243 813 272 757 q 346 897 294 860 q 185 929 281 921 q 183 966 183 938 q 204 1031 183 994 q 457 975 346 1031 l 593 1063 q 651 958 622 1026 q 575 888 619 922 q 733 464 733 732 m 371 563 q 335 563 371 563 q 267 508 300 563 q 235 335 235 453 q 270 164 235 218 q 389 110 306 110 q 551 467 551 110 q 550 504 551 492 q 371 563 442 563 z "},"ñ":{"ha":856,"x_min":39,"x_max":865,"o":"m 506 722 q 707 654 644 722 q 769 464 769 586 q 756 133 769 342 l 865 121 q 833 0 865 64 l 488 0 l 475 76 q 596 118 540 103 q 588 387 592 278 q 567 535 583 496 q 493 574 550 574 q 339 543 407 574 q 331 348 338 483 q 324 133 325 213 l 432 121 q 400 0 432 64 l 54 0 l 42 76 q 167 118 111 103 q 158 349 165 201 q 149 567 150 496 q 39 588 97 572 l 46 688 q 265 714 143 714 q 307 654 281 704 q 422 700 354 678 q 506 722 490 722 m 219 785 q 175 858 193 818 q 301 969 200 893 q 353 989 328 989 q 440 961 378 989 q 526 928 503 933 q 650 988 649 986 q 696 914 683 940 q 567 799 657 857 q 518 779 539 779 q 432 812 486 789 q 350 842 378 835 q 285 812 329 829 q 219 785 240 794 z "},"ò":{"ha":747,"x_min":50,"x_max":771,"o":"m 410 611 q 296 586 360 611 q 262 488 278 558 q 246 347 246 418 q 285 162 246 217 q 410 107 324 107 q 536 162 497 107 q 575 351 575 217 q 535 548 575 485 q 410 611 496 611 m 410 722 q 491 722 410 722 q 672 623 572 722 q 771 347 771 524 q 672 76 771 169 q 410 -17 574 -17 q 148 76 246 -17 q 50 347 50 169 q 149 623 50 524 q 410 722 247 722 m 303 1038 l 522 856 q 436 768 483 806 q 215 917 296 838 q 240 972 218 942 q 303 1038 261 1001 z "},"ó":{"ha":747,"x_min":50,"x_max":771,"o":"m 410 611 q 296 586 360 611 q 262 488 278 558 q 246 347 246 418 q 285 162 246 217 q 410 107 324 107 q 536 162 497 107 q 575 351 575 217 q 535 548 575 485 q 410 611 496 611 m 410 722 q 491 722 410 722 q 672 623 572 722 q 771 347 771 524 q 672 76 771 169 q 410 -17 574 -17 q 148 76 246 -17 q 50 347 50 169 q 149 623 50 524 q 410 722 247 722 m 282 856 l 501 1038 q 589 917 583 972 q 498 844 553 882 q 368 768 443 807 q 282 856 324 801 z "},"ô":{"ha":747,"x_min":50,"x_max":771,"o":"m 410 611 q 296 586 360 611 q 262 488 278 558 q 246 347 246 418 q 285 162 246 217 q 410 107 324 107 q 536 162 497 107 q 575 351 575 217 q 535 548 575 485 q 410 611 496 611 m 410 722 q 491 722 410 722 q 672 623 572 722 q 771 347 771 524 q 672 76 771 169 q 410 -17 574 -17 q 148 76 246 -17 q 50 347 50 169 q 149 623 50 524 q 410 722 247 722 m 528 771 q 382 856 426 822 q 236 771 357 836 q 163 854 183 821 l 382 1036 l 603 854 q 528 771 583 824 z "},"õ":{"ha":747,"x_min":50,"x_max":771,"o":"m 410 611 q 296 586 360 611 q 262 488 278 558 q 246 347 246 418 q 285 162 246 217 q 410 107 324 107 q 536 162 497 107 q 575 351 575 217 q 535 548 575 485 q 410 611 496 611 m 410 722 q 491 722 410 722 q 672 623 572 722 q 771 347 771 524 q 672 76 771 169 q 410 -17 574 -17 q 148 76 246 -17 q 50 347 50 169 q 149 623 50 524 q 410 722 247 722 m 185 785 q 140 858 158 819 q 267 969 165 893 q 318 989 293 989 q 406 961 343 989 q 492 928 468 933 q 615 988 614 986 q 661 914 649 940 q 532 799 622 857 q 483 779 504 779 q 397 812 451 789 q 315 842 343 835 q 250 812 294 829 q 185 785 206 794 z "},"ö":{"ha":747,"x_min":50,"x_max":771,"o":"m 410 611 q 296 586 360 611 q 262 488 278 558 q 246 347 246 418 q 285 162 246 217 q 410 107 324 107 q 536 162 497 107 q 575 351 575 217 q 535 548 575 485 q 410 611 496 611 m 410 722 q 491 722 410 722 q 672 623 572 722 q 771 347 771 524 q 672 76 771 169 q 410 -17 574 -17 q 148 76 246 -17 q 50 347 50 169 q 149 623 50 524 q 410 722 247 722 m 354 949 q 365 873 365 901 q 361 807 365 844 q 284 796 319 796 q 203 800 249 796 q 192 876 192 847 q 196 942 192 904 q 273 953 238 953 q 354 949 308 953 m 581 949 q 592 873 592 901 q 588 807 592 844 q 510 796 546 796 q 429 800 475 796 q 418 876 418 847 q 422 942 418 904 q 499 953 464 953 q 581 949 535 953 z "},"÷":{"ha":786,"x_min":63,"x_max":743,"o":"m 492 176 q 504 91 504 126 q 500 11 504 56 q 410 -1 453 -1 q 315 3 367 -1 q 301 84 301 58 q 307 168 301 110 q 395 181 353 181 q 492 176 438 181 m 492 711 q 504 625 504 661 q 500 546 504 589 q 410 533 453 533 q 315 538 367 533 q 301 619 301 593 q 307 703 301 644 q 395 715 353 715 q 492 711 438 715 m 69 418 q 238 438 178 438 q 506 433 299 438 q 736 428 714 429 q 743 368 743 400 l 738 310 q 553 289 629 289 l 71 299 q 63 357 63 340 l 69 418 z "},"ø":{"ha":747,"x_min":50,"x_max":771,"o":"m 771 346 q 672 76 771 169 q 410 -17 574 -17 q 317 -7 368 -17 l 264 -139 q 165 -101 196 -131 l 215 26 q 50 346 50 115 q 149 623 50 524 q 410 722 247 722 q 482 717 435 722 l 538 857 q 653 815 608 843 l 596 678 q 724 549 678 633 q 771 346 771 464 m 410 101 q 540 157 500 101 q 581 347 581 213 q 543 546 581 481 l 363 106 q 410 101 386 101 m 443 614 q 403 617 421 617 q 296 592 360 617 q 281 565 290 582 q 256 483 271 547 q 240 324 240 419 q 271 171 240 228 l 443 614 z "},"ù":{"ha":826,"x_min":14,"x_max":813,"o":"m 707 711 q 740 710 733 711 q 717 588 740 639 q 703 136 708 282 q 813 115 765 131 l 810 18 q 664 -8 725 -8 q 581 -6 603 -8 q 553 61 564 28 q 386 -17 438 -17 q 138 235 138 -17 q 149 569 138 303 q 14 589 75 569 q 24 689 14 624 q 304 711 106 711 q 338 710 331 711 q 314 583 338 642 l 314 303 q 333 173 314 214 q 413 132 351 132 q 540 175 475 132 l 532 569 q 417 589 471 572 q 426 689 417 624 q 707 711 508 711 m 288 1038 l 507 856 q 421 768 468 806 q 200 917 281 838 q 224 972 203 942 q 288 1038 246 1001 z "},"ú":{"ha":826,"x_min":14,"x_max":813,"o":"m 707 711 q 740 710 733 711 q 717 588 740 639 q 703 136 708 282 q 813 115 765 131 l 810 18 q 664 -8 725 -8 q 581 -6 603 -8 q 553 61 564 28 q 386 -17 438 -17 q 138 235 138 -17 q 149 569 138 303 q 14 589 75 569 q 24 689 14 624 q 304 711 106 711 q 338 710 331 711 q 314 583 338 642 l 314 303 q 333 173 314 214 q 413 132 351 132 q 540 175 475 132 l 532 569 q 417 589 471 572 q 426 689 417 624 q 707 711 508 711 m 292 856 l 511 1038 q 599 917 593 972 q 508 844 563 882 q 378 768 453 807 q 292 856 333 801 z "},"û":{"ha":826,"x_min":14,"x_max":813,"o":"m 707 711 q 740 710 733 711 q 717 588 740 639 q 703 136 708 282 q 813 115 765 131 l 810 18 q 664 -8 725 -8 q 581 -6 603 -8 q 553 61 564 28 q 386 -17 438 -17 q 138 235 138 -17 q 149 569 138 303 q 14 589 75 569 q 24 689 14 624 q 304 711 106 711 q 338 710 331 711 q 314 583 338 642 l 314 303 q 333 173 314 214 q 413 132 351 132 q 540 175 475 132 l 532 569 q 417 589 471 572 q 426 689 417 624 q 707 711 508 711 m 544 771 q 399 856 443 822 q 253 771 374 836 q 179 854 200 821 l 399 1036 l 619 854 q 544 771 600 824 z "},"ü":{"ha":826,"x_min":14,"x_max":813,"o":"m 707 711 q 740 710 733 711 q 717 588 740 639 q 703 136 708 282 q 813 115 765 131 l 810 18 q 664 -8 725 -8 q 581 -6 603 -8 q 553 61 564 28 q 386 -17 438 -17 q 138 235 138 -17 q 149 569 138 303 q 14 589 75 569 q 24 689 14 624 q 304 711 106 711 q 338 710 331 711 q 314 583 338 642 l 314 303 q 333 173 314 214 q 413 132 351 132 q 540 175 475 132 l 532 569 q 417 589 471 572 q 426 689 417 624 q 707 711 508 711 m 365 949 q 376 873 376 901 q 372 807 376 844 q 295 796 331 796 q 214 800 260 796 q 203 876 203 847 q 207 942 203 904 q 284 953 249 953 q 365 949 319 953 m 592 949 q 603 873 603 901 q 599 807 603 844 q 522 796 557 796 q 440 800 486 796 q 429 876 429 847 q 433 942 429 904 q 510 953 475 953 q 592 949 546 953 z "},"ý":{"ha":819,"x_min":-14,"x_max":821,"o":"m 235 -336 q 146 -322 194 -336 q 42 -281 97 -308 q 57 -90 50 -121 q 144 -76 110 -76 q 188 -78 178 -76 l 232 -217 l 244 -215 q 310 -139 276 -211 q 358 0 343 -67 l 300 0 l 94 572 l -14 585 q 18 706 -14 642 l 364 706 l 376 629 q 281 593 319 603 l 386 264 l 399 204 l 429 204 l 547 593 q 431 629 500 601 l 443 706 l 789 706 q 821 585 821 642 q 713 574 767 576 q 517 7 588 207 q 390 -265 447 -193 q 235 -336 333 -336 m 333 856 l 553 1038 q 640 917 635 972 q 549 844 604 882 q 419 768 494 807 q 333 856 375 801 z "},"þ":{"ha":804,"x_min":28,"x_max":768,"o":"m 461 733 q 768 360 768 733 q 697 114 768 229 q 598 19 661 56 q 456 -17 535 -17 q 324 32 408 -17 q 321 -172 321 -104 l 429 -185 q 397 -306 429 -239 l 51 -306 l 39 -229 q 164 -187 117 -200 q 150 411 161 22 q 138 889 139 800 q 28 910 74 896 q 39 1010 28 954 q 308 1032 128 1032 q 351 1031 340 1032 q 333 904 351 961 q 329 689 329 832 q 461 733 429 733 m 453 589 q 333 553 403 589 q 326 181 326 244 q 446 119 408 119 q 551 182 513 119 q 590 353 590 244 q 453 589 590 589 z "},"ÿ":{"ha":819,"x_min":-14,"x_max":821,"o":"m 235 -336 q 146 -322 194 -336 q 42 -281 97 -308 q 57 -90 50 -121 q 144 -76 110 -76 q 188 -78 178 -76 l 232 -217 l 244 -215 q 310 -139 276 -211 q 358 0 343 -67 l 300 0 l 94 572 l -14 585 q 18 706 -14 642 l 364 706 l 376 629 q 281 593 319 603 l 386 264 l 399 204 l 429 204 l 547 593 q 431 629 500 601 l 443 706 l 789 706 q 821 585 821 642 q 713 574 767 576 q 517 7 588 207 q 390 -265 447 -193 q 235 -336 333 -336 m 353 949 q 364 873 364 901 q 360 807 364 844 q 283 796 318 796 q 201 800 247 796 q 190 876 190 847 q 194 942 190 904 q 272 953 236 953 q 353 949 307 953 m 579 949 q 590 873 590 901 q 586 807 590 844 q 509 796 544 796 q 428 800 474 796 q 417 876 417 847 q 421 942 417 904 q 498 953 463 953 q 579 949 533 953 z "},"Ā":{"ha":1026,"x_min":7,"x_max":1011,"o":"m 721 957 l 722 943 q 704 846 722 886 q 647 824 686 832 l 879 138 l 1011 121 q 979 0 1011 64 l 642 0 l 629 76 q 706 106 688 99 l 650 263 l 338 263 q 293 133 296 139 l 389 121 q 378 53 389 92 q 357 0 367 15 l 19 0 l 7 76 q 119 115 69 103 l 353 829 q 213 865 260 843 q 225 936 213 906 q 362 959 254 946 q 567 972 469 972 q 721 957 665 972 m 542 575 l 501 758 l 488 758 l 443 567 l 378 393 l 610 393 l 542 575 m 367 1235 q 535 1244 463 1244 q 711 1235 608 1244 q 714 1181 714 1222 l 710 1114 q 553 1106 614 1106 l 368 1113 q 361 1168 361 1144 l 367 1235 z "},"ā":{"ha":749,"x_min":57,"x_max":776,"o":"m 304 -17 q 122 32 186 -17 q 57 196 57 81 q 133 375 57 306 q 257 422 178 415 q 475 429 336 429 l 475 451 q 448 576 475 536 q 353 615 421 615 q 290 601 318 615 l 257 481 l 154 483 q 117 651 119 536 q 247 694 144 665 q 379 722 350 722 q 597 660 529 722 q 665 465 665 599 q 653 111 665 331 q 775 88 732 104 q 776 47 776 71 l 775 17 q 574 -17 675 -17 q 535 -15 547 -17 q 510 85 514 26 l 503 85 q 410 22 476 60 q 304 -17 344 -17 m 235 188 q 263 120 235 142 q 328 99 292 99 q 414 131 364 99 q 494 190 464 164 l 488 318 q 322 297 378 313 q 235 188 235 279 m 226 968 q 395 978 322 978 q 571 968 468 978 q 574 914 574 956 l 569 847 q 413 839 474 839 l 228 846 q 221 901 221 878 l 226 968 z "},"Ă":{"ha":1026,"x_min":7,"x_max":1011,"o":"m 721 957 l 722 943 q 704 846 722 886 q 647 824 686 832 l 879 138 l 1011 121 q 979 0 1011 64 l 642 0 l 629 76 q 706 106 688 99 l 650 263 l 338 263 q 293 133 296 139 l 389 121 q 378 53 389 92 q 357 0 367 15 l 19 0 l 7 76 q 119 115 69 103 l 353 829 q 213 865 260 843 q 225 936 213 906 q 362 959 254 946 q 567 972 469 972 q 721 957 665 972 m 542 575 l 501 758 l 488 758 l 443 567 l 378 393 l 610 393 l 542 575 z "},"ă":{"ha":749,"x_min":57,"x_max":776,"o":"m 304 -17 q 122 32 186 -17 q 57 196 57 81 q 133 375 57 306 q 257 422 178 415 q 475 429 336 429 l 475 451 q 448 576 475 536 q 353 615 421 615 q 290 601 318 615 l 257 481 l 154 483 q 117 651 119 536 q 247 694 144 665 q 379 722 350 722 q 597 660 529 722 q 665 465 665 599 q 653 111 665 331 q 775 88 732 104 q 776 47 776 71 l 775 17 q 574 -17 675 -17 q 535 -15 547 -17 q 510 85 514 26 l 503 85 q 410 22 476 60 q 304 -17 344 -17 m 235 188 q 263 120 235 142 q 328 99 292 99 q 414 131 364 99 q 494 190 464 164 l 488 318 q 322 297 378 313 q 235 188 235 279 m 590 1024 q 531 867 590 935 q 372 799 471 799 q 216 866 272 799 q 160 1024 160 933 l 274 1024 q 298 956 274 985 q 374 928 322 928 q 461 1024 461 928 l 590 1024 z "},"Ē":{"ha":826,"x_min":42,"x_max":758,"o":"m 346 833 q 343 561 346 675 l 485 561 l 499 657 q 636 622 569 657 l 636 344 l 544 340 q 506 428 511 390 l 342 428 q 339 135 339 233 l 576 135 l 607 256 q 738 247 693 256 q 758 103 758 168 q 754 0 758 39 l 65 0 l 53 76 q 169 117 143 111 q 167 347 168 199 q 157 851 161 681 l 42 888 l 53 972 l 735 972 q 739 878 739 935 q 718 722 739 822 q 588 708 675 708 l 556 833 l 346 833 m 265 1235 q 435 1244 361 1244 q 610 1235 508 1244 q 613 1181 613 1222 l 608 1114 q 451 1106 513 1106 l 267 1113 q 260 1168 260 1144 l 265 1235 z "},"ē":{"ha":711,"x_min":56,"x_max":674,"o":"m 413 119 q 604 185 460 119 q 650 82 635 140 q 501 9 574 35 q 397 -17 428 -17 q 142 76 229 -17 q 56 341 56 169 q 142 617 56 513 q 397 722 228 722 q 603 635 532 722 q 674 407 674 547 q 640 340 674 378 l 240 347 q 282 178 243 236 q 413 119 321 119 m 385 607 q 286 586 332 607 q 246 463 254 519 q 492 468 354 467 q 385 607 485 607 m 183 968 q 352 978 279 978 q 528 968 425 978 q 531 914 531 956 l 526 847 q 369 839 431 839 l 185 846 q 178 901 178 878 l 183 968 z "},"Ĕ":{"ha":826,"x_min":42,"x_max":758,"o":"m 346 833 q 343 561 346 675 l 485 561 l 499 657 q 636 622 569 657 l 636 344 l 544 340 q 506 428 511 390 l 342 428 q 339 135 339 233 l 576 135 l 607 256 q 738 247 693 256 q 758 103 758 168 q 754 0 758 39 l 65 0 l 53 76 q 169 117 143 111 q 167 347 168 199 q 157 851 161 681 l 42 888 l 53 972 l 735 972 q 739 878 739 935 q 718 722 739 822 q 588 708 675 708 l 556 833 l 346 833 m 639 1289 q 579 1132 639 1200 q 420 1064 519 1064 q 265 1131 321 1064 q 208 1289 208 1199 l 322 1289 q 347 1222 322 1250 q 422 1193 371 1193 q 510 1289 510 1193 l 639 1289 z "},"ĕ":{"ha":706,"x_min":56,"x_max":674,"o":"m 413 119 q 604 185 460 119 q 650 82 635 140 q 501 9 574 35 q 397 -17 428 -17 q 142 76 229 -17 q 56 341 56 169 q 142 617 56 513 q 397 722 228 722 q 603 635 532 722 q 674 407 674 547 q 640 340 674 378 l 240 347 q 282 178 243 236 q 413 119 321 119 m 385 607 q 286 586 332 607 q 246 463 254 519 q 492 468 354 467 q 385 607 485 607 m 581 1024 q 521 867 581 935 q 362 799 461 799 q 206 866 263 799 q 150 1024 150 933 l 264 1024 q 288 956 264 985 q 364 928 313 928 q 451 1024 451 928 l 581 1024 z "},"Ğ":{"ha":939,"x_min":28,"x_max":883,"o":"m 442 -18 q 140 110 253 -18 q 28 488 28 238 q 126 863 28 738 q 443 989 224 989 q 622 964 536 989 q 738 922 707 939 q 786 890 768 904 q 764 693 786 801 q 692 676 728 676 q 632 679 657 676 l 603 824 q 483 840 542 840 q 279 807 401 840 q 218 510 218 685 q 443 126 218 126 q 622 164 556 126 q 628 386 625 236 l 511 422 l 522 507 l 858 507 q 883 397 875 476 q 782 383 836 388 q 790 75 790 204 q 644 15 750 49 q 442 -18 539 -18 m 667 1289 q 607 1132 667 1200 q 448 1064 547 1064 q 292 1131 349 1064 q 236 1289 236 1199 l 350 1289 q 374 1222 350 1250 q 450 1193 399 1193 q 538 1289 538 1193 l 667 1289 z "},"ğ":{"ha":803,"x_min":57,"x_max":832,"o":"m 603 241 q 580 226 603 241 q 506 198 557 211 q 406 185 454 185 q 322 194 358 185 q 293 140 307 158 q 526 124 304 124 q 722 81 665 124 q 769 24 749 63 q 789 -77 789 -15 q 728 -201 789 -139 q 575 -300 667 -264 q 393 -336 483 -336 q 150 -277 243 -336 q 57 -131 57 -218 q 106 -49 57 -114 q 169 25 154 15 q 121 72 156 32 q 82 128 86 111 q 193 253 100 178 q 85 472 85 318 q 169 658 85 594 q 391 722 253 722 q 600 685 529 722 q 767 706 718 706 q 832 704 817 706 q 816 628 832 671 q 786 569 800 586 l 667 597 q 701 468 701 547 q 675 330 701 389 q 603 241 649 271 m 596 -157 q 606 -96 606 -131 q 575 -45 606 -61 q 503 -29 544 -29 q 288 -26 340 -29 q 260 -94 276 -50 q 243 -146 243 -137 q 254 -170 243 -154 q 302 -204 265 -186 q 392 -222 339 -222 q 518 -197 446 -222 q 596 -157 590 -172 m 484 581 q 468 599 484 581 q 393 618 451 618 q 302 581 335 618 q 269 472 269 543 q 303 360 269 400 q 393 319 336 319 q 517 472 517 319 q 484 581 517 543 z "},"ħ":{"ha":857,"x_min":28,"x_max":863,"o":"m 394 835 q 400 793 400 808 q 396 744 400 778 q 331 738 365 740 l 331 667 q 432 704 375 686 q 503 722 489 722 q 706 658 644 722 q 768 457 768 594 q 754 133 768 443 l 863 119 q 831 0 863 60 l 485 0 l 472 76 q 592 117 565 114 q 583 414 592 119 q 563 535 581 497 q 505 574 544 574 q 415 565 465 574 q 336 543 364 556 l 321 133 l 429 121 q 397 0 429 64 l 51 0 l 39 76 q 164 118 125 108 l 142 738 l 38 743 q 31 784 31 767 q 35 835 31 801 q 139 843 88 840 l 139 903 q 28 924 72 910 q 38 1010 28 951 q 318 1032 119 1032 q 351 1031 344 1032 q 333 904 351 958 q 332 838 332 882 l 394 835 z "},"Ĩ":{"ha":528,"x_min":25,"x_max":546,"o":"m 449 972 q 449 969 447 972 q 455 958 451 967 q 463 936 458 949 q 474 863 471 914 q 381 849 403 851 l 374 133 l 469 121 q 438 0 469 64 l 100 0 l 88 76 q 204 117 165 108 q 200 347 203 199 q 192 851 196 681 l 76 888 l 88 972 l 449 972 m 69 1051 q 25 1125 43 1086 q 151 1236 50 1160 q 203 1256 178 1256 q 290 1228 228 1256 q 376 1194 353 1200 q 500 1254 499 1253 q 546 1181 533 1207 q 417 1065 507 1124 q 368 1046 389 1046 q 282 1078 336 1056 q 200 1108 228 1101 q 135 1078 179 1096 q 69 1051 90 1061 z "},"ĩ":{"ha":428,"x_min":-19,"x_max":501,"o":"m 25 785 q -19 858 -1 819 q 107 969 6 893 q 158 989 133 989 q 246 961 183 989 q 332 928 308 933 q 456 988 454 986 q 501 914 489 940 q 372 799 463 857 q 324 779 344 779 q 238 812 292 789 q 156 842 183 835 q 90 812 135 829 q 25 785 46 794 m 332 711 q 365 710 358 711 q 342 583 365 642 q 335 133 336 283 l 443 121 q 411 0 443 64 l 65 0 l 53 76 q 178 118 139 108 l 163 568 q 42 589 81 576 q 51 689 42 624 q 332 711 133 711 z "},"Ī":{"ha":528,"x_min":76,"x_max":474,"o":"m 449 972 q 449 969 447 972 q 455 958 451 967 q 463 936 458 949 q 474 863 471 914 q 381 849 403 851 l 374 133 l 469 121 q 438 0 469 64 l 100 0 l 88 76 q 204 117 165 108 q 200 347 203 199 q 192 851 196 681 l 76 888 l 88 972 l 449 972 m 110 1235 q 279 1244 206 1244 q 454 1235 353 1244 q 457 1181 457 1222 l 453 1114 q 296 1106 357 1106 l 111 1113 q 104 1168 104 1144 l 110 1235 z "},"ī":{"ha":428,"x_min":42,"x_max":443,"o":"m 332 711 q 365 710 358 711 q 342 583 365 642 q 335 133 336 283 l 443 121 q 411 0 443 64 l 65 0 l 53 76 q 178 118 139 108 l 163 568 q 42 589 81 576 q 51 689 42 624 q 332 711 133 711 m 76 968 q 245 978 172 978 q 421 968 318 978 q 424 914 424 956 l 419 847 q 263 839 324 839 l 78 846 q 71 901 71 878 l 76 968 z "},"Ĭ":{"ha":528,"x_min":76,"x_max":507,"o":"m 449 972 q 449 969 447 972 q 455 958 451 967 q 463 936 458 949 q 474 863 471 914 q 381 849 403 851 l 374 133 l 469 121 q 438 0 469 64 l 100 0 l 88 76 q 204 117 165 108 q 200 347 203 199 q 192 851 196 681 l 76 888 l 88 972 l 449 972 m 507 1289 q 447 1132 507 1200 q 288 1064 388 1064 q 133 1131 189 1064 q 76 1289 76 1199 l 190 1289 q 215 1222 190 1250 q 290 1193 239 1193 q 378 1289 378 1193 l 507 1289 z "},"ĭ":{"ha":428,"x_min":42,"x_max":443,"o":"m 332 711 q 365 710 358 711 q 342 583 365 642 q 335 133 336 283 l 443 121 q 411 0 443 64 l 65 0 l 53 76 q 178 118 139 108 l 163 568 q 42 589 81 576 q 51 689 42 624 q 332 711 133 711 z "},"ı":{"ha":428,"x_min":42,"x_max":443,"o":"m 332 711 q 365 710 358 711 q 342 583 365 642 q 335 133 336 283 l 443 121 q 411 0 443 64 l 65 0 l 53 76 q 178 118 139 108 l 163 568 q 42 589 81 576 q 51 689 42 624 q 332 711 133 711 z "},"Ĳ":{"ha":1168,"x_min":76,"x_max":1135,"o":"m 449 972 q 449 969 447 972 q 455 958 451 967 q 463 936 458 949 q 474 863 471 914 q 381 849 403 851 l 374 133 l 469 121 q 438 0 469 64 l 100 0 l 88 76 q 204 117 165 108 q 200 347 203 199 q 192 851 196 681 l 76 888 l 88 972 l 449 972 m 781 129 q 868 263 868 129 q 853 851 868 313 l 738 888 l 749 972 l 1110 972 q 1135 863 1135 918 q 1042 849 1051 849 q 1040 561 1040 768 q 1036 237 1039 354 q 975 51 1033 119 q 806 -18 917 -18 q 645 7 725 -18 q 531 65 565 32 q 553 296 532 167 q 689 311 608 311 l 715 135 q 781 129 738 129 z "},"ĳ":{"ha":851,"x_min":63,"x_max":799,"o":"m 353 711 q 386 710 379 711 q 363 583 386 642 q 356 133 357 283 l 464 121 q 432 0 464 64 l 86 0 l 74 76 q 199 118 160 108 l 183 568 q 63 589 103 576 q 72 689 63 640 q 353 711 154 711 m 499 -208 l 528 -210 q 595 -162 574 -210 q 617 -43 617 -114 q 596 568 617 131 q 475 589 514 576 q 485 689 475 624 q 765 711 567 711 q 799 710 792 711 q 775 583 799 642 l 769 -18 q 718 -258 768 -182 q 522 -333 668 -333 q 405 -312 475 -333 q 306 -271 335 -290 q 335 -71 313 -137 q 419 -58 367 -58 l 465 -60 l 499 -208 m 765 974 q 778 878 778 911 q 772 806 778 846 q 678 793 717 793 q 586 797 640 793 q 574 892 574 860 q 579 965 574 925 q 673 978 635 978 q 765 974 711 978 z "},"Ĵ":{"ha":644,"x_min":-62,"x_max":671,"o":"m 188 129 q 275 263 275 129 q 260 851 275 313 l 144 888 l 156 972 l 517 972 q 542 863 542 918 q 449 849 458 849 q 447 561 447 768 q 443 237 446 354 q 382 51 440 119 q 213 -18 324 -18 q 52 7 132 -18 q -62 65 -28 32 q -40 296 -61 167 q 96 311 15 311 l 122 135 q 188 129 144 129 m 596 1038 q 450 1122 494 1089 q 304 1038 425 1103 q 231 1121 251 1088 l 450 1303 l 671 1121 q 596 1038 651 1090 z "},"ĵ":{"ha":424,"x_min":-136,"x_max":450,"o":"m 57 -208 l 86 -210 q 153 -162 132 -210 q 175 -43 175 -114 q 154 568 175 185 q 33 589 72 576 q 43 689 33 624 q 324 711 125 711 q 357 710 350 711 q 333 583 357 642 q 328 -18 331 385 q 276 -258 326 -182 q 81 -333 226 -333 q -37 -312 33 -333 q -136 -271 -107 -290 q -107 -71 -129 -137 q -22 -58 -75 -58 l 24 -60 l 57 -208 m 229 1036 l 450 854 q 375 771 431 824 q 329 796 365 776 q 229 856 260 832 q 115 789 196 829 l 83 771 q 10 854 31 821 l 229 1036 z "},"ķ":{"ha":821,"x_min":26,"x_max":818,"o":"m 317 1032 q 350 1031 343 1032 q 332 904 350 958 q 324 410 324 571 l 489 574 l 403 585 q 435 706 403 642 l 781 706 l 793 629 q 668 588 707 597 l 515 435 l 710 133 l 818 121 q 786 0 818 64 l 608 0 l 403 322 l 321 240 q 319 133 319 204 l 428 121 q 396 0 428 64 l 50 0 l 38 76 q 163 118 124 108 l 136 889 q 26 910 71 896 q 36 1010 26 961 q 317 1032 118 1032 m 532 -115 q 543 -209 543 -157 q 497 -325 543 -261 q 413 -412 451 -389 q 342 -365 369 -393 q 403 -265 357 -322 l 379 -261 q 369 -192 369 -232 q 372 -121 369 -153 q 461 -110 428 -110 q 532 -115 494 -110 z "},"ĸ":{"ha":821,"x_min":26,"x_max":824,"o":"m 326 240 l 325 133 l 433 121 q 401 0 433 64 l 56 0 l 43 76 q 168 118 129 108 q 161 358 167 203 q 154 561 156 513 q 26 583 86 564 q 36 683 26 635 q 317 706 118 706 q 350 704 343 706 q 332 578 350 632 q 329 410 329 467 l 494 574 l 408 585 q 440 706 408 642 l 786 706 l 799 629 q 674 588 713 597 l 521 435 l 715 133 l 824 121 q 792 0 824 64 l 614 0 l 408 322 l 326 240 z "},"Ŀ":{"ha":822,"x_min":96,"x_max":801,"o":"m 649 253 q 699 258 682 258 q 775 249 717 258 q 791 178 781 238 q 801 81 801 118 q 793 0 801 44 l 119 0 l 107 76 q 224 117 175 104 q 211 851 224 121 l 96 888 l 107 972 l 468 972 q 469 969 467 972 q 474 958 471 967 q 482 936 478 949 q 493 863 490 914 q 400 849 422 851 q 393 133 394 369 l 618 133 l 649 253 m 757 576 q 769 481 769 514 q 764 408 769 449 q 670 396 708 396 q 578 400 632 396 q 565 495 565 463 q 571 568 565 528 q 665 581 626 581 q 757 576 703 581 z "},"ŀ":{"ha":699,"x_min":26,"x_max":651,"o":"m 639 488 q 651 402 651 438 q 647 322 651 367 q 557 310 600 310 q 463 314 514 310 q 449 395 449 369 q 454 479 449 421 q 542 492 500 492 q 639 488 585 492 m 317 1032 q 350 1031 343 1032 q 332 904 350 958 q 328 661 331 818 q 319 133 322 317 l 428 121 q 396 0 428 64 l 50 0 l 38 76 q 163 118 124 108 l 136 889 q 26 910 71 896 q 36 1010 26 961 q 317 1032 118 1032 z "},"Ł":{"ha":822,"x_min":88,"x_max":801,"o":"m 217 506 l 211 851 l 96 888 l 107 972 l 467 972 q 493 863 489 935 q 400 849 422 851 q 399 758 400 817 q 396 565 396 644 q 494 594 426 576 q 532 479 525 531 q 394 424 457 443 q 393 133 393 326 l 618 133 l 649 253 q 699 258 682 258 q 775 249 717 258 q 791 178 781 238 q 801 81 801 118 q 793 0 801 44 l 119 0 l 107 76 q 224 117 175 104 q 219 367 224 254 l 129 338 q 88 449 101 385 q 217 506 157 483 z "},"ł":{"ha":421,"x_min":11,"x_max":456,"o":"m 310 1032 q 343 1031 336 1032 q 325 904 343 958 q 318 563 319 676 l 418 594 q 456 479 447 531 q 315 422 376 442 q 313 133 313 228 l 421 121 q 389 0 421 64 l 43 0 l 31 76 q 156 118 117 108 l 147 368 l 53 338 q 11 449 25 385 q 142 507 81 483 l 129 889 q 19 910 64 896 q 29 1010 19 944 q 310 1032 111 1032 z "},"Ń":{"ha":1090,"x_min":42,"x_max":1079,"o":"m 986 849 l 982 0 l 804 0 l 346 747 q 339 133 340 340 l 435 121 q 403 0 435 64 l 65 0 l 53 76 q 169 117 131 108 q 157 851 169 121 l 42 888 l 53 972 l 414 972 l 818 247 l 797 851 l 682 888 l 693 972 l 1054 972 q 1055 969 1053 972 q 1060 958 1057 967 q 1068 936 1064 949 q 1079 863 1076 914 q 986 849 1008 851 m 528 1122 l 747 1304 q 835 1183 829 1239 q 744 1111 799 1149 q 614 1035 689 1074 q 528 1122 569 1068 z "},"ń":{"ha":856,"x_min":39,"x_max":865,"o":"m 506 722 q 707 654 644 722 q 769 464 769 586 q 756 133 769 342 l 865 121 q 833 0 865 64 l 488 0 l 475 76 q 596 118 540 103 q 588 387 592 278 q 567 535 583 496 q 493 574 550 574 q 339 543 407 574 q 331 348 338 483 q 324 133 325 213 l 432 121 q 400 0 432 64 l 54 0 l 42 76 q 167 118 111 103 q 158 349 165 201 q 149 567 150 496 q 39 588 97 572 l 46 688 q 265 714 143 714 q 307 654 281 704 q 422 700 354 678 q 506 722 490 722 m 317 861 l 536 1043 q 624 922 618 978 q 533 850 588 888 q 403 774 478 813 q 317 861 358 807 z "},"Ŋ":{"ha":1090,"x_min":42,"x_max":1079,"o":"m 986 849 l 982 3 q 922 -261 982 -183 q 854 -315 899 -293 q 740 -336 810 -336 q 590 -311 669 -336 q 475 -253 510 -286 q 497 -22 476 -151 q 633 -7 553 -7 l 660 -183 q 725 -189 682 -189 q 813 -56 813 -189 l 813 -14 l 346 747 q 339 133 340 340 l 435 121 q 403 0 435 64 l 65 0 l 53 76 q 169 117 131 108 q 157 851 169 121 l 42 888 l 53 972 l 414 972 l 818 247 l 797 851 l 682 888 l 693 972 l 1053 972 q 1079 863 1075 935 q 986 849 1008 851 z "},"ŋ":{"ha":856,"x_min":39,"x_max":769,"o":"m 481 -208 l 510 -210 q 577 -162 556 -210 q 599 -43 599 -114 q 586 407 599 119 q 566 535 582 497 q 493 574 550 574 q 339 543 407 574 q 331 348 338 483 q 324 133 325 213 l 432 121 q 400 0 432 64 l 54 0 l 42 76 q 167 118 111 103 q 158 349 165 201 q 149 567 150 496 q 39 588 97 572 l 46 688 q 265 714 143 714 q 307 654 281 704 q 422 700 354 678 q 506 722 490 722 q 707 654 644 722 q 769 450 769 586 q 751 -18 769 419 q 738 -153 747 -101 q 703 -249 728 -204 q 504 -333 656 -333 q 387 -312 457 -333 q 288 -271 317 -290 q 317 -71 294 -137 q 401 -58 347 -58 l 447 -60 l 481 -208 z "},"Ō":{"ha":899,"x_min":28,"x_max":879,"o":"m 458 131 q 689 485 689 131 q 458 839 689 839 q 283 808 358 839 q 219 499 219 675 q 272 227 219 324 q 458 131 325 131 m 458 989 q 785 867 690 989 q 879 496 879 746 q 839 228 879 339 q 703 50 799 117 q 458 -17 607 -17 q 130 110 232 -17 q 28 478 28 236 q 458 989 28 989 m 289 1235 q 458 1244 385 1244 q 633 1235 531 1244 q 636 1181 636 1222 l 632 1114 q 475 1106 536 1106 l 290 1113 q 283 1168 283 1144 l 289 1235 z "},"ō":{"ha":747,"x_min":50,"x_max":771,"o":"m 410 611 q 296 586 360 611 q 262 488 278 558 q 246 347 246 418 q 285 162 246 217 q 410 107 324 107 q 536 162 497 107 q 575 351 575 217 q 535 548 575 485 q 410 611 496 611 m 410 722 q 491 722 410 722 q 672 623 572 722 q 771 347 771 524 q 672 76 771 169 q 410 -17 574 -17 q 148 76 246 -17 q 50 347 50 169 q 149 623 50 524 q 410 722 247 722 m 236 968 q 405 978 332 978 q 581 968 478 978 q 583 914 583 956 l 579 847 q 422 839 483 839 l 238 846 q 231 901 231 878 l 236 968 z "},"Ŏ":{"ha":899,"x_min":28,"x_max":879,"o":"m 458 131 q 689 485 689 131 q 458 839 689 839 q 283 808 358 839 q 219 499 219 675 q 272 227 219 324 q 458 131 325 131 m 458 989 q 785 867 690 989 q 879 496 879 746 q 839 228 879 339 q 703 50 799 117 q 458 -17 607 -17 q 130 110 232 -17 q 28 478 28 236 q 458 989 28 989 m 667 1289 q 607 1132 667 1200 q 448 1064 547 1064 q 292 1131 349 1064 q 236 1289 236 1199 l 350 1289 q 374 1222 350 1250 q 450 1193 399 1193 q 538 1289 538 1193 l 667 1289 z "},"ŏ":{"ha":747,"x_min":50,"x_max":771,"o":"m 410 611 q 296 586 360 611 q 262 488 278 558 q 246 347 246 418 q 285 162 246 217 q 410 107 324 107 q 536 162 497 107 q 575 351 575 217 q 535 548 575 485 q 410 611 496 611 m 410 722 q 491 722 410 722 q 672 623 572 722 q 771 347 771 524 q 672 76 771 169 q 410 -17 574 -17 q 148 76 246 -17 q 50 347 50 169 q 149 623 50 524 q 410 722 247 722 z "},"Œ":{"ha":1233,"x_min":28,"x_max":1139,"o":"m 986 256 l 1036 257 l 1117 247 q 1139 98 1139 157 q 1133 0 1139 39 l 585 0 q 457 -6 535 -6 q 135 110 243 -6 q 28 472 28 225 q 128 845 28 718 q 450 972 228 972 l 1114 972 q 1119 897 1119 933 q 1097 719 1119 822 q 1017 710 1054 710 l 967 711 l 936 835 l 729 835 q 724 561 726 721 l 865 561 l 879 657 q 1015 622 949 657 l 1015 339 l 925 339 q 885 428 892 390 l 722 428 l 718 133 l 956 133 l 986 256 m 538 828 q 456 839 497 839 q 285 810 367 839 q 222 478 222 696 q 457 132 222 132 q 550 149 503 132 l 538 828 z "},"œ":{"ha":1228,"x_min":50,"x_max":1158,"o":"m 894 121 q 1089 185 947 121 q 1135 82 1133 124 q 985 9 1058 35 q 879 -17 911 -17 q 628 76 718 -17 q 389 -17 546 -17 q 50 353 50 -17 q 389 722 50 722 q 635 635 556 722 q 868 722 719 722 q 1087 631 1017 722 q 1158 393 1157 539 q 1124 340 1142 360 l 726 347 q 766 178 729 235 q 894 121 803 121 m 247 366 q 247 302 247 366 q 279 174 247 239 q 399 108 311 108 q 518 172 486 108 q 550 355 550 236 q 519 540 550 474 q 403 607 488 607 q 293 586 344 607 q 247 366 247 493 m 869 607 q 771 586 817 607 q 731 463 742 525 q 976 468 838 465 q 869 607 969 607 z "},"Ŕ":{"ha":911,"x_min":42,"x_max":893,"o":"m 390 972 q 713 903 633 972 q 785 710 785 840 q 574 433 785 507 l 774 132 l 893 119 q 861 0 893 60 l 660 0 l 388 415 l 343 415 l 339 132 l 440 121 q 408 0 440 64 l 65 0 l 53 76 q 169 117 136 110 q 163 529 167 288 q 157 853 158 771 l 42 888 q 54 972 43 919 l 390 972 m 500 824 q 385 833 457 833 l 346 833 q 343 546 343 642 l 411 547 q 541 581 493 549 q 589 708 589 614 q 500 824 589 803 m 318 1122 l 538 1304 q 625 1183 619 1239 q 534 1111 589 1149 q 404 1035 479 1074 q 318 1122 360 1068 z "},"ŕ":{"ha":624,"x_min":39,"x_max":640,"o":"m 453 572 q 425 579 450 579 q 339 542 400 579 q 332 133 333 269 l 440 119 q 408 0 440 60 l 63 0 l 50 76 q 175 118 136 108 l 160 568 q 39 589 88 574 l 49 689 q 319 711 86 706 q 332 663 332 699 q 487 722 454 722 q 567 706 519 722 q 640 672 615 690 l 640 649 q 613 438 640 535 q 550 428 589 428 q 478 432 511 428 q 453 572 474 450 m 194 856 l 414 1038 q 501 917 496 972 q 410 844 465 882 q 281 768 356 807 q 194 856 236 801 z "},"Ŗ":{"ha":911,"x_min":42,"x_max":893,"o":"m 535 -115 q 546 -209 546 -157 q 500 -325 546 -261 q 415 -412 454 -389 q 344 -365 372 -393 q 406 -265 360 -322 l 382 -261 q 372 -192 372 -232 q 375 -121 372 -153 q 459 -110 431 -110 q 535 -115 488 -110 m 390 972 q 713 903 633 972 q 785 710 785 840 q 574 433 785 507 l 774 132 l 893 119 q 861 0 893 60 l 660 0 l 388 415 l 343 415 l 339 132 l 440 121 q 408 0 440 64 l 65 0 l 53 76 q 169 117 136 110 q 163 529 167 288 q 157 853 158 771 l 42 888 q 54 972 43 919 l 390 972 m 500 824 q 385 833 457 833 l 346 833 q 343 546 343 642 l 411 547 q 541 581 493 549 q 589 708 589 614 q 500 824 589 803 z "},"ŗ":{"ha":624,"x_min":39,"x_max":640,"o":"m 333 -115 q 344 -209 344 -157 q 299 -325 344 -261 q 214 -412 253 -389 q 143 -365 171 -393 q 204 -265 158 -322 l 181 -261 q 171 -192 171 -232 q 174 -121 171 -153 q 256 -110 229 -110 q 333 -115 283 -110 m 453 572 q 425 579 450 579 q 339 542 400 579 q 332 133 333 269 l 440 119 q 408 0 440 60 l 63 0 l 50 76 q 175 118 136 108 l 160 568 q 39 589 88 574 l 49 689 q 319 711 86 706 q 332 663 332 699 q 487 722 454 722 q 567 706 519 722 q 640 672 615 690 l 640 649 q 613 438 640 535 q 550 428 589 428 q 478 432 511 428 q 453 572 474 450 z "},"Ř":{"ha":911,"x_min":0,"x_max":0,"o":""},"ř":{"ha":624,"x_min":39,"x_max":640,"o":"m 565 944 l 344 764 l 125 944 q 199 1028 147 978 q 219 1017 213 1019 q 344 944 300 979 q 438 1001 399 983 q 490 1028 476 1019 q 565 944 544 978 m 453 572 q 425 579 450 579 q 339 542 400 579 q 332 133 333 269 l 440 119 q 408 0 440 60 l 63 0 l 50 76 q 175 118 136 108 l 160 568 q 39 589 88 574 l 49 689 q 319 711 86 706 q 332 663 332 699 q 487 722 454 722 q 567 706 519 722 q 640 672 615 690 l 640 649 q 613 438 640 535 q 550 428 589 428 q 478 432 511 428 q 453 572 474 450 z "},"Š":{"ha":796,"x_min":63,"x_max":754,"o":"m 408 133 q 569 271 569 133 q 508 369 569 329 q 387 435 464 400 q 272 492 310 471 q 183 550 233 513 q 88 733 88 624 q 173 916 88 843 q 404 989 258 989 q 715 896 550 989 q 694 679 715 796 q 563 665 650 665 l 522 831 q 410 846 471 846 q 315 819 349 846 q 282 741 282 793 q 334 648 282 689 q 460 573 386 607 q 561 525 533 539 q 632 483 589 511 q 697 431 675 456 q 754 282 754 364 q 658 60 754 138 q 408 -18 563 -18 q 228 10 326 -18 q 63 83 131 39 q 85 313 65 168 q 218 324 140 324 l 247 157 q 408 133 324 133 m 282 1306 q 428 1221 383 1254 q 574 1306 453 1240 q 647 1222 626 1256 l 428 1040 l 207 1222 q 282 1306 226 1253 z "},"š":{"ha":628,"x_min":46,"x_max":589,"o":"m 554 663 l 556 619 q 539 478 556 511 q 411 461 493 461 l 367 601 q 317 608 349 608 q 265 589 285 608 q 244 543 244 569 q 265 495 244 517 q 308 461 286 474 q 373 428 331 449 q 437 397 415 408 q 492 364 458 386 q 544 322 526 342 q 589 207 589 269 q 508 42 589 100 q 308 -17 426 -17 q 172 6 246 -17 q 46 65 97 28 q 65 251 46 165 q 156 258 121 258 q 203 257 190 258 l 219 122 q 303 110 254 110 q 380 129 351 110 q 408 184 408 149 q 376 243 408 219 q 289 292 344 267 q 203 335 233 318 q 138 381 172 353 q 67 514 67 435 q 135 667 67 613 q 321 722 204 722 q 554 663 438 722 z "},"Ū":{"ha":1047,"x_min":33,"x_max":1074,"o":"m 797 504 l 792 851 l 676 888 l 688 972 l 1049 972 q 1049 969 1047 972 q 1055 958 1051 967 q 1063 936 1058 949 q 1074 863 1071 914 q 981 849 1003 851 l 978 496 q 881 107 975 231 q 561 -17 788 -17 q 246 99 335 -17 q 154 472 157 214 q 149 851 151 729 l 33 888 l 44 972 l 406 972 q 406 969 404 972 q 412 958 408 967 q 419 936 415 949 q 431 863 428 914 q 338 849 360 851 l 333 496 q 350 277 333 342 q 392 186 367 213 q 564 131 446 131 q 736 194 678 131 q 793 375 783 246 q 797 504 797 426 m 413 1235 q 582 1244 508 1244 q 757 1235 656 1244 q 760 1181 760 1222 l 756 1114 q 599 1106 660 1106 l 414 1113 q 407 1168 407 1144 l 413 1235 z "},"ū":{"ha":826,"x_min":14,"x_max":813,"o":"m 707 711 q 740 710 733 711 q 717 588 740 639 q 703 136 708 282 q 813 115 765 131 l 810 18 q 664 -8 725 -8 q 581 -6 603 -8 q 553 61 564 28 q 386 -17 438 -17 q 138 235 138 -17 q 149 569 138 303 q 14 589 75 569 q 24 689 14 624 q 304 711 106 711 q 338 710 331 711 q 314 583 338 642 l 314 303 q 333 173 314 214 q 413 132 351 132 q 540 175 475 132 l 532 569 q 417 589 471 572 q 426 689 417 624 q 707 711 508 711 m 268 968 q 437 978 364 978 q 613 968 510 978 q 615 914 615 956 l 611 847 q 454 839 515 839 l 269 846 q 263 901 263 878 l 268 968 z "},"Ŭ":{"ha":1047,"x_min":33,"x_max":1074,"o":"m 797 504 l 792 851 l 676 888 l 688 972 l 1049 972 q 1049 969 1047 972 q 1055 958 1051 967 q 1063 936 1058 949 q 1074 863 1071 914 q 981 849 1003 851 l 978 496 q 881 107 975 231 q 561 -17 788 -17 q 246 99 335 -17 q 154 472 157 214 q 149 851 151 729 l 33 888 l 44 972 l 406 972 q 406 969 404 972 q 412 958 408 967 q 419 936 415 949 q 431 863 428 914 q 338 849 360 851 l 333 496 q 350 277 333 342 q 392 186 367 213 q 564 131 446 131 q 736 194 678 131 q 793 375 783 246 q 797 504 797 426 m 765 1289 q 706 1132 765 1200 q 547 1064 646 1064 q 391 1131 447 1064 q 335 1289 335 1199 l 449 1289 q 473 1222 449 1250 q 549 1193 497 1193 q 636 1289 636 1193 l 765 1289 z "},"ŭ":{"ha":826,"x_min":14,"x_max":813,"o":"m 707 711 q 740 710 733 711 q 717 588 740 639 q 703 136 708 282 q 813 115 765 131 l 810 18 q 664 -8 725 -8 q 581 -6 603 -8 q 553 61 564 28 q 386 -17 438 -17 q 138 235 138 -17 q 149 569 138 303 q 14 589 75 569 q 24 689 14 624 q 304 711 106 711 q 338 710 331 711 q 314 583 338 642 l 314 303 q 333 173 314 214 q 413 132 351 132 q 540 175 475 132 l 532 569 q 417 589 471 572 q 426 689 417 624 q 707 711 508 711 z "},"Ů":{"ha":1047,"x_min":33,"x_max":1074,"o":"m 797 504 l 792 851 l 676 888 l 688 972 l 1049 972 q 1049 969 1047 972 q 1055 958 1051 967 q 1063 936 1058 949 q 1074 863 1071 914 q 981 849 1003 851 l 978 496 q 881 107 975 231 q 561 -17 788 -17 q 246 99 335 -17 q 154 472 157 214 q 149 851 151 729 l 33 888 l 44 972 l 406 972 q 406 969 404 972 q 412 958 408 967 q 419 936 415 949 q 431 863 428 914 q 338 849 360 851 l 333 496 q 350 277 333 342 q 392 186 367 213 q 564 131 446 131 q 736 194 678 131 q 793 375 783 246 q 797 504 797 426 m 542 1265 q 530 1265 542 1265 q 501 1248 517 1265 q 486 1201 486 1231 q 501 1154 486 1171 q 542 1138 517 1138 q 583 1154 568 1138 q 599 1201 599 1171 q 583 1248 599 1231 q 542 1265 568 1265 m 543 1364 q 580 1364 543 1364 q 670 1319 617 1364 q 724 1199 724 1275 q 671 1083 724 1124 q 543 1042 618 1042 q 414 1083 468 1042 q 360 1200 360 1125 q 415 1319 360 1275 q 543 1364 469 1364 z "},"ů":{"ha":826,"x_min":14,"x_max":813,"o":"m 707 711 q 740 710 733 711 q 717 588 740 639 q 703 136 708 282 q 813 115 765 131 l 810 18 q 664 -8 725 -8 q 581 -6 603 -8 q 553 61 564 28 q 386 -17 438 -17 q 138 235 138 -17 q 149 569 138 303 q 14 589 75 569 q 24 689 14 624 q 304 711 106 711 q 338 710 331 711 q 314 583 338 642 l 314 303 q 333 173 314 214 q 413 132 351 132 q 540 175 475 132 l 532 569 q 417 589 471 572 q 426 689 417 624 q 707 711 508 711 z "},"Ÿ":{"ha":942,"x_min":8,"x_max":925,"o":"m 567 364 l 565 133 l 661 121 q 629 0 661 64 l 292 0 l 279 76 q 396 117 375 114 q 393 363 396 199 l 131 850 l 8 888 l 19 972 l 381 972 q 406 863 406 926 q 324 850 374 857 l 472 515 l 485 515 l 643 851 q 528 888 596 861 l 538 972 l 900 972 q 925 863 924 938 q 817 847 871 851 l 567 364 m 442 1215 q 453 1140 453 1168 q 449 1074 453 1111 q 372 1063 407 1063 q 290 1067 336 1063 q 279 1142 279 1114 q 283 1208 279 1171 q 360 1219 325 1219 q 442 1215 396 1219 m 668 1215 q 679 1140 679 1168 q 675 1074 679 1111 q 598 1063 633 1063 q 517 1067 563 1063 q 506 1142 506 1114 q 510 1208 506 1171 q 587 1219 551 1219 q 668 1215 622 1219 z "},"Ž":{"ha":828,"x_min":63,"x_max":792,"o":"m 253 686 l 210 685 q 129 701 171 685 q 104 871 104 810 q 110 972 104 932 l 747 972 q 792 863 781 928 l 303 133 l 604 133 l 635 282 l 679 283 q 760 267 718 283 q 783 103 783 163 q 778 0 783 43 l 107 0 q 63 107 72 44 l 550 835 l 286 835 l 253 686 m 318 1303 q 464 1218 419 1251 q 610 1303 489 1238 q 683 1219 663 1253 l 464 1038 l 243 1219 q 318 1303 263 1250 z "},"ž":{"ha":674,"x_min":61,"x_max":636,"o":"m 614 254 q 636 117 636 175 q 631 0 636 58 l 92 0 q 61 99 64 40 l 414 586 l 271 586 l 240 449 q 191 447 229 447 q 108 457 153 447 q 89 613 89 557 q 93 706 89 668 l 603 706 q 622 604 622 667 l 285 125 l 453 125 l 483 263 q 614 254 569 263 z "},"ƒ":{"ha":753,"x_min":-97,"x_max":753,"o":"m 442 615 q 576 606 528 615 q 553 481 576 547 l 406 481 l 382 -24 q 119 -318 369 -318 q -97 -237 -10 -318 q -56 -65 -86 -131 l -46 -44 q 25 -40 -19 -40 l 49 -40 l 68 -178 q 134 -193 111 -193 q 172 -179 157 -193 q 194 -133 188 -165 q 210 1 207 -85 l 232 481 l 117 481 l 113 571 q 235 608 182 600 l 243 746 q 303 939 249 851 q 388 1013 332 985 q 521 1040 444 1040 q 753 961 656 1040 q 728 858 744 907 q 686 768 711 810 q 629 764 665 764 l 606 764 l 588 901 q 572 906 586 901 q 508 917 525 917 q 442 881 456 917 q 410 615 425 838 l 442 615 z "},"ˆ":{"ha":636,"x_min":133,"x_max":574,"o":"m 499 771 q 353 856 397 822 q 207 771 328 836 q 133 854 154 821 l 353 1036 l 574 854 q 499 771 554 824 z "},"ˇ":{"ha":636,"x_min":113,"x_max":553,"o":"m 188 1036 q 333 951 289 985 q 479 1036 358 971 q 553 953 532 986 l 333 771 l 113 953 q 188 1036 132 983 z "},"˘":{"ha":636,"x_min":63,"x_max":493,"o":"m 493 1024 q 433 867 493 935 q 274 799 374 799 q 119 866 175 799 q 63 1024 63 933 l 176 1024 q 201 956 176 985 q 276 928 225 928 q 364 1024 364 928 l 493 1024 z "},"˙":{"ha":214,"x_min":6,"x_max":210,"o":"m 197 1015 q 210 920 210 953 q 204 847 210 888 q 110 835 149 835 q 18 839 72 835 q 6 934 6 901 q 11 1007 6 967 q 105 1019 67 1019 q 197 1015 143 1019 z "},"˚":{"ha":656,"x_min":140,"x_max":504,"o":"m 323 1017 q 310 1017 323 1017 q 282 999 297 1017 q 267 952 267 982 q 282 906 267 922 q 323 889 297 889 q 364 906 349 889 q 379 952 379 922 q 364 999 379 982 q 323 1017 349 1017 m 324 1115 q 360 1115 324 1115 q 451 1071 397 1115 q 504 951 504 1026 q 451 834 504 875 q 324 793 399 793 q 194 835 249 793 q 140 951 140 876 q 195 1071 140 1026 q 324 1115 250 1115 z "},"˛":{"ha":419,"x_min":107,"x_max":386,"o":"m 386 -236 q 342 -310 371 -272 q 252 -302 303 -310 q 183 -286 201 -294 q 144 -267 164 -278 q 107 -192 107 -242 q 132 -77 107 -143 q 171 0 157 -11 q 229 4 194 4 q 289 0 264 4 q 281 -35 289 -1 q 257 -149 257 -129 q 386 -236 257 -151 z "},"˜":{"ha":888,"x_min":182,"x_max":703,"o":"m 226 785 q 182 858 200 819 q 308 969 207 893 q 360 989 335 989 q 447 961 385 989 q 533 928 510 933 q 657 988 656 986 q 703 914 690 940 q 574 799 664 857 q 525 779 546 779 q 439 812 493 789 q 357 842 385 835 q 292 812 336 829 q 226 785 247 794 z "},"˝":{"ha":661,"x_min":61,"x_max":604,"o":"m 61 856 l 267 1038 q 354 917 349 972 q 269 844 321 882 q 147 768 218 807 q 61 856 103 801 m 311 856 l 517 1038 q 604 917 599 972 q 519 844 571 882 q 397 768 468 807 q 311 856 353 801 z "},"Δ":{"ha":908,"x_min":26,"x_max":881,"o":"m 374 978 q 453 981 399 981 q 532 976 507 981 q 863 123 844 172 q 881 49 881 74 q 876 0 881 25 l 31 0 q 26 55 26 42 q 40 111 26 68 l 374 978 m 456 760 l 440 760 l 204 133 l 689 133 l 456 760 z "},"Ω":{"ha":1031,"x_min":90,"x_max":933,"o":"m 561 133 q 704 244 657 157 q 751 493 751 332 q 693 747 751 654 q 510 839 635 839 q 343 807 431 839 q 325 772 336 794 q 295 672 314 750 q 276 508 276 594 q 312 264 276 349 q 450 133 347 179 q 426 0 450 64 l 96 0 l 92 93 q 229 139 172 128 q 126 303 163 201 q 90 504 90 404 q 192 860 90 731 q 516 989 293 989 q 836 872 739 989 q 933 518 933 754 q 890 308 933 417 q 776 139 846 200 l 931 93 l 926 0 l 585 0 q 561 133 561 64 z "},"π":{"ha":786,"x_min":-7,"x_max":765,"o":"m 188 722 l 583 689 q 728 739 613 703 l 765 657 q 702 605 751 639 q 611 554 653 571 q 601 131 606 285 q 721 111 638 128 l 718 28 q 621 3 692 17 q 483 -10 550 -10 q 454 86 461 35 l 432 551 l 335 567 q 326 190 329 297 q 307 -1 324 82 q 186 -11 283 -11 q 156 567 171 54 q 31 526 107 546 l -7 608 q 82 678 11 633 q 188 722 153 722 z "},"–":{"ha":694,"x_min":1,"x_max":713,"o":"m 703 478 q 713 407 713 435 l 706 335 q 486 324 576 324 l 8 333 q 1 400 1 382 l 8 474 q 228 486 138 486 l 703 478 z "},"—":{"ha":1389,"x_min":1,"x_max":1361,"o":"m 1347 476 q 1361 407 1361 436 l 1354 335 q 1135 324 1225 324 l 8 333 q 1 400 1 379 l 8 474 q 228 486 138 486 l 1347 476 z "},"‘":{"ha":313,"x_min":69,"x_max":304,"o":"m 82 664 q 69 778 69 714 q 124 919 69 843 q 225 1025 178 994 q 304 971 274 1006 q 225 843 285 914 q 260 839 240 843 q 272 752 272 797 q 268 672 272 707 q 174 660 211 660 q 82 664 136 660 z "},"’":{"ha":313,"x_min":56,"x_max":290,"o":"m 278 1015 q 290 901 290 965 q 236 760 290 838 q 135 654 182 683 q 56 710 86 675 q 135 836 74 764 l 100 840 q 88 928 88 883 q 92 1008 88 974 q 177 1021 149 1021 q 278 1015 206 1021 z "},"‚":{"ha":292,"x_min":35,"x_max":269,"o":"m 257 176 q 269 63 269 126 q 215 -78 269 -1 q 114 -185 161 -156 q 35 -129 65 -164 q 114 -3 53 -75 l 79 1 q 67 90 67 44 q 71 169 67 135 q 156 182 128 182 q 257 176 185 182 z "},"“":{"ha":547,"x_min":56,"x_max":565,"o":"m 56 768 q 110 919 56 843 q 211 1025 164 996 q 290 971 258 1006 q 210 843 269 914 q 244 839 225 843 q 258 753 258 799 q 253 672 258 707 q 158 660 196 660 q 67 664 121 660 q 56 768 56 719 m 343 664 q 331 778 331 714 q 385 919 331 843 q 486 1025 439 994 q 565 971 533 1006 q 486 843 546 914 q 521 839 503 843 q 533 752 533 797 q 529 672 533 707 q 435 660 472 660 q 343 664 397 660 z "},"”":{"ha":547,"x_min":56,"x_max":551,"o":"m 278 1015 q 290 901 290 965 q 236 760 290 838 q 135 654 182 683 q 56 710 86 675 q 135 836 74 764 l 100 840 q 88 928 88 883 q 92 1008 88 974 q 177 1021 149 1021 q 278 1015 206 1021 m 551 911 q 497 760 551 838 q 396 654 443 683 q 317 710 347 675 q 396 836 335 764 l 361 840 q 349 929 349 885 q 353 1008 349 974 q 438 1021 410 1021 q 539 1015 467 1021 q 551 911 551 953 z "},"„":{"ha":571,"x_min":56,"x_max":532,"o":"m 532 72 q 478 -78 532 -1 q 376 -185 424 -156 q 296 -129 328 -164 q 376 -3 317 -75 l 342 1 q 328 92 328 50 q 333 169 328 135 q 419 182 390 182 q 519 176 447 182 q 532 72 532 114 m 278 176 q 290 63 290 126 q 236 -78 290 -1 q 135 -185 182 -156 q 56 -129 86 -164 q 135 -3 74 -75 l 100 1 q 88 90 88 46 q 92 169 88 135 q 177 182 149 182 q 278 176 206 182 z "},"†":{"ha":713,"x_min":42,"x_max":671,"o":"m 403 994 q 467 960 429 992 q 410 729 460 903 q 636 782 529 763 q 671 760 667 771 q 635 563 671 685 q 407 617 589 563 q 432 568 410 610 q 492 444 492 456 l 393 -318 q 317 -299 344 -318 l 224 446 q 252 524 225 467 q 299 615 279 582 q 78 563 114 563 q 42 760 42 676 q 76 782 44 771 q 304 728 194 761 q 247 951 247 929 q 403 994 336 994 z "},"‡":{"ha":713,"x_min":42,"x_max":671,"o":"m 403 994 q 467 960 429 992 q 410 729 460 903 q 636 782 529 763 q 671 760 667 771 q 635 563 671 685 q 407 617 589 563 q 433 575 410 611 q 492 465 492 479 q 414 319 490 438 q 635 372 599 372 q 671 175 671 258 q 636 153 668 164 q 408 207 518 174 q 465 -17 465 6 q 310 -60 376 -60 q 246 -25 283 -57 q 303 206 253 32 q 76 153 183 172 q 42 175 46 164 q 78 372 42 250 q 306 318 124 372 q 281 361 303 324 q 221 469 221 456 q 299 615 222 504 q 78 563 114 563 q 42 760 42 676 q 76 782 44 771 q 304 728 194 761 q 247 951 247 929 q 403 994 336 994 z "},"•":{"ha":567,"x_min":126,"x_max":471,"o":"m 463 246 q 324 228 403 228 q 149 239 246 228 q 126 403 126 325 q 135 542 126 482 q 302 558 221 558 q 453 549 383 558 q 471 383 471 456 q 463 246 471 311 z "},"…":{"ha":956,"x_min":71,"x_max":885,"o":"m 261 176 q 274 91 274 126 q 269 11 274 56 q 179 -1 222 -1 q 85 3 136 -1 q 71 84 71 58 q 76 168 71 110 q 165 181 122 181 q 261 176 207 181 m 567 176 q 579 91 579 126 q 575 11 579 56 q 485 -1 528 -1 q 390 3 442 -1 q 376 84 376 58 q 382 168 376 110 q 470 181 428 181 q 567 176 513 181 m 872 176 q 885 91 885 126 q 881 11 885 56 q 790 -1 833 -1 q 696 3 747 -1 q 682 84 682 58 q 688 168 682 110 q 776 181 733 181 q 872 176 818 181 z "},"‰":{"ha":1722,"x_min":56,"x_max":1658,"o":"m 56 750 q 119 959 56 882 q 308 1036 182 1036 q 499 961 433 1036 q 564 758 564 886 q 499 548 564 629 q 308 467 433 467 q 56 750 56 467 m 613 265 q 676 474 613 397 q 865 551 739 551 q 1055 476 990 551 q 1119 272 1119 401 q 1055 63 1119 143 q 865 -18 990 -18 q 613 265 613 -18 m 985 940 l 283 -26 q 185 42 231 -1 l 850 1028 q 985 940 933 993 m 242 616 q 246 609 242 616 q 267 590 250 601 q 310 579 283 579 q 356 593 338 579 q 382 636 375 607 q 393 731 393 681 q 391 806 393 782 q 382 861 389 829 q 308 924 368 924 q 242 889 263 924 q 224 822 225 861 q 222 751 222 783 q 223 701 222 718 q 228 657 224 683 q 242 616 233 631 m 799 133 q 803 125 799 133 q 824 107 807 118 q 865 96 840 96 q 906 107 889 96 q 931 132 922 118 q 944 171 939 146 q 950 249 950 203 q 948 320 950 296 q 939 375 946 344 q 865 439 925 439 q 799 404 819 439 q 781 338 782 376 q 779 267 779 299 q 780 217 779 235 q 785 173 781 199 q 799 133 790 147 m 1151 265 q 1215 474 1151 397 q 1403 551 1278 551 q 1594 476 1529 551 q 1658 272 1658 401 q 1594 63 1658 143 q 1404 -18 1529 -18 q 1151 265 1151 -18 m 1338 133 q 1342 125 1338 133 q 1363 107 1346 118 q 1403 96 1379 96 q 1444 107 1428 96 q 1469 132 1461 118 q 1483 171 1478 146 q 1489 249 1489 203 q 1487 320 1489 296 q 1478 375 1485 344 q 1404 439 1464 439 q 1338 404 1358 439 q 1319 338 1321 376 q 1318 267 1318 299 q 1319 217 1318 235 q 1324 173 1319 199 q 1338 133 1329 147 z "},"‹":{"ha":408,"x_min":69,"x_max":364,"o":"m 74 340 q 69 365 69 349 q 71 388 69 381 l 136 479 q 253 613 172 529 q 364 543 297 601 q 240 364 250 374 q 265 332 256 346 l 363 185 q 250 117 310 122 q 136 249 176 190 l 74 340 z "},"›":{"ha":408,"x_min":97,"x_max":392,"o":"m 390 388 q 392 365 392 381 q 388 340 392 349 l 325 249 q 211 117 292 200 q 156 136 185 119 q 99 185 128 153 q 221 364 167 296 q 97 543 210 375 q 208 613 157 600 q 325 479 285 536 l 390 388 z "},"⁄":{"ha":664,"x_min":-29,"x_max":771,"o":"m 771 940 l 69 -26 q -29 42 17 -1 l 636 1028 q 771 940 719 993 z "},"€":{"ha":881,"x_min":21,"x_max":776,"o":"m 553 325 q 406 308 464 308 q 318 310 347 308 q 374 174 333 221 q 497 128 415 128 q 611 150 578 128 l 640 275 l 756 271 q 776 39 776 128 q 674 1 750 18 q 497 -17 599 -17 q 245 61 338 -17 q 126 314 153 139 l 25 318 q 21 383 21 350 l 25 428 q 118 443 68 439 q 117 508 117 464 l 25 513 q 21 578 21 544 l 25 622 q 124 638 72 633 q 506 989 169 989 q 634 974 592 989 q 697 946 676 958 q 761 896 724 931 q 742 699 761 818 q 626 694 697 694 l 585 838 q 510 851 557 851 q 381 832 417 851 l 367 825 q 313 638 313 751 l 553 629 q 556 589 556 614 l 553 519 q 404 503 464 503 q 307 504 344 503 q 308 443 307 469 l 553 435 q 556 394 556 419 l 553 325 z "},"™":{"ha":1122,"x_min":28,"x_max":1101,"o":"m 51 776 q 28 897 28 864 q 29 936 28 931 l 465 936 q 467 907 467 928 l 457 776 q 381 775 435 775 l 363 838 l 308 838 q 303 636 306 713 l 382 624 q 369 532 382 567 l 125 532 l 122 607 q 207 629 185 626 l 189 838 l 136 838 l 119 775 l 51 776 m 531 629 l 575 847 q 506 858 521 856 l 507 938 l 719 938 l 771 732 l 785 732 l 828 938 l 1031 938 q 1039 846 1039 881 q 971 843 993 843 l 1022 636 l 1101 624 q 1089 532 1101 567 l 844 532 l 842 607 q 919 635 899 626 l 882 824 l 810 601 l 751 601 l 661 822 l 639 635 l 706 624 q 693 532 706 567 l 449 532 l 446 607 q 531 629 510 625 z "},"∂":{"ha":908,"x_min":85,"x_max":825,"o":"m 461 494 q 328 433 375 494 q 281 290 281 372 q 315 160 281 207 q 413 114 350 114 q 525 167 476 114 q 594 288 574 219 q 621 436 614 356 q 592 456 599 451 q 569 469 585 461 q 539 483 553 478 q 461 494 503 494 m 626 585 l 628 629 q 560 840 628 760 q 336 956 492 919 q 382 1056 336 1024 q 683 897 551 1028 q 787 740 749 835 q 825 553 825 646 q 809 385 825 461 q 758 236 793 310 q 674 106 724 163 q 551 14 625 49 q 390 -21 478 -21 q 170 69 256 -21 q 85 297 85 158 q 181 528 85 436 q 449 619 276 619 q 626 585 557 619 z "},"∏":{"ha":1047,"x_min":54,"x_max":993,"o":"m 900 849 l 893 133 l 989 121 q 957 0 989 64 l 619 0 l 607 76 q 724 117 685 108 q 718 842 724 403 l 354 842 q 351 133 351 633 l 447 121 q 415 0 447 64 l 78 0 l 65 76 q 182 117 143 108 q 169 851 182 121 l 54 888 l 65 972 l 967 972 q 993 863 989 935 q 900 849 922 851 z "},"∑":{"ha":871,"x_min":35,"x_max":815,"o":"m 811 972 q 779 718 811 851 q 646 711 707 711 l 628 843 l 318 843 l 557 472 q 558 458 558 469 l 557 438 l 338 129 l 632 129 l 650 260 l 783 251 q 815 0 814 143 l 63 0 l 53 49 l 375 453 l 74 911 l 35 924 l 38 972 l 811 972 z "},"−":{"ha":828,"x_min":97,"x_max":750,"o":"m 746 444 q 750 382 750 407 l 746 324 q 560 303 636 303 l 104 313 q 97 371 97 347 l 103 431 q 289 451 211 451 l 746 444 z "},"√":{"ha":847,"x_min":7,"x_max":833,"o":"m 643 1054 q 726 1058 672 1058 q 833 1051 781 1058 l 506 -3 q 460 -7 486 -7 l 306 0 l 129 553 q 7 569 53 557 l 13 683 q 246 704 92 704 q 307 701 289 704 q 289 589 307 669 q 298 556 292 576 q 320 481 304 536 q 350 378 336 426 q 411 172 390 240 l 643 1054 z "},"∞":{"ha":1326,"x_min":49,"x_max":1278,"o":"m 1210 549 q 1244 513 1210 549 q 1278 364 1278 478 q 1206 174 1278 250 q 1003 97 1135 97 q 843 138 925 97 q 658 256 761 179 q 477 140 560 182 q 313 97 394 97 q 115 169 181 97 q 49 355 49 242 q 122 544 49 468 q 319 619 194 619 q 483 578 400 619 q 668 460 565 536 q 1010 619 878 619 q 1210 549 1143 619 m 1011 260 q 1075 275 1039 260 q 1089 351 1089 296 q 1066 435 1089 406 q 1001 465 1043 465 q 800 358 939 465 q 1011 260 914 260 m 457 416 q 445 424 457 416 q 395 447 433 432 q 328 461 357 461 q 253 446 283 461 q 239 355 239 400 q 266 283 239 310 q 330 256 293 256 q 413 282 367 256 q 528 363 458 308 q 457 416 481 400 z "},"∫":{"ha":625,"x_min":7,"x_max":596,"o":"m 226 6 l 213 751 q 469 1040 213 1040 q 596 986 568 1003 q 567 874 585 926 q 426 904 472 874 q 390 732 390 875 l 390 11 q 322 -250 390 -169 q 247 -303 294 -282 q 133 -325 199 -325 q 7 -271 35 -287 q 46 -158 31 -211 q 186 -192 139 -158 q 226 6 226 -160 z "},"≈":{"ha":826,"x_min":83,"x_max":743,"o":"m 121 397 q 83 479 99 435 q 174 549 101 504 q 279 593 247 593 l 561 524 q 706 574 586 538 q 743 492 728 536 q 653 423 726 468 q 549 378 579 378 l 265 447 q 121 397 240 433 m 121 154 q 83 236 97 194 q 174 306 101 261 q 279 350 247 350 l 561 281 q 706 331 586 294 q 743 249 728 293 q 653 180 726 225 q 549 135 579 135 l 265 204 q 121 154 240 190 z "},"≠":{"ha":888,"x_min":88,"x_max":796,"o":"m 792 194 q 581 174 665 174 q 426 175 497 174 l 342 -11 q 240 33 272 -3 l 303 178 l 94 183 q 88 242 88 218 l 93 303 q 278 324 218 324 q 365 322 339 324 l 401 408 l 94 415 q 88 474 88 450 l 93 533 q 304 554 218 554 q 464 553 390 554 l 535 717 q 558 711 539 715 q 588 703 576 707 q 608 696 599 700 q 653 668 631 685 l 599 550 l 792 547 q 796 485 796 510 l 792 426 q 578 406 665 406 l 532 406 l 493 321 l 789 315 q 796 253 796 279 l 792 194 z "},"≤":{"ha":735,"x_min":35,"x_max":688,"o":"m 57 474 q 49 512 49 482 q 54 549 49 542 q 497 808 392 761 q 581 844 535 826 l 650 721 q 343 544 389 572 l 289 517 l 343 489 l 650 313 l 581 189 q 456 244 497 219 q 57 474 110 446 m 683 125 q 688 63 688 88 l 683 4 q 497 -17 574 -17 l 42 -7 q 35 51 35 28 l 40 111 q 226 132 149 132 l 683 125 z "},"≥":{"ha":731,"x_min":35,"x_max":688,"o":"m 644 549 q 650 512 650 542 q 642 474 650 482 q 268 258 589 446 q 118 189 210 225 l 49 313 q 410 517 332 476 l 356 544 l 49 721 l 118 844 q 308 753 201 814 q 644 549 414 693 m 683 125 q 688 63 688 88 l 683 4 q 497 -17 574 -17 l 42 -7 q 35 51 35 28 l 40 111 q 226 132 149 132 l 683 125 z "},"◊":{"ha":853,"x_min":35,"x_max":818,"o":"m 382 978 l 471 978 q 728 630 700 671 q 776 551 756 589 q 818 468 818 476 q 592 122 621 163 q 475 -15 542 49 q 423 -18 453 -18 q 378 -15 393 -18 q 283 89 314 44 q 194 223 253 133 q 85 390 136 313 q 35 469 35 468 q 117 617 71 553 l 382 978 m 428 819 q 183 474 208 510 q 216 433 193 463 q 253 387 239 404 q 422 142 267 369 l 428 142 q 600 388 569 349 q 668 474 622 422 q 435 803 442 790 q 428 819 429 815 z "},"":{"ha":388,"x_min":0,"x_max":0,"o":""},"":{"ha":1125,"x_min":68,"x_max":1104,"o":"m 951 253 q 1002 258 985 258 q 1078 249 1019 258 q 1094 178 1083 238 q 1104 81 1104 118 q 1096 0 1104 44 l 92 0 l 79 76 q 196 117 147 104 q 183 851 196 121 l 68 888 l 79 972 l 440 972 q 441 969 439 972 q 447 958 443 967 q 454 936 450 949 q 465 863 463 914 q 372 849 394 851 q 365 133 367 369 l 921 133 l 951 253 m 950 576 q 1001 582 983 582 q 1076 572 1018 582 q 1092 501 1082 561 q 1103 404 1103 442 q 1094 324 1103 367 l 532 324 l 519 400 q 636 440 588 428 q 630 667 635 525 q 624 851 625 810 l 508 888 l 519 972 l 881 972 q 881 969 879 972 q 887 958 883 967 q 894 936 890 949 q 906 863 903 914 q 813 849 835 851 q 806 457 807 546 l 919 457 l 950 576 z "},"":{"ha":1319,"x_min":68,"x_max":1340,"o":"m 1090 253 q 1141 258 1124 258 q 1217 249 1158 258 q 1233 178 1222 238 q 1243 81 1243 118 q 1235 0 1243 44 l 92 0 l 79 76 q 196 117 147 104 q 183 851 196 121 l 68 888 l 79 972 l 440 972 q 441 969 439 972 q 447 958 443 967 q 454 936 450 949 q 465 863 463 914 q 372 849 394 851 q 365 133 367 369 l 1060 133 l 1090 253 m 1315 972 q 1340 863 1336 931 q 1247 849 1340 849 l 1244 663 q 1167 413 1242 508 q 928 317 1093 317 q 690 405 763 317 q 615 651 618 493 q 610 851 613 774 l 494 888 l 506 972 l 867 972 q 867 969 865 972 q 873 958 869 967 q 881 936 876 949 q 892 863 889 914 q 799 849 821 851 l 794 663 q 823 515 794 565 q 928 464 851 464 q 1064 671 1064 464 q 1058 851 1064 671 l 943 888 l 954 972 l 1315 972 z "},"":{"ha":775,"x_min":32,"x_max":743,"o":"m 242 624 q 242 567 242 624 q 270 451 242 511 q 376 390 299 390 q 481 449 454 390 q 508 618 508 508 q 481 789 508 728 q 387 850 454 850 q 276 821 319 850 q 242 624 242 736 m 51 614 q 132 891 51 792 q 381 990 213 990 q 624 899 549 990 q 699 631 699 808 q 619 351 699 453 q 379 250 540 250 q 51 614 51 250 m 733 186 q 743 115 743 143 l 736 43 q 517 32 607 32 l 39 42 q 32 108 32 90 l 39 182 q 258 194 168 194 l 733 186 z "},"":{"ha":799,"x_min":14,"x_max":742,"o":"m 331 835 q 324 646 326 693 l 460 646 l 471 711 q 582 688 524 711 l 582 444 l 492 433 q 464 513 469 481 l 324 513 q 318 338 318 371 l 603 338 l 619 411 l 722 407 q 742 290 742 360 q 739 203 742 219 l 36 203 l 32 293 q 150 325 93 315 q 136 844 144 583 q 14 878 106 847 l 21 971 l 718 971 q 721 917 721 953 q 701 750 721 842 q 593 746 681 750 l 571 835 l 331 835 m 731 131 q 740 74 740 94 l 733 1 q 514 -10 604 -10 l 36 0 q 29 67 29 49 l 36 126 q 256 139 165 139 l 731 131 z "},"":{"ha":951,"x_min":28,"x_max":1407,"o":"m 1239 -392 q 1133 -399 1204 -399 q 949 -365 1063 -399 q 746 -292 835 -332 q 381 -185 510 -185 q 257 -206 347 -185 q 160 -228 167 -228 q 127 -188 139 -211 q 113 -136 115 -165 q 360 -54 283 -54 q 559 -92 436 -54 q 821 -169 682 -131 q 1060 -208 960 -208 q 1333 -96 1189 -208 q 1406 -168 1406 -122 q 1386 -212 1406 -175 q 1325 -304 1367 -250 q 1239 -392 1283 -358 m 458 131 q 689 485 689 131 q 458 839 689 839 q 283 808 358 839 q 219 499 219 675 q 272 227 219 324 q 458 131 325 131 m 458 989 q 785 867 690 989 q 879 496 879 746 q 839 228 879 339 q 703 50 799 117 q 458 -17 607 -17 q 130 110 232 -17 q 28 478 28 236 q 458 989 28 989 z "},"":{"ha":799,"x_min":14,"x_max":783,"o":"m 183 193 l 188 50 q 167 -18 188 -14 q 125 -6 138 -18 q 50 105 86 33 q 14 259 14 176 q 40 375 14 342 q 111 408 67 408 q 190 374 156 408 q 214 358 206 358 q 292 386 253 358 q 331 447 331 414 q 281 456 331 456 q 201 488 232 456 q 169 563 169 519 q 183 629 169 606 q 217 663 196 653 q 283 679 250 679 q 342 657 317 679 q 381 635 367 635 q 456 657 417 635 q 600 714 551 714 q 672 681 649 714 q 696 604 696 647 q 681 530 696 561 q 652 488 665 499 q 629 472 639 478 q 588 510 614 494 q 543 525 563 525 q 467 449 467 525 q 505 386 467 414 q 583 358 543 358 q 618 383 594 358 q 686 408 642 408 q 783 261 783 408 q 747 105 783 176 q 672 -6 711 33 q 631 -18 660 -18 q 624 58 624 -11 l 626 193 q 603 179 622 193 q 569 165 583 165 q 544 169 554 165 q 528 179 533 174 q 510 196 522 185 q 490 214 497 207 q 454 156 469 186 q 550 79 536 106 q 508 27 550 71 q 454 -17 467 -17 q 397 32 429 -17 q 350 -18 354 -11 q 290 22 333 -15 q 247 72 247 58 q 296 119 247 86 q 344 154 344 151 q 308 213 344 171 q 239 165 272 165 q 183 193 206 165 m 277 597 q 271 597 277 597 q 257 588 265 597 q 249 567 249 579 q 257 547 249 554 q 277 539 265 539 q 298 547 289 539 q 307 567 307 554 q 298 588 307 579 q 277 597 289 597 z "},"":{"ha":1614,"x_min":0,"x_max":1586,"o":"m 1022 93 l 1213 97 q 1244 65 1244 97 q 1153 3 1244 26 q 900 -21 1063 -21 q 634 35 738 -21 q 531 151 531 90 q 538 197 531 172 q 544 232 544 222 q 528 249 544 242 q 469 261 511 256 q 398 274 426 267 q 315 315 369 282 q 250 349 261 349 q 206 267 228 349 q 183 136 183 186 q 188 69 183 86 q 195 42 192 51 q 199 29 199 32 q 168 8 199 8 q 45 64 90 8 q 0 203 0 119 q 19 342 0 288 q 61 422 39 397 q 103 464 83 446 q 122 489 122 482 q 119 529 119 511 q 171 648 119 593 q 291 703 222 703 q 414 673 360 703 q 468 582 468 643 q 453 510 468 540 q 438 475 438 481 q 488 458 449 458 q 528 465 528 458 q 511 526 511 504 q 600 677 511 625 q 800 729 689 729 q 1051 673 911 729 q 1192 583 1192 617 q 1157 560 1188 560 q 1022 581 1144 560 q 851 601 900 601 q 763 556 763 601 q 806 525 763 535 q 910 506 856 513 q 1014 492 964 500 q 1143 469 1136 469 q 1153 470 1150 469 q 1158 474 1156 471 q 1163 480 1161 476 q 1176 508 1164 483 q 1276 567 1203 547 q 1417 586 1350 586 q 1535 572 1483 586 q 1586 536 1586 557 q 1559 506 1586 515 q 1494 492 1532 497 q 1417 475 1456 486 q 1351 430 1378 464 q 1324 341 1324 396 q 1360 243 1324 286 q 1439 179 1396 200 q 1518 138 1482 158 q 1554 101 1554 117 q 1506 58 1554 58 q 1325 96 1401 58 q 1160 231 1249 133 q 962 201 1093 225 q 831 163 831 176 q 902 115 831 136 q 1022 93 974 93 m 260 581 q 255 575 260 581 q 250 554 250 569 q 260 528 250 539 q 287 517 271 517 q 314 528 303 517 q 325 554 325 539 q 314 581 325 569 q 287 592 303 592 q 260 581 271 592 z "},"":{"ha":635,"x_min":29,"x_max":606,"o":"m 239 583 l 42 558 l 33 558 q 29 735 29 682 l 29 750 l 47 750 q 235 735 94 750 q 201 1015 201 981 q 404 1019 342 1019 l 421 1019 l 422 990 q 399 735 422 967 l 606 750 l 601 558 q 396 582 568 558 l 424 -42 q 308 -44 363 -44 q 211 -37 253 -44 l 239 583 z "},"":{"ha":500,"x_min":35,"x_max":494,"o":"m 393 861 q 379 133 393 844 l 494 121 q 463 0 494 60 l 76 0 l 64 76 q 219 126 167 115 q 207 749 219 211 q 72 710 110 714 q 35 832 36 774 l 328 933 q 393 861 376 907 z "},"":{"ha":657,"x_min":22,"x_max":638,"o":"m 232 651 l 182 650 q 101 660 157 650 q 74 842 75 732 q 181 912 111 879 q 314 944 251 944 q 520 865 442 944 q 599 690 599 786 q 563 526 599 593 q 428 344 526 460 l 240 124 l 475 124 q 494 247 490 233 q 546 250 511 250 q 618 235 581 250 q 638 49 638 138 l 636 0 l 46 0 q 22 107 22 50 q 297 426 217 329 q 397 564 378 522 q 415 668 415 606 q 388 776 415 731 q 303 821 360 821 q 264 819 276 821 q 246 727 257 789 q 232 651 235 665 z "},"":{"ha":658,"x_min":40,"x_max":625,"o":"m 406 704 q 281 822 406 822 q 249 819 268 822 l 217 650 q 88 658 119 650 q 60 826 60 736 l 60 839 q 165 909 92 878 q 292 940 238 940 q 504 877 421 940 q 588 722 588 814 q 467 525 588 601 q 579 444 533 504 q 625 292 625 383 q 565 124 625 200 q 426 13 506 49 q 255 -22 347 -22 q 40 19 163 -22 q 71 131 43 90 l 113 122 q 222 106 179 106 q 286 110 264 106 q 349 128 308 114 q 415 179 389 142 q 442 279 442 217 q 399 384 442 342 q 288 426 356 426 q 192 418 283 426 q 178 494 178 476 q 181 540 178 513 l 263 551 q 364 601 322 560 q 406 704 406 642 z "},"":{"ha":739,"x_min":21,"x_max":731,"o":"m 729 344 l 731 313 q 707 218 731 258 l 588 218 l 578 1 q 514 -4 554 -4 q 440 0 474 -4 l 431 218 l 49 218 q 21 303 21 258 q 24 319 21 314 l 378 931 l 603 931 q 590 346 603 925 l 729 344 m 428 347 l 418 696 l 211 344 q 428 347 283 344 z "},"":{"ha":821,"x_min":26,"x_max":818,"o":"m 514 -115 q 525 -209 525 -157 q 479 -325 525 -261 q 394 -412 433 -389 q 324 -365 351 -393 q 385 -265 339 -322 l 361 -261 q 351 -192 351 -232 q 354 -121 351 -153 q 437 -110 410 -110 q 514 -115 464 -110 m 321 240 l 319 133 l 428 121 q 396 0 428 64 l 50 0 l 38 76 q 163 118 124 108 l 136 889 q 26 910 71 896 q 36 1010 26 961 q 317 1032 118 1032 q 350 1031 343 1032 q 332 904 350 958 q 324 410 324 571 l 489 574 l 403 585 q 435 706 403 642 l 781 706 l 793 629 q 668 588 707 597 l 515 435 l 710 133 l 818 121 q 786 0 818 64 l 608 0 l 403 322 l 321 240 z "},"ﬁ":{"ha":849,"x_min":28,"x_max":857,"o":"m 153 124 q 144 582 153 257 l 38 582 l 33 658 q 144 689 83 678 l 144 746 q 211 942 144 857 q 318 1014 247 988 q 477 1040 389 1040 q 649 1022 565 1040 q 776 982 732 1003 q 764 808 776 893 q 647 803 717 803 l 624 804 l 582 903 q 536 909 578 903 q 446 915 494 915 q 357 871 397 915 q 317 735 317 826 l 317 699 l 743 711 q 786 693 761 711 q 778 644 783 668 q 772 607 774 619 q 767 581 769 594 q 761 439 765 529 q 754 136 754 243 q 857 125 804 136 q 833 0 857 67 l 488 0 l 474 76 q 599 118 538 106 q 585 572 592 393 l 317 585 q 306 135 306 204 q 419 124 361 135 q 396 -1 419 65 l 32 -1 l 28 75 q 153 124 92 106 z "},"ﬂ":{"ha":849,"x_min":28,"x_max":858,"o":"m 768 914 l 756 136 q 858 125 806 136 q 835 0 858 67 l 488 0 l 474 76 q 599 118 538 103 q 592 537 597 267 q 585 894 586 807 q 462 917 524 917 q 358 871 400 917 q 315 728 315 825 l 315 711 l 333 713 q 489 692 413 713 q 465 582 489 642 l 315 582 l 307 136 q 419 122 404 122 q 396 0 419 67 l 32 0 l 28 76 q 153 124 92 107 q 144 582 144 565 l 38 582 l 33 658 q 144 696 83 682 l 144 746 q 222 949 144 858 q 439 1040 300 1040 q 736 1032 658 1040 q 785 1001 754 1032 q 768 914 775 965 z "}}}
